<?xml version="1.0" encoding="UTF-8"?>
<svg version="1.1" viewBox="0 0 64 64" xmlns="http://www.w3.org/2000/svg" xmlns:cc="http://creativecommons.org/ns#" xmlns:dc="http://purl.org/dc/elements/1.1/" xmlns:rdf="http://www.w3.org/1999/02/22-rdf-syntax-ns#">
<metadata>
<rdf:RDF>
<cc:Work rdf:about="">
<dc:format>image/svg+xml</dc:format>
<dc:type rdf:resource="http://purl.org/dc/dcmitype/StillImage"/>
<dc:title/>
</cc:Work>
</rdf:RDF>
</metadata>
<rect width="64" height="64" ry="4" fill="#b1244a" style="paint-order:normal"/>
<path d="m22.348 6.9609-3.6789 3.6789 6.7577 6.7577h-13.933c-2.8962 0-5.2183 2.3221-5.2183 5.2183v26.091c0 2.8962 2.3221 5.2183 5.2183 5.2183h41.746c2.8962 0 5.2183-2.3221 5.2183-5.2183v-26.091c0-2.8962-2.3221-5.2183-5.2183-5.2183h-13.933l6.7577-6.7577-3.6789-3.6789-10.019 10.019-10.019-10.019m-10.854 15.655h33.919v26.091h-33.919v-26.091m40.442 0a2.6091 2.6091 0 0 1 2.6091 2.6091 2.6091 2.6091 0 0 1-2.6091 2.6091 2.6091 2.6091 0 0 1-2.6091-2.6091 2.6091 2.6091 0 0 1 2.6091-2.6091m0 7.8274a2.6091 2.6091 0 0 1 2.6091 2.6091 2.6091 2.6091 0 0 1-2.6091 2.6091 2.6091 2.6091 0 0 1-2.6091-2.6091 2.6091 2.6091 0 0 1 2.6091-2.6091z" fill="#f7f7f7"/>
</svg>
