<?xml version="1.0" encoding="UTF-8" standalone="no"?>
<!-- Created with Inkscape (http://www.inkscape.org/) -->

<svg
   xmlns:dc="http://purl.org/dc/elements/1.1/"
   xmlns:cc="http://creativecommons.org/ns#"
   xmlns:rdf="http://www.w3.org/1999/02/22-rdf-syntax-ns#"
   xmlns:svg="http://www.w3.org/2000/svg"
   xmlns="http://www.w3.org/2000/svg"
   xmlns:sodipodi="http://sodipodi.sourceforge.net/DTD/sodipodi-0.dtd"
   xmlns:inkscape="http://www.inkscape.org/namespaces/inkscape"
   width="64"
   height="64"
   viewBox="0 0 64 64"
   version="1.1"
   id="svg8"
   inkscape:version="0.92.4 (5da689c313, 2019-01-14)"
   sodipodi:docname="cached1.svg">
  <defs
     id="defs2" />
  <sodipodi:namedview
     id="base"
     pagecolor="#ffffff"
     bordercolor="#666666"
     borderopacity="1.0"
     inkscape:pageopacity="0.0"
     inkscape:pageshadow="2"
     inkscape:zoom="5.6"
     inkscape:cx="-4.772356"
     inkscape:cy="30.926718"
     inkscape:document-units="px"
     inkscape:current-layer="svg8"
     showgrid="false"
     units="px"
     inkscape:window-width="1866"
     inkscape:window-height="1055"
     inkscape:window-x="1974"
     inkscape:window-y="0"
     inkscape:window-maximized="1"
     inkscape:snap-object-midpoints="true"
     inkscape:snap-bbox="false"
     inkscape:object-paths="true"
     inkscape:snap-page="true" />
  <metadata
     id="metadata5">
    <rdf:RDF>
      <cc:Work
         rdf:about="">
        <dc:format>image/svg+xml</dc:format>
        <dc:type
           rdf:resource="http://purl.org/dc/dcmitype/StillImage" />
        <dc:title />
      </cc:Work>
    </rdf:RDF>
  </metadata>
  <rect
     style="fill:#00aa00;fill-opacity:1;stroke:none;stroke-width:1.2497865;stroke-linecap:round;stroke-linejoin:round;stroke-miterlimit:4;stroke-dasharray:none;stroke-opacity:1;paint-order:normal"
     id="rect811"
     width="64"
     height="64"
     x="1e-06"
     y="0"
     ry="4" />
  <g
     id="g881"
     transform="matrix(0.16735832,0,0,0.16735832,7.2702142,7.2701929)"
     style="fill:#f7f7f7;fill-opacity:1">
    <path
       id="path826"
       d="m 279.212,101.3 11.925,-11.925 c 2.813,-2.813 4.394,-6.628 4.394,-10.606 0,-3.978 -1.58,-7.794 -4.394,-10.606 L 227.367,4.394 c -5.857,-5.857 -15.356,-5.857 -21.213,0 L 4.394,206.155 C 1.58,208.967 0,212.783 0,216.761 c 0,3.978 1.58,7.794 4.394,10.606 l 63.77,63.769 c 2.929,2.929 6.768,4.394 10.606,4.394 3.838,0 7.678,-1.465 10.606,-4.394 l 11.924,-11.924 10.005,10.005 c 2.929,2.93 6.768,4.394 10.606,4.394 3.838,0 7.678,-1.465 10.606,-4.394 L 289.216,132.519 c 2.813,-2.813 4.394,-6.628 4.394,-10.606 0,-3.978 -1.58,-7.794 -4.394,-10.606 z M 68.722,248.064 36.837,216.18 l 33.627,-33.627 31.884,31.884 z m 72.858,-72.858 -31.884,-31.884 33.627,-33.627 31.884,31.884 z m 72.858,-72.858 -31.884,-31.884 33.627,-33.627 31.884,31.884 z"
       inkscape:connector-curvature="0"
       style="fill:#f7f7f7;fill-opacity:1" />
    <g
       id="g828"
       style="fill:#f7f7f7;fill-opacity:1">
</g>
    <g
       id="g830"
       style="fill:#f7f7f7;fill-opacity:1">
</g>
    <g
       id="g832"
       style="fill:#f7f7f7;fill-opacity:1">
</g>
    <g
       id="g834"
       style="fill:#f7f7f7;fill-opacity:1">
</g>
    <g
       id="g836"
       style="fill:#f7f7f7;fill-opacity:1">
</g>
    <g
       id="g838"
       style="fill:#f7f7f7;fill-opacity:1">
</g>
    <g
       id="g840"
       style="fill:#f7f7f7;fill-opacity:1">
</g>
    <g
       id="g842"
       style="fill:#f7f7f7;fill-opacity:1">
</g>
    <g
       id="g844"
       style="fill:#f7f7f7;fill-opacity:1">
</g>
    <g
       id="g846"
       style="fill:#f7f7f7;fill-opacity:1">
</g>
    <g
       id="g848"
       style="fill:#f7f7f7;fill-opacity:1">
</g>
    <g
       id="g850"
       style="fill:#f7f7f7;fill-opacity:1">
</g>
    <g
       id="g852"
       style="fill:#f7f7f7;fill-opacity:1">
</g>
    <g
       id="g854"
       style="fill:#f7f7f7;fill-opacity:1">
</g>
    <g
       id="g856"
       style="fill:#f7f7f7;fill-opacity:1">
</g>
  </g>
</svg>
