<?xml version="1.0" encoding="UTF-8"?>
<svg version="1.1" viewBox="0 0 64 64" xmlns="http://www.w3.org/2000/svg" xmlns:cc="http://creativecommons.org/ns#" xmlns:dc="http://purl.org/dc/elements/1.1/" xmlns:rdf="http://www.w3.org/1999/02/22-rdf-syntax-ns#">
<metadata>
<rdf:RDF>
<cc:Work rdf:about="">
<dc:format>image/svg+xml</dc:format>
<dc:type rdf:resource="http://purl.org/dc/dcmitype/StillImage"/>
<dc:title/>
</cc:Work>
</rdf:RDF>
</metadata>
<rect x="1e-6" width="64" height="64" ry="4" fill="#0a0" style="paint-order:normal"/>
<g transform="matrix(.16736 0 0 .16736 7.2702 7.2702)" fill="#f7f7f7">
<path d="m279.21 101.3 11.925-11.925c2.813-2.813 4.394-6.628 4.394-10.606s-1.58-7.794-4.394-10.606l-63.77-63.769c-5.857-5.857-15.356-5.857-21.213 0l-201.76 201.76c-2.814 2.812-4.394 6.628-4.394 10.606s1.58 7.794 4.394 10.606l63.77 63.769c2.929 2.929 6.768 4.394 10.606 4.394s7.678-1.465 10.606-4.394l11.924-11.924 10.005 10.005c2.929 2.93 6.768 4.394 10.606 4.394s7.678-1.465 10.606-4.394l156.7-156.7c2.813-2.813 4.394-6.628 4.394-10.606s-1.58-7.794-4.394-10.606zm-210.49 146.76-31.885-31.884 33.627-33.627 31.884 31.884zm72.858-72.858-31.884-31.884 33.627-33.627 31.884 31.884zm72.858-72.858-31.884-31.884 33.627-33.627 31.884 31.884z" fill="#f7f7f7"/>
</g>
</svg>
