<?xml version="1.0" encoding="UTF-8" standalone="no"?>
<!-- Created with Inkscape (http://www.inkscape.org/) -->

<svg
   xmlns:dc="http://purl.org/dc/elements/1.1/"
   xmlns:cc="http://creativecommons.org/ns#"
   xmlns:rdf="http://www.w3.org/1999/02/22-rdf-syntax-ns#"
   xmlns:svg="http://www.w3.org/2000/svg"
   xmlns="http://www.w3.org/2000/svg"
   xmlns:sodipodi="http://sodipodi.sourceforge.net/DTD/sodipodi-0.dtd"
   xmlns:inkscape="http://www.inkscape.org/namespaces/inkscape"
   width="64"
   height="64"
   viewBox="0 0 64 64"
   version="1.1"
   id="svg8"
   inkscape:version="0.92.3 (2405546, 2018-03-11)"
   sodipodi:docname="cryptocoin.svg">
  <defs
     id="defs2" />
  <sodipodi:namedview
     id="base"
     pagecolor="#ffffff"
     bordercolor="#666666"
     borderopacity="1.0"
     inkscape:pageopacity="0.0"
     inkscape:pageshadow="2"
     inkscape:zoom="3.959798"
     inkscape:cx="124.57575"
     inkscape:cy="38.501128"
     inkscape:document-units="px"
     inkscape:current-layer="svg8"
     showgrid="false"
     units="px"
     inkscape:window-width="1920"
     inkscape:window-height="1064"
     inkscape:window-x="0"
     inkscape:window-y="0"
     inkscape:window-maximized="1" />
  <metadata
     id="metadata5">
    <rdf:RDF>
      <cc:Work
         rdf:about="">
        <dc:format>image/svg+xml</dc:format>
        <dc:type
           rdf:resource="http://purl.org/dc/dcmitype/StillImage" />
        <dc:title />
      </cc:Work>
    </rdf:RDF>
  </metadata>
  <rect
     style="fill:#ff6600;fill-opacity:1;stroke:none;stroke-width:1.2497865;stroke-linecap:round;stroke-linejoin:round;stroke-miterlimit:4;stroke-dasharray:none;stroke-opacity:1;paint-order:normal"
     id="rect811"
     width="64"
     height="64"
     x="0"
     y="0"
     ry="4" />
  <path
     style="fill:#f7f7f7;fill-opacity:1;stroke:none;stroke-width:2.07002854;stroke-linecap:round;stroke-linejoin:round;stroke-miterlimit:4;stroke-dasharray:none;stroke-opacity:1;paint-order:normal"
     d="M 47.364814,28.824889 A 14.776786,10.131006 0 0 0 46.735908,25.925807 14.776786,10.131006 0 0 1 32.589424,33.140705 14.776786,10.131006 0 0 1 18.442939,25.909738 14.776786,10.131006 0 0 0 17.81208,28.824889 14.776786,10.131006 0 0 0 32.589424,38.954938 14.776786,10.131006 0 0 0 47.364814,28.824889 Z"
     id="path816"
     inkscape:connector-curvature="0" />
  <ellipse
     style="fill:#f7f7f7;fill-opacity:1;stroke:none;stroke-width:2.10649252;stroke-linecap:round;stroke-linejoin:round;stroke-miterlimit:4;stroke-dasharray:none;stroke-opacity:1;paint-order:normal"
     id="circle820"
     cx="19.357561"
     cy="-32.588867"
     transform="rotate(90)"
     rx="10.491072"
     ry="14.776786" />
  <path
     inkscape:connector-curvature="0"
     id="path825"
     d="M 47.364814,38.557032 A 14.776786,10.131006 0 0 0 46.735908,35.65795 14.776786,10.131006 0 0 1 32.589424,42.872848 14.776786,10.131006 0 0 1 18.442939,35.641881 14.776786,10.131006 0 0 0 17.81208,38.557032 14.776786,10.131006 0 0 0 32.589424,48.687081 14.776786,10.131006 0 0 0 47.364814,38.557032 Z"
     style="fill:#f7f7f7;fill-opacity:1;stroke:none;stroke-width:2.07002854;stroke-linecap:round;stroke-linejoin:round;stroke-miterlimit:4;stroke-dasharray:none;stroke-opacity:1;paint-order:normal" />
  <path
     style="fill:#f7f7f7;fill-opacity:1;stroke:none;stroke-width:2.07002854;stroke-linecap:round;stroke-linejoin:round;stroke-miterlimit:4;stroke-dasharray:none;stroke-opacity:1;paint-order:normal"
     d="M 47.364814,48.557032 A 14.776786,10.131006 0 0 0 46.735908,45.65795 14.776786,10.131006 0 0 1 32.589424,52.872848 14.776786,10.131006 0 0 1 18.442939,45.641881 14.776786,10.131006 0 0 0 17.81208,48.557032 14.776786,10.131006 0 0 0 32.589424,58.687081 14.776786,10.131006 0 0 0 47.364814,48.557032 Z"
     id="path827"
     inkscape:connector-curvature="0" />
</svg>
