<?xml version="1.0" encoding="UTF-8"?>
<svg version="1.1" viewBox="0 0 64 64" xmlns="http://www.w3.org/2000/svg" xmlns:cc="http://creativecommons.org/ns#" xmlns:dc="http://purl.org/dc/elements/1.1/" xmlns:rdf="http://www.w3.org/1999/02/22-rdf-syntax-ns#">
<metadata>
<rdf:RDF>
<cc:Work rdf:about="">
<dc:format>image/svg+xml</dc:format>
<dc:type rdf:resource="http://purl.org/dc/dcmitype/StillImage"/>
<dc:title/>
</cc:Work>
</rdf:RDF>
</metadata>
<rect width="64" height="64" ry="4" fill="#f60" style="paint-order:normal"/>
<path d="m47.365 28.825a14.777 10.131 0 0 0-0.62891-2.8991 14.777 10.131 0 0 1-14.146 7.2149 14.777 10.131 0 0 1-14.146-7.231 14.777 10.131 0 0 0-0.63086 2.9152 14.777 10.131 0 0 0 14.777 10.13 14.777 10.131 0 0 0 14.775-10.13z" fill="#f7f7f7" style="paint-order:normal"/>
<ellipse transform="rotate(90)" cx="19.358" cy="-32.589" rx="10.491" ry="14.777" fill="#f7f7f7" style="paint-order:normal"/>
<path d="m47.365 38.557a14.777 10.131 0 0 0-0.62891-2.8991 14.777 10.131 0 0 1-14.146 7.2149 14.777 10.131 0 0 1-14.146-7.231 14.777 10.131 0 0 0-0.63086 2.9152 14.777 10.131 0 0 0 14.777 10.13 14.777 10.131 0 0 0 14.775-10.13z" fill="#f7f7f7" style="paint-order:normal"/>
<path d="m47.365 48.557a14.777 10.131 0 0 0-0.62891-2.8991 14.777 10.131 0 0 1-14.146 7.2149 14.777 10.131 0 0 1-14.146-7.231 14.777 10.131 0 0 0-0.63086 2.9152 14.777 10.131 0 0 0 14.777 10.13 14.777 10.131 0 0 0 14.775-10.13z" fill="#f7f7f7" style="paint-order:normal"/>
</svg>
