<?xml version="1.0" encoding="UTF-8" standalone="no"?>
<!-- Created with Inkscape (http://www.inkscape.org/) -->

<svg
   xmlns:dc="http://purl.org/dc/elements/1.1/"
   xmlns:cc="http://creativecommons.org/ns#"
   xmlns:rdf="http://www.w3.org/1999/02/22-rdf-syntax-ns#"
   xmlns:svg="http://www.w3.org/2000/svg"
   xmlns="http://www.w3.org/2000/svg"
   xmlns:sodipodi="http://sodipodi.sourceforge.net/DTD/sodipodi-0.dtd"
   xmlns:inkscape="http://www.inkscape.org/namespaces/inkscape"
   width="64"
   height="64"
   viewBox="0 0 64 64"
   version="1.1"
   id="svg8"
   inkscape:version="0.92.3 (2405546, 2018-03-11)"
   sodipodi:docname="custom2.svg">
  <defs
     id="defs2" />
  <sodipodi:namedview
     id="base"
     pagecolor="#ffffff"
     bordercolor="#666666"
     borderopacity="1.0"
     inkscape:pageopacity="0.0"
     inkscape:pageshadow="2"
     inkscape:zoom="0.98994951"
     inkscape:cx="-161.71321"
     inkscape:cy="133.77682"
     inkscape:document-units="px"
     inkscape:current-layer="svg8"
     showgrid="false"
     units="px"
     inkscape:window-width="1864"
     inkscape:window-height="1064"
     inkscape:window-x="1976"
     inkscape:window-y="0"
     inkscape:window-maximized="1"
     inkscape:snap-object-midpoints="true" />
  <metadata
     id="metadata5">
    <rdf:RDF>
      <cc:Work
         rdf:about="">
        <dc:format>image/svg+xml</dc:format>
        <dc:type
           rdf:resource="http://purl.org/dc/dcmitype/StillImage" />
        <dc:title />
      </cc:Work>
    </rdf:RDF>
  </metadata>
  <rect
     style="fill:#ff6600;fill-opacity:1;stroke:none;stroke-width:1.2497865;stroke-linecap:round;stroke-linejoin:round;stroke-miterlimit:4;stroke-dasharray:none;stroke-opacity:1;paint-order:normal"
     id="rect811"
     width="64"
     height="64"
     x="0"
     y="0"
     ry="4" />
  <style
     id="style815"
     type="text/css">
	.st0{fill:#333333;}
</style>
  <g
     id="XMLID_2_"
     transform="matrix(0.8185118,0,0,0.8185118,-7.2476411,-7.2885663)"
     style="fill:#f7f7f7;fill-opacity:1">
	<path
   d="m 75.5,67.9 c 0,3.1 -1,5.6 -2.9,7.4 -1.9,1.8 -4.4,2.7 -7.5,2.7 H 30.9 c -3.2,0 -5.7,-0.9 -7.6,-2.7 -1.9,-1.8 -2.9,-4.3 -2.9,-7.4 0,-1.4 0,-2.7 0.1,-4 0.1,-1.3 0.3,-2.7 0.5,-4.3 0.2,-1.6 0.6,-2.9 1,-4.2 0.4,-1.3 1,-2.6 1.7,-3.8 0.7,-1.2 1.5,-2.3 2.4,-3.2 0.9,-0.9 2,-1.6 3.3,-2.1 1.3,-0.5 2.8,-0.8 4.4,-0.8 0.2,0 0.8,0.3 1.6,0.8 0.8,0.5 1.8,1.2 2.9,1.9 1.1,0.7 2.5,1.3 4.2,1.9 1.7,0.6 3.5,0.8 5.2,0.8 1.7,0 3.5,-0.3 5.2,-0.8 1.7,-0.6 3.1,-1.2 4.2,-1.9 1.1,-0.7 2.1,-1.3 2.9,-1.9 0.8,-0.6 1.4,-0.8 1.6,-0.8 1.6,0 3,0.3 4.4,0.8 1.4,0.5 2.4,1.2 3.3,2.1 0.9,0.9 1.7,1.9 2.4,3.2 0.7,1.3 1.3,2.5 1.7,3.8 0.4,1.3 0.8,2.7 1,4.2 0.2,1.5 0.5,2.9 0.5,4.3 0,1.4 0.6,2.6 0.6,4 z M 63,33 c 0,4.1 -1.5,7.7 -4.4,10.6 C 55.7,46.5 52.1,48 48,48 43.9,48 40.3,46.5 37.4,43.6 34.5,40.7 33,37.1 33,33 33,28.9 34.5,25.3 37.4,22.4 40.3,19.5 43.9,18 48,18 c 4.1,0 7.7,1.5 10.6,4.4 2.9,2.9 4.4,6.5 4.4,10.6 z"
   class="st0"
   id="XMLID_6_"
   inkscape:connector-curvature="0"
   style="fill:#f7f7f7;fill-opacity:1" />

</g>
</svg>
