<?xml version="1.0" encoding="UTF-8"?>
<svg version="1.1" viewBox="0 0 64 64" xmlns="http://www.w3.org/2000/svg" xmlns:cc="http://creativecommons.org/ns#" xmlns:dc="http://purl.org/dc/elements/1.1/" xmlns:rdf="http://www.w3.org/1999/02/22-rdf-syntax-ns#">
<metadata>
<rdf:RDF>
<cc:Work rdf:about="">
<dc:format>image/svg+xml</dc:format>
<dc:type rdf:resource="http://purl.org/dc/dcmitype/StillImage"/>
<dc:title/>
</cc:Work>
</rdf:RDF>
</metadata>
<rect width="64" height="64" ry="4" fill="#f60" style="paint-order:normal"/>
<path d="m43.864 35.073c-0.67899-0.48478-1.3882-0.80749-2.1158-0.96957-0.43028-0.08226-0.87904-0.11341-1.3419-0.08809-0.43757 0.02433-0.8547 0.08177-1.2504 0.17133-0.2969 0.08226-0.59478 0.18934-0.89315 0.32076-0.88488 0.39036-1.6495 0.88196-2.2774 1.4763-0.59478 0.62788-1.0864 1.393-1.4767 2.2774-0.13142 0.29788-0.2385 0.59576-0.32076 0.89267-0.08955 0.3962-0.14748 0.81284-0.17133 1.2504-0.0253 0.46288 6e-3 0.91165 0.08809 1.3419 0.16208 0.72766 0.48478 1.4368 0.96957 2.1158 0.18934 0.26478 0.39328 0.5062 0.61134 0.72426 0.97638 0.97492 2.2307 1.4943 3.6709 1.6602 0.43416 0.04965 0.88196 0.08178 1.2913 0.21806 0.2492 0.08275 0.44585 0.19859 0.58797 0.34168 0.32368 0.32124 0.37138 0.78364 0.12168 1.3259-0.15332 0.33293-0.37479 0.65466-0.6308 0.917l-0.1358 0.1392c-0.19128 0.1908-0.312 0.31151-0.34314 0.34266-0.15235 0.15381-0.29691 0.29934-0.44098 0.44536l-0.14407 0.14213c-0.51204 0.51496-1.0265 1.028-1.541 1.5405-1.1078 1.1107-2.218 2.2185-3.3283 3.3273-0.36505 0.36505-0.7301 0.7301-1.0951 1.0947-0.16841 0.16792-0.34412 0.31054-0.5247 0.42784-0.08761 0.05938-0.16986 0.10903-0.25212 0.15381-0.954 0.48138-2.0165 0.28814-2.8834-0.57824-0.26283-0.26284-0.5169-0.51691-0.77147-0.77098-1.4724-1.4724-2.9438-2.9457-4.4181-4.4161-0.4181-0.41713-0.83378-0.83134-1.2499-1.2455-0.29788-0.29642-0.61669-0.57678-0.95205-0.83036-0.27841-0.21076-0.56412-0.36797-0.84983-0.47359-1.0299-0.35629-2.0156-0.09783-2.661 0.64541-0.18545 0.23363-0.34072 0.50961-0.45704 0.82452-0.16695 0.45071-0.2239 0.94767-0.28717 1.429-0.2385 1.8267-1.2558 3.3307-2.7247 4.0228-0.36407 0.17766-0.75395 0.30615-1.1633 0.37868-0.38696 0.06863-0.77634 0.08323-1.1609 0.05062-1.2952-0.065713-2.4083-0.63714-3.3346-1.5853-0.081767-0.081281-0.10221-0.10173-0.12217-0.12217-0.94815-0.92576-1.5196-2.0394-1.5853-3.3341-0.033098-0.38452-0.017999-0.7739 0.050614-1.1609 0.07252-0.40934 0.20102-0.7997 0.37868-1.1633 0.69213-1.469 2.1966-2.4857 4.0228-2.7242 0.48138-0.06279 0.97833-0.12022 1.429-0.28717 0.33779-0.1246 0.6308-0.29447 0.87466-0.49793 0.7077-0.64005 0.95351-1.5882 0.62496-2.5476-0.13531-0.35775-0.29204-0.64346-0.5028-0.92187-0.25359-0.33487-0.53394-0.65368-0.83036-0.95156-0.41421-0.41616-0.82891-0.83182-1.2436-1.2475-1.3103-1.3132-2.6206-2.6225-3.9304-3.9318l-0.4882-0.48819c-0.25407-0.25408-0.50863-0.50864-0.74275-0.74324-0.8951-0.89559-1.0878-1.9576-0.60647-2.9116 0.044755-0.08226 0.094428-0.16403 0.14991-0.2458 0.1212-0.1869 0.26381-0.36262 0.43174-0.53102 0.36456-0.36505 0.72961-0.7301 1.0947-1.0951 1.1083-1.1102 2.2166-2.2205 3.3273-3.3283 0.51253-0.51448 1.0251-1.029 1.5405-1.541l0.14212-0.14407c0.14553-0.14456 0.29155-0.28863 0.43708-0.43319 0.03895-0.03942 0.15965-0.16013 0.35045-0.35142l0.1392-0.1358c0.26235-0.25602 0.58408-0.477 0.917-0.6308 0.54222-0.24969 1.0041-0.20199 1.3259 0.12168 0.1431 0.14212 0.25894 0.33876 0.34168 0.58797 0.1358 0.40934 0.16793 0.85714 0.21806 1.2913 0.16598 1.4402 0.68532 2.6941 1.6602 3.6704 0.21855 0.21806 0.45948 0.422 0.72426 0.61134 0.67899 0.48478 1.3882 0.80749 2.1158 0.96957 0.43027 0.08226 0.87904 0.11341 1.3419 0.08809 0.43757-0.02433 0.8547-0.08177 1.2504-0.17133 0.2969-0.08226 0.59478-0.18934 0.89315-0.32076 0.88488-0.39036 1.6495-0.88196 2.2774-1.4763 0.59478-0.62788 1.0864-1.393 1.4767-2.2774 0.13142-0.29788 0.2385-0.59576 0.32076-0.89267 0.08955-0.3962 0.14748-0.81284 0.17133-1.2504 0.0253-0.46288-6e-3 -0.91165-0.0881-1.3419-0.16208-0.72766-0.48479-1.4368-0.96957-2.1158-0.18934-0.26478-0.39328-0.5062-0.61134-0.72426-0.97638-0.97492-2.2307-1.4943-3.6709-1.6602-0.43416-0.04965-0.88196-0.08178-1.2913-0.21806-0.2492-0.08275-0.44585-0.19859-0.58797-0.34168-0.32368-0.32124-0.37138-0.78364-0.12168-1.3259 0.15332-0.33292 0.37479-0.65466 0.6308-0.917l0.1358-0.13921c0.19128-0.1908 0.312-0.31151 0.34314-0.34266 0.15235-0.15381 0.29691-0.29934 0.44098-0.44536l0.14407-0.14213c0.51204-0.51496 1.0265-1.028 1.541-1.5405 1.1078-1.1107 2.218-2.2185 3.3283-3.3268 0.36505-0.36505 0.7301-0.7301 1.0951-1.0947 0.16841-0.16792 0.34412-0.31053 0.5247-0.42784 0.08761-0.059378 0.16987-0.10903 0.25212-0.15381 0.954-0.48138 2.0165-0.28814 2.8834 0.57824 0.26283 0.26284 0.5169 0.51691 0.77147 0.77098 1.4724 1.4724 2.9438 2.9457 4.4181 4.4161 0.4181 0.41713 0.83377 0.83134 1.2499 1.2455 0.29788 0.29642 0.61669 0.57678 0.95205 0.83036 0.27842 0.21076 0.56412 0.36797 0.84984 0.47359 1.0299 0.35629 2.0156 0.09783 2.661-0.64541 0.18545-0.23363 0.34072-0.50961 0.45704-0.82452 0.16695-0.45071 0.2239-0.94767 0.28717-1.429 0.2385-1.8267 1.2558-3.3307 2.7247-4.0228 0.36407-0.17766 0.75394-0.30567 1.1633-0.37868 0.38696-0.068629 0.77634-0.083231 1.1609-0.05062 1.2952 0.065709 2.4084 0.63713 3.3346 1.5853 0.08177 0.081284 0.10221 0.10173 0.12217 0.12217 0.94815 0.92576 1.5196 2.0394 1.5853 3.3341 0.0331 0.38452 0.018 0.7739-0.05061 1.1609-0.07252 0.40934-0.20102 0.7997-0.37868 1.1633-0.69213 1.469-2.1966 2.4857-4.0228 2.7242-0.48138 0.06279-0.97833 0.12022-1.429 0.28717-0.33779 0.1246-0.6308 0.29447-0.87466 0.49793-0.7077 0.64005-0.95351 1.5882-0.62496 2.5476 0.13531 0.35775 0.29204 0.64346 0.5028 0.92187 0.25359 0.33487 0.53394 0.65368 0.83036 0.95156 0.41421 0.41616 0.82891 0.83182 1.2436 1.2475 1.4728 1.4763 2.9467 2.9476 4.4186 4.42 0.25407 0.25407 0.50863 0.50863 0.74275 0.74324 0.8951 0.89559 1.0878 1.9576 0.60647 2.9116-0.04476 0.08226-0.09442 0.16403-0.14991 0.2458-0.1212 0.18691-0.26381 0.36262-0.43174 0.53102-0.36456 0.36505-0.72961 0.7301-1.0947 1.0951-1.1083 1.1102-2.2166 2.2205-3.3273 3.3283-0.51253 0.51448-1.0251 1.029-1.5405 1.541l-0.14212 0.14407c-0.14553 0.14456-0.29155 0.28863-0.43708 0.43319-0.03895 0.03942-0.15965 0.16013-0.35045 0.35142l-0.1392 0.1358c-0.26235 0.25602-0.58408 0.477-0.917 0.6308-0.54222 0.24969-1.0041 0.20199-1.3259-0.12168-0.1431-0.14212-0.25894-0.33876-0.34168-0.58797-0.1358-0.40934-0.16793-0.85714-0.21806-1.2913-0.16598-1.4402-0.68532-2.6941-1.6602-3.6704-0.21806-0.21854-0.45948-0.42297-0.72426-0.61182z" fill="#f7f7f7"/>
</svg>
