<?xml version="1.0" encoding="UTF-8" standalone="no"?>
<!-- Created with Inkscape (http://www.inkscape.org/) -->

<svg
   xmlns:dc="http://purl.org/dc/elements/1.1/"
   xmlns:cc="http://creativecommons.org/ns#"
   xmlns:rdf="http://www.w3.org/1999/02/22-rdf-syntax-ns#"
   xmlns:svg="http://www.w3.org/2000/svg"
   xmlns="http://www.w3.org/2000/svg"
   xmlns:sodipodi="http://sodipodi.sourceforge.net/DTD/sodipodi-0.dtd"
   xmlns:inkscape="http://www.inkscape.org/namespaces/inkscape"
   width="64"
   height="64"
   viewBox="0 0 64 64"
   version="1.1"
   id="svg8"
   inkscape:version="0.92.3 (2405546, 2018-03-11)"
   sodipodi:docname="misc2.svg">
  <defs
     id="defs2" />
  <sodipodi:namedview
     id="base"
     pagecolor="#ffffff"
     bordercolor="#666666"
     borderopacity="1.0"
     inkscape:pageopacity="0.0"
     inkscape:pageshadow="2"
     inkscape:zoom="5.6000001"
     inkscape:cx="-41.276623"
     inkscape:cy="-15.864355"
     inkscape:document-units="px"
     inkscape:current-layer="svg8"
     showgrid="false"
     units="px"
     inkscape:window-width="1864"
     inkscape:window-height="1064"
     inkscape:window-x="1976"
     inkscape:window-y="0"
     inkscape:window-maximized="1"
     inkscape:snap-object-midpoints="true" />
  <metadata
     id="metadata5">
    <rdf:RDF>
      <cc:Work
         rdf:about="">
        <dc:format>image/svg+xml</dc:format>
        <dc:type
           rdf:resource="http://purl.org/dc/dcmitype/StillImage" />
        <dc:title />
      </cc:Work>
    </rdf:RDF>
  </metadata>
  <rect
     style="fill:#ff6600;fill-opacity:1;stroke:none;stroke-width:1.2497865;stroke-linecap:round;stroke-linejoin:round;stroke-miterlimit:4;stroke-dasharray:none;stroke-opacity:1;paint-order:normal"
     id="rect811"
     width="64"
     height="64"
     x="0"
     y="0"
     ry="4" />
  <path
     id="path815"
     d="m 43.863604,35.07298 c -0.67899,-0.484785 -1.388163,-0.807489 -2.115822,-0.96957 -0.430275,-0.08226 -0.879037,-0.113409 -1.34192,-0.08809 -0.437571,0.02433 -0.854703,0.08177 -1.250418,0.171329 -0.296902,0.08226 -0.594783,0.189339 -0.893152,0.320757 -0.884877,0.390359 -1.649532,0.881958 -2.277419,1.476258 -0.594783,0.627884 -1.086386,1.393027 -1.476743,2.277418 -0.131416,0.29788 -0.238496,0.59576 -0.320759,0.892667 -0.08955,0.3962 -0.147476,0.812843 -0.171328,1.250414 -0.0253,0.462882 0.006,0.911649 0.08809,1.34192 0.162081,0.727664 0.484785,1.436832 0.969569,2.115824 0.189344,0.264782 0.39328,0.506201 0.611338,0.724257 0.976382,0.974923 2.230695,1.494267 3.670932,1.660242 0.434165,0.04965 0.881961,0.08178 1.291301,0.218057 0.249205,0.08275 0.445846,0.198586 0.58797,0.341685 0.323677,0.321243 0.371379,0.783639 0.121685,1.325857 -0.153322,0.332926 -0.374786,0.654655 -0.630804,0.917004 l -0.135801,0.139205 c -0.191283,0.190799 -0.311996,0.311508 -0.343143,0.342659 -0.15235,0.153808 -0.296908,0.299341 -0.440983,0.445359 l -0.14407,0.142126 c -0.512042,0.514963 -1.026518,1.027978 -1.540995,1.540507 -1.107803,1.110722 -2.218034,2.218524 -3.328272,3.327299 -0.36505,0.365049 -0.7301,0.730098 -1.095144,1.09466 -0.16841,0.167923 -0.344121,0.310535 -0.524702,0.427838 -0.08761,0.05938 -0.169865,0.109028 -0.252123,0.153807 -0.953997,0.481378 -2.016532,0.288145 -2.883405,-0.578238 -0.26283,-0.262835 -0.516904,-0.516909 -0.771466,-0.770983 -1.472361,-1.472368 -2.943753,-2.945706 -4.418062,-4.416122 -0.418104,-0.417129 -0.833775,-0.831339 -1.249927,-1.245547 -0.297881,-0.29642 -0.616689,-0.576777 -0.952048,-0.830365 -0.278414,-0.210755 -0.564124,-0.367969 -0.849834,-0.47359 -1.029926,-0.356288 -2.01556,-0.09783 -2.660963,0.645407 -0.185448,0.233631 -0.340715,0.509608 -0.457043,0.824523 -0.166948,0.450714 -0.223899,0.947668 -0.287172,1.429046 -0.238496,1.826704 -1.255768,3.330706 -2.724725,4.022839 -0.364072,0.177656 -0.753946,0.306154 -1.163286,0.378677 -0.386957,0.06863 -0.776341,0.08323 -1.160858,0.05062 C 12.04691,55.633023 10.933756,55.061598 10.007505,54.113445 9.9257377,54.032164 9.9052922,54.011717 9.8853365,53.991274 8.9371851,53.06551 8.3657587,51.951868 8.3000509,50.657161 c -0.033098,-0.384518 -0.017999,-0.773904 0.050614,-1.160856 0.07252,-0.409341 0.201019,-0.7997 0.3786758,-1.163289 0.6921333,-1.468957 2.1966243,-2.485739 4.0228393,-2.724238 0.481379,-0.06279 0.978333,-0.120223 1.429047,-0.287172 0.337792,-0.124603 0.630804,-0.294473 0.874657,-0.497927 0.707705,-0.640052 0.95351,-1.588206 0.624965,-2.547555 -0.135311,-0.357746 -0.29204,-0.643458 -0.502795,-0.921869 C 14.924463,41.019383 14.64411,40.700574 14.347691,40.402694 13.933477,39.986539 13.518785,39.570869 13.104088,39.1552 11.793803,37.841997 10.483526,36.532689 9.1737307,35.22338 L 8.6855338,34.735188 C 8.4314604,34.481113 8.176904,34.226553 7.9427864,33.991948 7.0476832,33.096361 6.8549387,32.034313 7.3363166,31.080318 c 0.044755,-0.08226 0.094428,-0.164029 0.1499097,-0.2458 0.1212022,-0.186905 0.2638096,-0.362615 0.4317362,-0.531024 0.3645607,-0.365049 0.7296106,-0.730098 1.0946606,-1.095147 1.1082869,-1.110236 2.2165729,-2.220471 3.3272939,-3.328272 0.512531,-0.514476 1.025063,-1.028952 1.540511,-1.540994 l 0.142125,-0.144072 c 0.14553,-0.14456 0.291551,-0.288632 0.437082,-0.433192 0.03895,-0.03942 0.159652,-0.160134 0.350451,-0.35142 l 0.139201,-0.135798 c 0.262348,-0.256021 0.58408,-0.476998 0.917004,-0.630805 0.542223,-0.249693 1.004129,-0.201993 1.325861,0.121683 0.143096,0.142125 0.258941,0.338765 0.341681,0.587972 0.135801,0.409342 0.167927,0.857135 0.218058,1.2913 0.165976,1.440239 0.68532,2.69406 1.660241,3.670445 0.218547,0.218055 0.459477,0.421997 0.724258,0.611336 0.678992,0.484784 1.388163,0.807488 2.115823,0.969569 0.430274,0.08226 0.879037,0.113408 1.34192,0.08809 0.437571,-0.02433 0.854703,-0.08177 1.250418,-0.171329 0.296902,-0.08226 0.594782,-0.189339 0.893152,-0.320758 0.884877,-0.390358 1.649531,-0.881957 2.277418,-1.476257 0.594783,-0.627884 1.086386,-1.393027 1.476743,-2.277418 0.131416,-0.29788 0.238496,-0.59576 0.32076,-0.892667 0.08955,-0.3962 0.147475,-0.812842 0.171327,-1.250414 0.0253,-0.462882 -0.006,-0.911649 -0.0881,-1.34192 -0.162082,-0.72766 -0.484787,-1.436828 -0.969571,-2.11582 -0.189344,-0.264782 -0.393281,-0.5062 -0.611339,-0.724256 -0.976381,-0.974924 -2.230694,-1.494267 -3.670931,-1.660243 -0.434165,-0.04965 -0.881961,-0.08178 -1.291301,-0.218056 -0.249205,-0.08275 -0.445846,-0.198587 -0.58797,-0.341685 -0.323676,-0.321244 -0.371379,-0.783639 -0.121685,-1.325858 0.153322,-0.332925 0.374787,-0.654655 0.630804,-0.917003 l 0.135801,-0.139206 c 0.191282,-0.190798 0.311995,-0.311508 0.343143,-0.342659 0.15235,-0.153807 0.296908,-0.29934 0.440984,-0.445359 l 0.144068,-0.142127 c 0.512043,-0.514961 1.026519,-1.027977 1.540996,-1.540505 1.107803,-1.110723 2.218034,-2.218524 3.328272,-3.3268135 0.365049,-0.3650487 0.730099,-0.7300974 1.095144,-1.0946599 0.168409,-0.1679224 0.344121,-0.3105347 0.524701,-0.4278375 0.08761,-0.059378 0.169866,-0.1090275 0.252123,-0.1538072 0.953997,-0.4813778 2.016532,-0.2881448 2.883405,0.5782376 0.262832,0.2628353 0.516904,0.5169093 0.771468,0.7709832 1.472363,1.4723643 2.943755,2.9457023 4.418064,4.4161183 0.418104,0.417129 0.833774,0.831339 1.249927,1.245547 0.297881,0.29642 0.616689,0.576778 0.952047,0.830365 0.278415,0.210755 0.564125,0.367969 0.849835,0.47359 1.029925,0.356288 2.01556,0.09783 2.660962,-0.645407 0.185449,-0.233631 0.340717,-0.509608 0.457044,-0.824523 0.166948,-0.450714 0.223898,-0.947667 0.287172,-1.429045 0.238496,-1.826705 1.255768,-3.3307067 2.724726,-4.0228393 0.364071,-0.1776568 0.753945,-0.3056678 1.163285,-0.3786771 0.386957,-0.068629 0.776341,-0.083231 1.160858,-0.05062 1.295197,0.065709 2.408352,0.6371318 3.334602,1.5852855 0.08177,0.081284 0.102213,0.1017272 0.122169,0.1221699 0.948151,0.925764 1.519577,2.039406 1.585285,3.334113 0.0331,0.384518 0.018,0.773904 -0.05061,1.160856 -0.07252,0.409341 -0.20102,0.7997 -0.378677,1.163289 -0.692132,1.468957 -2.196623,2.485739 -4.022838,2.724238 -0.481379,0.06279 -0.978333,0.120223 -1.429047,0.287172 -0.337792,0.124603 -0.630804,0.294474 -0.874658,0.497927 -0.707705,0.640052 -0.953509,1.588206 -0.624964,2.547556 0.135311,0.357747 0.29204,0.643458 0.502795,0.921869 0.253591,0.334872 0.533943,0.653681 0.830363,0.951561 0.414214,0.416155 0.828906,0.831825 1.243603,1.247494 1.472847,1.476258 2.946673,2.947648 4.418554,4.420013 0.254073,0.254073 0.50863,0.508634 0.742748,0.743238 0.895102,0.895587 1.087847,1.957636 0.606469,2.91163 -0.04476,0.08226 -0.09442,0.16403 -0.14991,0.2458 -0.121202,0.186906 -0.263809,0.362615 -0.431736,0.531024 -0.364561,0.36505 -0.72961,0.730099 -1.09466,1.095147 -1.108287,1.110237 -2.216573,2.220471 -3.327294,3.328273 -0.512531,0.514476 -1.025064,1.028952 -1.540512,1.540994 l -0.142125,0.144072 c -0.14553,0.14456 -0.29155,0.288632 -0.437081,0.433192 -0.03895,0.03942 -0.159652,0.160134 -0.350452,0.35142 l -0.1392,0.135798 c -0.262348,0.256022 -0.58408,0.476998 -0.917004,0.630805 C 47.591479,41.60589 47.129574,41.55819 46.807842,41.234514 46.664746,41.092389 46.5489,40.895749 46.466161,40.646542 46.33036,40.2372 46.298234,39.789407 46.248103,39.355242 46.082127,37.915003 45.562782,36.661181 44.587862,35.684797 44.369804,35.466254 44.128385,35.261826 43.863603,35.072975 Z"
     inkscape:connector-curvature="0"
     style="fill:#f7f7f7;fill-opacity:1;stroke:none;stroke-width:0.04867319;stroke-opacity:0.94117647" />
</svg>
