<?xml version="1.0" encoding="UTF-8" standalone="no"?>
<!-- Created with Inkscape (http://www.inkscape.org/) -->

<svg
   xmlns:dc="http://purl.org/dc/elements/1.1/"
   xmlns:cc="http://creativecommons.org/ns#"
   xmlns:rdf="http://www.w3.org/1999/02/22-rdf-syntax-ns#"
   xmlns:svg="http://www.w3.org/2000/svg"
   xmlns="http://www.w3.org/2000/svg"
   xmlns:sodipodi="http://sodipodi.sourceforge.net/DTD/sodipodi-0.dtd"
   xmlns:inkscape="http://www.inkscape.org/namespaces/inkscape"
   width="64"
   height="64"
   viewBox="0 0 64 64"
   version="1.1"
   id="svg8"
   inkscape:version="0.92.3 (2405546, 2018-03-11)"
   sodipodi:docname="tracker2.svg">
  <defs
     id="defs2" />
  <sodipodi:namedview
     id="base"
     pagecolor="#ffffff"
     bordercolor="#666666"
     borderopacity="1.0"
     inkscape:pageopacity="0.0"
     inkscape:pageshadow="2"
     inkscape:zoom="11.2"
     inkscape:cx="27.939355"
     inkscape:cy="27.344489"
     inkscape:document-units="px"
     inkscape:current-layer="svg8"
     showgrid="false"
     units="px"
     inkscape:window-width="1920"
     inkscape:window-height="1064"
     inkscape:window-x="0"
     inkscape:window-y="0"
     inkscape:window-maximized="1" />
  <metadata
     id="metadata5">
    <rdf:RDF>
      <cc:Work
         rdf:about="">
        <dc:format>image/svg+xml</dc:format>
        <dc:type
           rdf:resource="http://purl.org/dc/dcmitype/StillImage" />
        <dc:title />
      </cc:Work>
    </rdf:RDF>
  </metadata>
  <rect
     style="fill:#ff6600;fill-opacity:1;stroke:none;stroke-width:1.2497865;stroke-linecap:round;stroke-linejoin:round;stroke-miterlimit:4;stroke-dasharray:none;stroke-opacity:1;paint-order:normal"
     id="rect811"
     width="64"
     height="64"
     x="0"
     y="0"
     ry="4" />
  <path
     style="fill:#f7f7f7;fill-opacity:1;stroke:#0000ff;stroke-width:0.8898468;stroke-miterlimit:4;stroke-dasharray:none;stroke-opacity:0"
     inkscape:connector-curvature="0"
     d="M 58.135928,32.805821 C 57.648043,32.027339 55.353037,28.522335 51.475159,24.997024 45.698607,19.745645 39.136746,16.969755 32.49856,16.969755 c -6.638362,0 -13.200397,2.77589 -18.977475,8.027269 -4.3036178,3.912189 -6.6591935,7.800744 -6.757576,7.964072 -0.00805,0.0133 -0.011729,0.02328 -0.018906,0.03624 -0.3576428,0.626707 -0.3170294,1.415166 0.124641,2.003885 0.099258,0.132344 2.4802169,3.277255 6.806242,6.42304 5.749068,4.181602 12.257537,6.391706 18.822198,6.391706 6.564664,0 13.073481,-2.210104 18.822725,-6.391355 4.326024,-3.146312 6.707333,-6.291223 6.806591,-6.423391 0.489112,-0.651915 0.491912,-1.548035 0.0089,-2.195398 z m -9.200505,-5.169278 c 2.10787,1.904803 3.7184,3.828686 4.763144,5.209366 -0.815244,0.143197 -1.85106,0.255759 -3.09642,0.255759 -4.347557,0 -9.147112,-1.297527 -14.265098,-3.856345 -4.728832,-2.364679 -9.312893,-3.563298 -13.624737,-3.563298 -1.83478,0 -3.50588,0.21637 -5.020479,0.569637 4.67544,-3.730304 9.647428,-5.620576 14.806552,-5.620576 5.763423,-1.75e-4 11.293844,2.356801 16.437038,7.005457 z M 32.686572,44.149732 c -0.04464,7e-4 -0.08893,0.0011 -0.133219,0.0011 -5.383548,0 -9.983539,-4.29644 -10.285688,-9.638499 -0.100833,-1.782437 0.268188,-3.579754 1.044569,-5.158425 2.582101,0.07755 5.29952,0.656817 8.116898,1.726594 -1.14015,0.431868 -1.951892,1.531055 -1.951892,2.822455 0,1.668124 1.35232,3.020445 3.020444,3.020445 1.6683,0 3.02062,-1.352321 3.02062,-3.020445 0,-0.383026 -0.07405,-0.747497 -0.203942,-1.084482 2.488619,1.203872 4.920695,2.134828 7.283624,2.788668 -0.836251,4.716754 -5.120962,8.479793 -9.911414,8.542638 z M 10.77513,33.951923 c 1.374903,-1.310482 4.201909,-3.47717 8.480494,-4.288212 -0.514495,1.622784 -0.740145,3.345176 -0.643513,5.05549 0.140397,2.483368 0.963517,4.79973 2.277326,6.773155 -1.691233,-0.805265 -3.346928,-1.791539 -4.963061,-2.958298 -2.396888,-1.730271 -4.148516,-3.479797 -5.151246,-4.582135 z m 38.294387,4.582309 c -1.615782,1.166234 -3.271477,2.152685 -4.962359,2.95795 1.006406,-1.521776 1.726768,-3.246795 2.071807,-5.097505 1.508297,0.242806 2.984734,0.368497 4.423357,0.368497 0,0 0,0 3.51e-4,0 0.248931,0 0.491036,-0.0036 0.726664,-0.01102 -0.672572,0.577865 -1.427245,1.180939 -2.25982,1.782087 z"
     id="path859" />
</svg>
