<?xml version="1.0" encoding="UTF-8"?>
<svg version="1.1" viewBox="0 0 64 64" xmlns="http://www.w3.org/2000/svg" xmlns:cc="http://creativecommons.org/ns#" xmlns:dc="http://purl.org/dc/elements/1.1/" xmlns:rdf="http://www.w3.org/1999/02/22-rdf-syntax-ns#">
<metadata>
<rdf:RDF>
<cc:Work rdf:about="">
<dc:format>image/svg+xml</dc:format>
<dc:type rdf:resource="http://purl.org/dc/dcmitype/StillImage"/>
<dc:title/>
</cc:Work>
</rdf:RDF>
</metadata>
<rect width="64" height="64" ry="4" fill="#f9bf15" style="paint-order:normal"/>
<path d="m58.136 32.806c-0.48788-0.77848-2.7829-4.2835-6.6608-7.8088-5.7766-5.2514-12.338-8.0273-18.977-8.0273-6.6384 0-13.2 2.7759-18.977 8.0273-4.3036 3.9122-6.6592 7.8007-6.7576 7.9641-0.00805 0.0133-0.011729 0.02328-0.018906 0.03624-0.35764 0.62671-0.31703 1.4152 0.12464 2.0039 0.099258 0.13234 2.4802 3.2773 6.8062 6.423 5.7491 4.1816 12.258 6.3917 18.822 6.3917 6.5647 0 13.073-2.2101 18.823-6.3914 4.326-3.1463 6.7073-6.2912 6.8066-6.4234 0.48911-0.65192 0.49191-1.548 0.0089-2.1954zm-9.2005-5.1693c2.1079 1.9048 3.7184 3.8287 4.7631 5.2094-0.81524 0.1432-1.8511 0.25576-3.0964 0.25576-4.3476 0-9.1471-1.2975-14.265-3.8563-4.7288-2.3647-9.3129-3.5633-13.625-3.5633-1.8348 0-3.5059 0.21637-5.0205 0.56964 4.6754-3.7303 9.6474-5.6206 14.807-5.6206 5.7634-1.75e-4 11.294 2.3568 16.437 7.0055zm-16.249 16.513c-0.04464 7e-4 -0.08893 0.0011-0.13322 0.0011-5.3835 0-9.9835-4.2964-10.286-9.6385-0.10083-1.7824 0.26819-3.5798 1.0446-5.1584 2.5821 0.07755 5.2995 0.65682 8.1169 1.7266-1.1402 0.43187-1.9519 1.5311-1.9519 2.8225 0 1.6681 1.3523 3.0204 3.0204 3.0204 1.6683 0 3.0206-1.3523 3.0206-3.0204 0-0.38303-0.07405-0.7475-0.20394-1.0845 2.4886 1.2039 4.9207 2.1348 7.2836 2.7887-0.83625 4.7168-5.121 8.4798-9.9114 8.5426zm-21.911-10.198c1.3749-1.3105 4.2019-3.4772 8.4805-4.2882-0.5145 1.6228-0.74014 3.3452-0.64351 5.0555 0.1404 2.4834 0.96352 4.7997 2.2773 6.7732-1.6912-0.80526-3.3469-1.7915-4.9631-2.9583-2.3969-1.7303-4.1485-3.4798-5.1512-4.5821zm38.294 4.5823c-1.6158 1.1662-3.2715 2.1527-4.9624 2.958 1.0064-1.5218 1.7268-3.2468 2.0718-5.0975 1.5083 0.24281 2.9847 0.3685 4.4234 0.3685h3.51e-4c0.24893 0 0.49104-0.0036 0.72666-0.01102-0.67257 0.57786-1.4272 1.1809-2.2598 1.7821z" fill="#f7f7f7" stroke-opacity="0"/>
</svg>
