<?xml version="1.0" encoding="UTF-8" standalone="no"?>
<svg
   xmlns:dc="http://purl.org/dc/elements/1.1/"
   xmlns:cc="http://creativecommons.org/ns#"
   xmlns:rdf="http://www.w3.org/1999/02/22-rdf-syntax-ns#"
   xmlns:svg="http://www.w3.org/2000/svg"
   xmlns="http://www.w3.org/2000/svg"
   xmlns:sodipodi="http://sodipodi.sourceforge.net/DTD/sodipodi-0.dtd"
   xmlns:inkscape="http://www.inkscape.org/namespaces/inkscape"
   width="300"
   height="300"
   version="1.1"
   id="svg26"
   sodipodi:docname="classic_wordcloud.svg"
   inkscape:version="0.92.4 (5da689c313, 2019-01-14)">
  <metadata
     id="metadata32">
    <rdf:RDF>
      <cc:Work
         rdf:about="">
        <dc:format>image/svg+xml</dc:format>
        <dc:type
           rdf:resource="http://purl.org/dc/dcmitype/StillImage" />
        <dc:title></dc:title>
      </cc:Work>
    </rdf:RDF>
  </metadata>
  <defs
     id="defs30" />
  <sodipodi:namedview
     pagecolor="#ffffff"
     bordercolor="#666666"
     borderopacity="1"
     objecttolerance="10"
     gridtolerance="10"
     guidetolerance="10"
     inkscape:pageopacity="0"
     inkscape:pageshadow="2"
     inkscape:window-width="1920"
     inkscape:window-height="1055"
     id="namedview28"
     showgrid="false"
     inkscape:zoom="1.7206265"
     inkscape:cx="211.19497"
     inkscape:cy="184.88932"
     inkscape:window-x="0"
     inkscape:window-y="0"
     inkscape:window-maximized="1"
     inkscape:current-layer="svg26" />
  <g
     id="g2"
     transform="translate(0,-300)" />
  <text
     id="text4"
     style="font-size:10.94890499px;font-family:yrsa;text-anchor:middle;fill:#5254a3;stroke-width:1.09489048"
     transform="rotate(-15)"
     x="683.64014"
     y="239.2603" />
  <g
     aria-label="info"
     transform="rotate(30)"
     style="font-size:43.79561996px;font-family:yrsa;text-anchor:middle;fill:#00c2c8;fill-opacity:1;stroke-width:1.09489048"
     id="text6">
    <path
       d="m 250.38887,-17.092862 q 0,1.007299 -0.65693,1.664234 -0.65694,0.613138 -1.70803,0.613138 -1.05109,0 -1.70803,-0.613138 -0.65693,-0.656935 -0.65693,-1.664234 0,-1.007299 0.65693,-1.620438 0.65694,-0.656934 1.70803,-0.656934 1.05109,0 1.70803,0.656934 0.65693,0.613139 0.65693,1.620438 z m -0.26277,5.430657 V 3.4034882 q 0,0.4379562 0.21898,0.70073 0.21898,0.2627737 0.65693,0.3065693 l 1.92701,0.3065693 v 1.620438 h -9.0219 v -1.620438 l 1.92701,-0.3065693 q 0.43796,-0.043796 0.65693,-0.3065693 0.21898,-0.2627738 0.21898,-0.70073 v -11.868613 q 0,-0.3941605 -0.21898,-0.6569343 -0.17518,-0.2627737 -0.61314,-0.3065693 l -2.23357,-0.3065693 V -11.31184 q 1.40146,-0.437956 3.0219,-0.613139 1.62043,-0.218978 2.9781,-0.262773 z"
       style="font-size:43.79561996px;font-family:yrsa;text-anchor:middle;fill:#00c2c8;fill-opacity:1;stroke-width:1.09489048"
       id="path883" />
    <path
       d="m 264.47259,4.7173568 v 1.620438 h -8.84672 v -1.620438 l 1.92701,-0.3065693 q 0.43796,-0.043796 0.65693,-0.3065693 0.21898,-0.2627738 0.21898,-0.70073 v -11.868613 q 0,-0.3941605 -0.21898,-0.6569343 -0.17518,-0.2627737 -0.61314,-0.3065693 L 255.3631,-9.7351977 V -11.31184 q 1.31387,-0.394161 2.80292,-0.613139 1.48905,-0.218978 2.71533,-0.262773 l 0.61313,0.569343 0.21898,1.9708025 q 1.35767,-1.4014595 2.97811,-1.9708025 1.62043,-0.569343 3.37226,-0.569343 3.15328,0 4.29197,1.839416 1.13868,1.8394156 1.13868,5.1240871 v 8.6277371 q 0,0.4379562 0.21898,0.70073 0.26278,0.2627737 0.65694,0.3065693 l 1.9708,0.3065693 v 1.620438 h -8.84672 v -1.620438 l 1.75183,-0.3065693 q 0.39416,-0.087591 0.61314,-0.3065693 0.26277,-0.2189781 0.26277,-0.70073 v -8.0145984 q 0,-2.6277372 -0.74452,-3.8978102 -0.70073,-1.3138686 -2.75913,-1.3138686 -1.31387,0 -2.54014,0.3941606 -1.18249,0.3941606 -2.23358,1.1824817 V 3.4034882 q 0,0.4379562 0.21898,0.70073 0.21898,0.2189781 0.61314,0.3065693 z"
       style="font-size:43.79561996px;font-family:yrsa;text-anchor:middle;fill:#00c2c8;fill-opacity:1;stroke-width:1.09489048"
       id="path885" />
    <path
       d="m 281.69727,-13.589212 q 0,-1.795621 0.65693,-3.372263 0.65694,-1.620438 1.70803,-2.759124 1.09489,-1.182482 2.40876,-1.839416 1.35766,-0.70073 2.71533,-0.70073 1.05109,0 2.05839,0.350365 1.0511,0.306569 2.0146,0.875912 l -0.56934,2.233577 q -0.91971,-0.175183 -1.92701,-0.262774 -1.0073,-0.131387 -1.75182,-0.131387 -2.0584,0.0438 -3.0219,0.963504 -0.91971,0.919708 -0.91971,3.284671 v 3.197081 h 5.38686 v 2.1897807 h -5.38686 V 3.4472839 q 0,0.4379562 0.21898,0.7007299 0.21898,0.2189781 0.65693,0.2627737 l 3.37227,0.3065693 v 1.620438 h -10.46716 v -1.620438 l 1.92701,-0.3065693 q 0.43796,-0.043796 0.65693,-0.2627737 0.21898,-0.2627737 0.21898,-0.7007299 V -9.4286284 l -3.15328,-0.3941606 v -1.489051 l 3.19708,-0.437956 z"
       style="font-size:43.79561996px;font-family:yrsa;text-anchor:middle;fill:#00c2c8;fill-opacity:1;stroke-width:1.09489048"
       id="path887" />
    <path
       d="m 293.13956,-2.6403073 q 0,-2.4963503 0.70073,-4.3357664 0.70073,-1.839416 1.88321,-2.9781021 1.18248,-1.1824822 2.75912,-1.7518252 1.62044,-0.569343 3.41606,-0.569343 4.24818,0 6.17518,2.6277375 1.97081,2.5839416 1.97081,6.7883211 0,2.49635033 -0.70073,4.3357664 -0.65694,1.7956204 -1.83942,2.9781021 -1.18248,1.1386861 -2.80292,1.7080292 -1.62044,0.5255474 -3.41606,0.5255474 -4.20438,0 -6.17518,-2.5401459 -1.9708,-2.5839416 -1.9708,-6.7883211 z m 13.13868,0.087591 q 0,-3.5912408 -1.05109,-5.7372262 -1.0073,-2.1897807 -3.76642,-2.1897807 -2.32117,0 -3.45986,1.7956201 -1.09489,1.7518248 -1.09489,5.6934306 0,3.54744525 1.0073,5.7372262 1.0511,2.1459854 3.81022,2.1459854 2.32117,0 3.41606,-1.7518248 1.13868,-1.7518248 1.13868,-5.6934306 z"
       style="font-size:43.79561996px;font-family:yrsa;text-anchor:middle;fill:#00c2c8;fill-opacity:1;stroke-width:1.09489048"
       id="path889" />
  </g>
  <g
     aria-label="com"
     transform="rotate(-15)"
     style="font-size:109.48905182px;font-family:yrsa;text-anchor:middle;fill:#00c2c8;fill-opacity:1;stroke-width:1.09489048"
     id="text8">
    <path
       d="m -31.076729,196.45816 q 0,-5.25547 1.423357,-9.74452 1.423358,-4.48905 4.160584,-7.66424 2.737226,-3.28467 6.89781,-5.14598 4.160584,-1.86132 9.525548,-1.86132 3.7226277,0 7.5547445,0.87592 3.9416059,0.87591 6.3503651,2.08029 0.2189781,3.06569 -0.1094891,6.67883 -0.2189781,3.61314 -0.6569343,6.67883 h -4.37956209 l -1.75182481,-6.67883 q -0.2189781,-1.09489 -0.5474453,-1.86131 -0.3284671,-0.76643 -1.0948905,-1.42336 -0.9854015,-0.76642 -2.6277372,-1.31387 -1.5328468,-0.54744 -3.6131387,-0.54744 -5.5839416,0 -8.6496356,4.48905 -3.065693,4.48905 -3.065693,13.57664 0,9.52555 3.50365,14.23358 3.503649,4.70802 9.7445253,4.70802 3.7226277,0 6.5693431,-1.42335 2.9562044,-1.42336 4.8175183,-3.39416 l 2.4087591,2.08029 q -1.8613139,4.05109 -6.13138689,6.35036 -4.27007301,2.29927 -10.18248191,2.29927 -9.963504,0 -15.109489,-6.45985 -5.036496,-6.56934 -5.036496,-16.53285 z"
       style="font-size:109.48905182px;font-family:yrsa;text-anchor:middle;fill:#00c2c8;fill-opacity:1;stroke-width:1.09489048"
       id="path876" />
    <path
       d="m 13.940379,196.1297 q 0,-6.24088 1.751825,-10.83942 1.751825,-4.59854 4.708029,-7.44526 2.956205,-2.9562 6.89781,-4.37956 4.051095,-1.42336 8.540146,-1.42336 10.620438,0 15.437957,6.56935 4.927007,6.45985 4.927007,16.9708 0,6.24088 -1.751825,10.83942 -1.642336,4.48905 -4.59854,7.44525 -2.956204,2.84672 -7.007299,4.27007 -4.051095,1.31387 -8.540146,1.31387 -10.510949,0 -15.437957,-6.35036 -4.927007,-6.45986 -4.927007,-16.9708 z m 32.846716,0.21897 q 0,-8.9781 -2.627738,-14.34306 -2.518248,-5.47445 -9.416058,-5.47445 -5.80292,0 -8.649635,4.48905 -2.737226,4.37956 -2.737226,14.23357 0,8.86862 2.518248,14.34307 2.627737,5.36496 9.525547,5.36496 5.80292,0 8.540146,-4.37956 2.846716,-4.37956 2.846716,-14.23358 z"
       style="font-size:109.48905182px;font-family:yrsa;text-anchor:middle;fill:#00c2c8;fill-opacity:1;stroke-width:1.09489048"
       id="path878" />
    <path
       d="m 86.723227,214.52386 v 4.05109 H 64.715928 v -4.05109 l 4.927007,-0.76643 q 0.985402,-0.10949 1.532847,-0.76642 0.547445,-0.65693 0.547445,-1.75183 v -29.67153 q 0,-0.9854 -0.547445,-1.64233 -0.437956,-0.65694 -1.532847,-0.76643 l -5.583941,-0.76642 v -3.94161 q 3.284671,-0.9854 7.007299,-1.53284 3.722628,-0.54745 6.788321,-0.65694 l 1.532847,1.42336 0.547445,4.70803 q 3.065694,-3.39416 6.897811,-4.70803 3.941605,-1.42336 7.9927,-1.42336 4.70803,0 7.445253,1.75183 2.84672,1.64233 4.27008,4.70803 3.50365,-3.72263 7.66423,-5.0365 4.16058,-1.42336 8.10219,-1.42336 8.10219,0 11.05839,4.59854 2.95621,4.48905 2.95621,13.24818 v 21.13138 q 0,1.0949 0.54744,1.75183 0.54745,0.65693 1.53285,0.76642 l 5.0365,0.76643 v 4.05109 h -22.11679 v -4.05109 l 4.27007,-0.76643 q 0.9854,-0.21898 1.53285,-0.76642 0.65693,-0.54745 0.65693,-1.75183 v -19.927 q 0,-6.78832 -1.9708,-9.96351 -1.86131,-3.17518 -7.22628,-3.17518 -2.73722,0 -5.58394,0.87591 -2.73723,0.87592 -5.36496,2.84672 0.32846,1.64233 0.43795,3.61314 0.21898,1.9708 0.21898,4.16058 v 21.56934 q 0,1.0949 0.54745,1.75183 0.54744,0.54744 1.64233,0.76642 l 4.27007,0.76643 v 4.05109 H 93.292571 v -4.05109 l 4.270073,-0.76643 q 0.985401,-0.21898 1.532846,-0.76642 0.656935,-0.54745 0.656935,-1.75183 v -20.03649 q 0,-6.56934 -1.532847,-9.74453 -1.532847,-3.28467 -6.678832,-3.28467 -2.737227,0 -5.80292,0.9854 -3.065693,0.87591 -5.474453,2.62774 v 29.45255 q 0,1.0949 0.437957,1.75183 0.547445,0.54744 1.642335,0.76642 z"
       style="font-size:109.48905182px;font-family:yrsa;text-anchor:middle;fill:#00c2c8;fill-opacity:1;stroke-width:1.09489048"
       id="path880" />
  </g>
  <g
     aria-label="biz"
     transform="rotate(30)"
     style="font-size:76.64233398px;font-family:yrsa;text-anchor:middle;fill:#00c2c8;fill-opacity:1;stroke-width:1.09489048"
     id="text10">
    <path
       d="m 225.96104,-31.859758 q -3.52554,0 -6.59124,-0.766423 -3.06569,-0.766424 -4.52189,-1.379562 v -42.153284 q 0,-0.766423 -0.38322,-1.149635 -0.38321,-0.459854 -1.07299,-0.536496 l -4.13868,-0.613139 v -2.529197 q 2.45255,-0.689781 5.36496,-1.072993 2.91241,-0.459854 5.28832,-0.536496 l 0.91971,0.843066 v 20.540145 q 1.68613,-1.686131 3.9854,-2.759124 2.29927,-1.072993 5.36496,-1.072993 5.28832,0 8.89051,3.60219 3.60219,3.60219 3.60219,11.572993 0,8.200729 -4.29197,13.105839 -4.29197,4.905109 -12.41606,4.905109 z m 0.45986,-3.142336 q 4.67518,0 7.12774,-3.142335 2.52919,-3.218978 2.60584,-10.193431 0.0766,-6.974452 -2.22263,-9.733576 -2.22263,-2.835766 -6.13139,-2.835766 -2.06934,0 -3.83212,0.689781 -1.68613,0.613138 -3.14233,1.762773 v 22.072992 q 0.99635,0.536497 2.37591,0.996351 1.37956,0.383211 3.21898,0.383211 z"
       style="font-size:76.64233398px;font-family:yrsa;text-anchor:middle;fill:#00c2c8;fill-opacity:1;stroke-width:1.09489048"
       id="path869" />
    <path
       d="m 259.9639,-73.476545 q 0,1.762773 -1.14964,2.912408 -1.14963,1.072993 -2.98905,1.072993 -1.83942,0 -2.98905,-1.072993 -1.14964,-1.149635 -1.14964,-2.912408 0,-1.762774 1.14964,-2.835767 1.14963,-1.149635 2.98905,-1.149635 1.83942,0 2.98905,1.149635 1.14964,1.072993 1.14964,2.835767 z m -0.45986,9.503649 v 26.364963 q 0,0.766423 0.38321,1.226277 0.38322,0.459854 1.14964,0.536497 l 3.37226,0.536496 v 2.835766 h -15.78832 v -2.835766 l 3.37226,-0.536496 q 0.76643,-0.07664 1.14964,-0.536497 0.38321,-0.459854 0.38321,-1.226277 v -20.770072 q 0,-0.689781 -0.38321,-1.149635 -0.30657,-0.459854 -1.07299,-0.536497 l -3.90876,-0.536496 v -2.759124 q 2.45255,-0.766424 5.28832,-1.072993 2.83576,-0.383212 5.21168,-0.459854 z"
       style="font-size:76.64233398px;font-family:yrsa;text-anchor:middle;fill:#00c2c8;fill-opacity:1;stroke-width:1.09489048"
       id="path871" />
    <path
       d="m 295.03375,-32.472897 h -25.13868 l -1.14964,-2.529197 19.31387,-26.211678 h -6.13139 q -1.30292,0 -2.68248,0.153285 -1.30292,0.07664 -2.29927,0.229927 -0.84306,0.07664 -1.30292,0.536496 -0.38321,0.383212 -0.53649,1.149635 l -1.22628,5.135037 h -3.14234 q -0.22992,-2.60584 -0.30657,-5.211679 0,-2.682482 0.30657,-4.90511 h 23.75913 l 1.14963,2.452555 -19.16058,26.058394 h 6.43795 q 1.60949,0 3.0657,0 1.4562,-0.07664 2.75912,-0.30657 0.76642,-0.07664 1.22628,-0.383211 0.53649,-0.383212 0.76642,-1.149635 l 1.60949,-5.518248 3.06569,0.383211 q 0.0766,2.375913 0,5.058394 -0.0766,2.682482 -0.38321,5.058394 z"
       style="font-size:76.64233398px;font-family:yrsa;text-anchor:middle;fill:#00c2c8;fill-opacity:1;stroke-width:1.09489048"
       id="path873" />
  </g>
  <g
     aria-label="edu"
     transform="rotate(-30)"
     style="font-size:43.79561996px;font-family:yrsa;text-anchor:middle;fill:#00c2c8;fill-opacity:1;stroke-width:1.09489048"
     id="text12">
    <path
       d="m 90.125691,122.45539 q -1.708029,0 -2.846715,1.22627 -1.138686,1.18248 -1.445256,3.81022 h 7.970803 q 0.0438,-0.21898 0.0438,-0.39416 0.0438,-0.17518 0.0438,-0.39416 0,-1.88321 -1.0073,-3.06569 -0.963503,-1.18248 -2.759124,-1.18248 z m 7.051095,12.87591 q -0.569343,1.927 -2.452555,3.10949 -1.839416,1.18248 -4.59854,1.18248 -4.072992,0 -6.043795,-2.58394 -1.970803,-2.62774 -1.970803,-6.65694 0,-4.55474 2.321168,-7.13868 2.321167,-2.58395 6.175182,-2.58395 2.934307,0 4.773723,1.62044 1.883211,1.57665 1.883211,4.64234 0,0.43795 -0.0438,1.09489 -0.0438,0.61314 -0.131387,1.13869 H 85.702334 q 0,0.0876 0,0.21897 0,0.13139 0,0.26278 0,4.29197 1.532846,5.9562 1.532847,1.66423 3.854015,1.66423 1.532847,0 2.846715,-0.65693 1.357664,-0.70073 2.145986,-1.92701 z"
       style="font-size:43.79561996px;font-family:yrsa;text-anchor:middle;fill:#00c2c8;fill-opacity:1;stroke-width:1.09489048"
       id="path862" />
    <path
       d="m 109.33828,137.3021 q 1.22628,0 2.23358,-0.39416 1.05109,-0.39416 1.88321,-1.05109 V 123.3313 q -0.56934,-0.30657 -1.48905,-0.56935 -0.91971,-0.26277 -1.92701,-0.26277 -2.23357,0 -3.81022,1.66423 -1.57664,1.62044 -1.62044,6 0,4.16059 1.40146,5.64964 1.44526,1.48905 3.32847,1.48905 z m 7.22628,2.23358 q -1.31387,0 -2.0146,-0.65694 -0.65693,-0.70073 -0.9635,-1.70803 -0.91971,1.0073 -2.27738,1.75183 -1.35766,0.70073 -3.19708,0.70073 -1.44525,0 -2.75912,-0.48175 -1.31387,-0.52555 -2.32117,-1.62044 -0.9635,-1.09489 -1.53284,-2.75913 -0.56935,-1.70802 -0.56935,-4.07299 0,-5.08029 2.58394,-7.53284 2.58395,-2.49636 6.70073,-2.49636 0.87592,0 1.70803,0.13139 0.87592,0.0876 1.53285,0.26278 v -6.74453 q 0,-0.43796 -0.21898,-0.65693 -0.21898,-0.26278 -0.61314,-0.30657 l -2.45255,-0.35037 v -1.44525 q 1.35766,-0.43796 3.06569,-0.65694 1.75183,-0.21898 3.10949,-0.26277 l 0.52555,0.52555 v 25.09489 q 0,0.56934 0.21898,0.78832 0.26277,0.21897 0.70073,0.26277 l 1.83941,0.17518 v 1.48905 q -0.56934,0.17519 -1.44525,0.35037 -0.87592,0.21898 -1.62044,0.21898 z"
       style="font-size:43.79561996px;font-family:yrsa;text-anchor:middle;fill:#00c2c8;fill-opacity:1;stroke-width:1.09489048"
       id="path864" />
    <path
       d="m 138.68956,139.53568 q -1.22628,0 -1.92701,-0.65694 -0.70073,-0.65693 -0.9635,-1.66423 -1.09489,1.05109 -2.45256,1.75182 -1.35766,0.65694 -3.24087,0.65694 -2.97811,0 -4.33577,-1.62044 -1.35767,-1.66423 -1.35767,-4.9927 v -8.54015 q 0,-0.43795 -0.21897,-0.70073 -0.17519,-0.26277 -0.61314,-0.30657 l -1.97081,-0.35036 v -1.57664 q 1.35767,-0.35037 2.84672,-0.52555 1.53285,-0.21898 2.89051,-0.26277 l 0.48175,0.52554 v 11.12409 q 0,2.54015 0.74453,3.76642 0.74452,1.18249 2.75912,1.18249 1.13869,0 2.23358,-0.35037 1.09489,-0.39416 2.05839,-1.18248 v -11.34307 q 0,-0.43795 -0.21897,-0.70073 -0.21898,-0.30657 -0.61314,-0.35036 l -2.36497,-0.35037 v -1.57664 q 1.35767,-0.35036 3.0657,-0.52555 1.70803,-0.21897 3.06569,-0.21897 l 0.48175,0.52554 v 14.97811 q 0,0.56934 0.21898,0.78832 0.26277,0.21897 0.70073,0.26277 l 1.83942,0.17518 v 1.48905 q -0.56935,0.17519 -1.44526,0.35037 -0.87591,0.21898 -1.66423,0.21898 z"
       style="font-size:43.79561996px;font-family:yrsa;text-anchor:middle;fill:#00c2c8;fill-opacity:1;stroke-width:1.09489048"
       id="path866" />
  </g>
  <g
     aria-label="gov"
     transform="rotate(15)"
     style="font-size:43.79561996px;font-family:yrsa;text-anchor:middle;fill:#00c2c8;fill-opacity:1;stroke-width:1.09489048"
     id="text14">
    <path
       d="m 76.140606,233.88564 q 0,2.32117 0.919708,3.54745 0.963504,1.18248 3.065693,1.18248 1.839416,0 2.759124,-1.0511 0.963504,-1.09489 0.963504,-3.45985 0,-2.45256 -0.963504,-3.54745 -0.963503,-1.13868 -2.978102,-1.13868 -1.576642,0 -2.671533,0.9197 -1.09489,0.91971 -1.09489,3.54745 z m 13.445255,14.36496 q 0,1.53285 -0.744525,2.80292 -0.744526,1.27008 -2.058394,2.14599 -1.313869,0.91971 -3.153285,1.40146 -1.839416,0.48175 -4.029197,0.48175 -3.810219,0 -5.693431,-1.40146 -1.883211,-1.40146 -1.883211,-3.63504 0,-1.62043 0.832116,-2.67153 0.875913,-1.05109 2.233577,-1.66423 -0.788321,-0.43796 -1.182482,-1.09489 -0.39416,-0.65694 -0.39416,-1.57665 0,-1.27007 0.70073,-2.05839 0.70073,-0.83212 1.664233,-1.31387 -1.532846,-0.70073 -2.408759,-2.05839 -0.832117,-1.35767 -0.832117,-3.32847 0,-1.66423 0.613139,-2.93431 0.613139,-1.27007 1.620438,-2.05839 1.051095,-0.83212 2.452555,-1.22628 1.40146,-0.39416 2.978102,-0.39416 1.532847,0 2.80292,0.39416 1.313868,0.39416 2.189781,1.13869 0.744525,-0.70073 1.489051,-1.09489 0.788321,-0.43796 1.576642,-0.43796 0.394161,0 0.875912,0.13139 0.481752,0.0876 0.919708,0.17518 v 2.58394 h -3.678832 q 0.394161,0.65694 0.613139,1.48905 0.218978,0.78833 0.218978,1.75183 0,2.9781 -2.058394,4.81752 -2.058394,1.79562 -5.562044,1.79562 -0.656934,0 -1.270073,-0.0438 -0.613138,-0.0876 -1.182482,-0.21898 -0.437956,0.30657 -0.700729,0.74453 -0.262774,0.43796 -0.262774,1.0073 0,0.9635 0.832117,1.40146 0.875912,0.39416 2.759124,0.39416 h 3.89781 q 2.890511,0 4.335766,1.22628 1.489051,1.18248 1.489051,3.32846 z m -9.372262,4.94891 q 2.671532,0 4.335766,-1.09489 1.708029,-1.0511 1.708029,-3.24088 0,-1.18248 -0.744525,-1.83941 -0.70073,-0.65694 -2.715329,-0.65694 h -4.072992 q -0.569343,0 -1.138687,-0.0438 -0.525547,-0.0438 -0.963503,-0.13139 -0.569343,0.56934 -0.919708,1.35766 -0.350365,0.83212 -0.350365,1.92701 0,1.62044 1.051095,2.67153 1.051095,1.0511 3.810219,1.0511 z"
       style="font-size:43.79561996px;font-family:yrsa;text-anchor:middle;fill:#00c2c8;fill-opacity:1;stroke-width:1.09489048"
       id="path855" />
    <path
       d="m 92.431892,237.3017 q 0,-2.49635 0.70073,-4.33577 0.70073,-1.83941 1.883212,-2.9781 1.182482,-1.18248 2.759124,-1.75183 1.620438,-0.56934 3.416062,-0.56934 4.24817,0 6.17518,2.62774 1.9708,2.58394 1.9708,6.78832 0,2.49635 -0.70073,4.33577 -0.65693,1.79562 -1.83941,2.9781 -1.18249,1.13868 -2.80292,1.70803 -1.62044,0.52555 -3.41606,0.52555 -4.204382,0 -6.175185,-2.54015 -1.970803,-2.58394 -1.970803,-6.78832 z m 13.138688,0.0876 q 0,-3.59124 -1.0511,-5.73723 -1.0073,-2.18978 -3.76642,-2.18978 -2.321168,0 -3.459854,1.79562 -1.09489,1.75183 -1.09489,5.69343 0,3.54745 1.007299,5.73723 1.051095,2.14598 3.810215,2.14598 2.32117,0 3.41606,-1.75182 1.13869,-1.75182 1.13869,-5.69343 z"
       style="font-size:43.79561996px;font-family:yrsa;text-anchor:middle;fill:#00c2c8;fill-opacity:1;stroke-width:1.09489048"
       id="path857" />
    <path
       d="m 119.449,246.54257 -6.13139,-15.63503 q -0.13139,-0.30657 -0.35036,-0.52555 -0.21898,-0.21898 -0.56935,-0.30657 l -1.18248,-0.35036 v -1.53285 h 8.49635 v 1.53285 l -2.75912,0.48175 4.64233,12.9635 4.46716,-12.9635 -2.75913,-0.48175 v -1.53285 h 6.91971 v 1.53285 l -1.18248,0.35036 q -0.30657,0.0876 -0.56935,0.30657 -0.26277,0.17518 -0.39416,0.52555 l -5.64963,15.63503 z"
       style="font-size:43.79561996px;font-family:yrsa;text-anchor:middle;fill:#00c2c8;fill-opacity:1;stroke-width:1.09489048"
       id="path859" />
  </g>
  <g
     aria-label="org"
     style="font-size:43.79561996px;font-family:yrsa;text-anchor:middle;fill:#00c2c8;fill-opacity:1;stroke-width:1.09489048"
     id="text16">
    <path
       d="m 133.82883,111.08788 q 0,-2.49635 0.70073,-4.33576 0.70073,-1.83942 1.88321,-2.9781 1.18248,-1.18249 2.75912,-1.75183 1.62044,-0.56934 3.41606,-0.56934 4.24818,0 6.17519,2.62774 1.9708,2.58394 1.9708,6.78832 0,2.49635 -0.70073,4.33576 -0.65694,1.79562 -1.83942,2.9781 -1.18248,1.13869 -2.80292,1.70803 -1.62043,0.52555 -3.41606,0.52555 -4.20437,0 -6.17518,-2.54014 -1.9708,-2.58395 -1.9708,-6.78833 z m 13.13869,0.0876 q 0,-3.59125 -1.0511,-5.73723 -1.0073,-2.18978 -3.76642,-2.18978 -2.32117,0 -3.45986,1.79562 -1.09489,1.75182 -1.09489,5.69343 0,3.54744 1.0073,5.73723 1.0511,2.14598 3.81022,2.14598 2.32117,0 3.41606,-1.75182 1.13869,-1.75183 1.13869,-5.69343 z"
       style="font-size:43.79561996px;font-family:yrsa;text-anchor:middle;fill:#00c2c8;fill-opacity:1;stroke-width:1.09489048"
       id="path848" />
    <path
       d="m 164.47482,118.48934 v 1.57665 h -10.33577 v -1.62044 l 1.92701,-0.30657 q 0.43795,-0.0438 0.65693,-0.30657 0.21898,-0.26277 0.21898,-0.70073 v -11.78102 q 0,-0.43796 -0.21898,-0.70073 -0.17518,-0.30657 -0.65693,-0.35037 l -2.18978,-0.30657 v -1.57664 q 1.27007,-0.39416 2.71532,-0.61314 1.48905,-0.21897 2.75913,-0.26277 l 0.52555,0.52555 0.35036,2.9343 q 1.0073,-1.35766 2.62774,-2.45255 1.66423,-1.09489 3.41606,-1.09489 0.43795,0 1.09489,0.13139 0.65693,0.13138 1.09489,0.30656 0.0876,1.35767 -0.0438,3.0657 -0.0876,1.66423 -0.39416,3.0219 h -1.62044 l -0.48175,-2.45256 q -0.13139,-0.52555 -0.39416,-0.74452 -0.21898,-0.21898 -0.70073,-0.21898 -1.09489,0 -2.27737,0.48175 -1.18248,0.48175 -2.18978,1.48905 v 10.59854 q 0,0.43796 0.21898,0.70073 0.26277,0.26277 0.70072,0.30657 z"
       style="font-size:43.79561996px;font-family:yrsa;text-anchor:middle;fill:#00c2c8;fill-opacity:1;stroke-width:1.09489048"
       id="path850" />
    <path
       d="m 175.19037,107.67183 q 0,2.32116 0.91971,3.54744 0.9635,1.18248 3.06569,1.18248 1.83942,0 2.75913,-1.05109 0.9635,-1.09489 0.9635,-3.45986 0,-2.45255 -0.9635,-3.54744 -0.96351,-1.13869 -2.97811,-1.13869 -1.57664,0 -2.67153,0.91971 -1.09489,0.91971 -1.09489,3.54745 z m 13.44526,14.36496 q 0,1.53285 -0.74453,2.80292 -0.74452,1.27007 -2.05839,2.14598 -1.31387,0.91971 -3.15329,1.40146 -1.83941,0.48176 -4.02919,0.48176 -3.81022,0 -5.69344,-1.40146 -1.88321,-1.40146 -1.88321,-3.63504 0,-1.62044 0.83212,-2.67153 0.87591,-1.0511 2.23358,-1.66424 -0.78832,-0.43795 -1.18249,-1.09489 -0.39416,-0.65693 -0.39416,-1.57664 0,-1.27007 0.70073,-2.05839 0.70073,-0.83212 1.66424,-1.31387 -1.53285,-0.70073 -2.40876,-2.0584 -0.83212,-1.35766 -0.83212,-3.32846 0,-1.66424 0.61314,-2.93431 0.61314,-1.27007 1.62044,-2.05839 1.05109,-0.83212 2.45255,-1.22628 1.40146,-0.39416 2.97811,-0.39416 1.53284,0 2.80291,0.39416 1.31387,0.39416 2.18979,1.13868 0.74452,-0.70073 1.48905,-1.09489 0.78832,-0.43795 1.57664,-0.43795 0.39416,0 0.87591,0.13139 0.48175,0.0876 0.91971,0.17518 v 2.58394 h -3.67883 q 0.39416,0.65693 0.61314,1.48905 0.21897,0.78832 0.21897,1.75182 0,2.97811 -2.05839,4.81752 -2.05839,1.79562 -5.56204,1.79562 -0.65694,0 -1.27008,-0.0438 -0.61314,-0.0876 -1.18248,-0.21898 -0.43795,0.30657 -0.70073,0.74453 -0.26277,0.43795 -0.26277,1.00729 0,0.96351 0.83211,1.40146 0.87592,0.39417 2.75913,0.39417 h 3.89781 q 2.89051,0 4.33577,1.22627 1.48905,1.18248 1.48905,3.32847 z m -9.37227,4.9489 q 2.67154,0 4.33577,-1.09489 1.70803,-1.05109 1.70803,-3.24087 0,-1.18248 -0.74453,-1.83942 -0.70073,-0.65693 -2.71532,-0.65693 h -4.073 q -0.56934,0 -1.13868,-0.0438 -0.52555,-0.0438 -0.96351,-0.13138 -0.56934,0.56934 -0.91971,1.35766 -0.35036,0.83212 -0.35036,1.92701 0,1.62043 1.05109,2.67153 1.0511,1.05109 3.81022,1.05109 z"
       style="font-size:43.79561996px;font-family:yrsa;text-anchor:middle;fill:#00c2c8;fill-opacity:1;stroke-width:1.09489048"
       id="path852" />
  </g>
  <g
     aria-label="mil"
     transform="rotate(30)"
     style="font-size:43.79561996px;font-family:yrsa;text-anchor:middle;fill:#00c2c8;fill-opacity:1;stroke-width:1.09489048"
     id="text18">
    <path
       d="M 79.612741,5.0505039 V 6.6709418 H 70.809822 V 5.0505039 l 1.970803,-0.3065693 q 0.39416,-0.043796 0.613138,-0.3065694 0.218979,-0.2627737 0.218979,-0.7007299 v -11.868613 q 0,-0.3941606 -0.218979,-0.6569343 -0.175182,-0.2627737 -0.613138,-0.3065694 l -2.233577,-0.3065693 v -1.5766423 q 1.313869,-0.394161 2.80292,-0.613139 1.489051,-0.218978 2.715328,-0.262773 l 0.613139,0.569343 0.218978,1.8832113 q 1.226277,-1.3576643 2.759124,-1.8832113 1.576642,-0.569343 3.19708,-0.569343 1.883212,0 2.978103,0.70073 1.138686,0.656934 1.708029,1.8832112 1.40146,-1.4890512 3.065693,-2.0145982 1.664234,-0.569343 3.240876,-0.569343 3.240876,0 4.423358,1.839416 1.182481,1.79562 1.182481,5.2992696 v 8.4525547 q 0,0.4379562 0.218978,0.7007299 0.218979,0.2627737 0.613135,0.3065694 l 2.0146,0.3065693 V 6.6709418 H 93.452157 V 5.0505039 l 1.70803,-0.3065693 q 0.39416,-0.087591 0.613138,-0.3065694 0.262774,-0.2189781 0.262774,-0.7007299 v -7.9708028 q 0,-2.7153285 -0.788321,-3.9854015 -0.744526,-1.2700729 -2.890511,-1.2700729 -1.094891,0 -2.233577,0.3503649 -1.09489,0.350365 -2.145985,1.1386861 0.131387,0.6569343 0.175182,1.4452555 0.08759,0.7883212 0.08759,1.6642336 v 8.6277371 q 0,0.4379562 0.218978,0.7007299 0.218978,0.2189781 0.656934,0.3065694 L 90.82442,5.0505039 V 6.6709418 H 82.240479 V 5.0505039 l 1.708029,-0.3065693 q 0.39416,-0.087591 0.613139,-0.3065694 0.262773,-0.2189781 0.262773,-0.7007299 v -8.0145985 q 0,-2.6277372 -0.613138,-3.8978101 -0.613139,-1.3138686 -2.671533,-1.3138686 -1.094891,0 -2.321168,0.3941605 -1.226277,0.350365 -2.189781,1.0510949 V 3.7366353 q 0,0.4379562 0.175182,0.7007299 0.218978,0.2189781 0.656935,0.3065694 z"
       style="font-size:43.79561996px;font-family:yrsa;text-anchor:middle;fill:#00c2c8;fill-opacity:1;stroke-width:1.09489048"
       id="path841" />
    <path
       d="m 111.25029,-16.759715 q 0,1.007299 -0.65694,1.664234 -0.65693,0.613138 -1.70803,0.613138 -1.05109,0 -1.70803,-0.613138 -0.65693,-0.656935 -0.65693,-1.664234 0,-1.007299 0.65693,-1.620438 0.65694,-0.656934 1.70803,-0.656934 1.0511,0 1.70803,0.656934 0.65694,0.613139 0.65694,1.620438 z m -0.26278,5.430657 V 3.7366353 q 0,0.4379562 0.21898,0.7007299 0.21898,0.2627737 0.65694,0.3065694 l 1.927,0.3065693 v 1.6204379 h -9.02189 V 5.0505039 l 1.927,-0.3065693 q 0.43796,-0.043796 0.65694,-0.3065694 0.21898,-0.2627737 0.21898,-0.7007299 v -11.868613 q 0,-0.3941606 -0.21898,-0.6569343 -0.17519,-0.2627737 -0.61314,-0.3065694 l -2.23358,-0.3065693 v -1.5766423 q 1.40146,-0.437956 3.0219,-0.613139 1.62044,-0.218978 2.9781,-0.262773 z"
       style="font-size:43.79561996px;font-family:yrsa;text-anchor:middle;fill:#00c2c8;fill-opacity:1;stroke-width:1.09489048"
       id="path843" />
    <path
       d="M 122.3559,-21.445846 V 3.7366353 q 0,0.4379562 0.21898,0.7007299 0.21897,0.2627737 0.61314,0.3065694 l 2.32116,0.3503649 v 1.5766423 h -9.76642 V 5.0505039 l 2.32117,-0.3065693 q 0.43795,-0.043796 0.65693,-0.2627738 0.21898,-0.2627737 0.21898,-0.7007299 V -18.292562 q 0,-0.437956 -0.21898,-0.656934 -0.21898,-0.262774 -0.65693,-0.306569 l -2.40876,-0.350365 v -1.445256 q 1.35766,-0.437956 3.06569,-0.656934 1.75183,-0.218978 3.10949,-0.262774 z"
       style="font-size:43.79561996px;font-family:yrsa;text-anchor:middle;fill:#00c2c8;fill-opacity:1;stroke-width:1.09489048"
       id="path845" />
  </g>
  <g
     aria-label="mobi"
     style="font-size:109.48905182px;font-family:yrsa;text-anchor:middle;fill:#00c2c8;fill-opacity:1;stroke-width:1.09489048"
     id="text20">
    <path
       d="m 97.192236,253.30816 v 4.05109 h -22.0073 v -4.05109 l 4.927007,-0.76643 q 0.985402,-0.10948 1.532847,-0.76642 0.547445,-0.65693 0.547445,-1.75182 v -29.67154 q 0,-0.9854 -0.547445,-1.64233 -0.437956,-0.65694 -1.532847,-0.76643 l -5.583941,-0.76642 v -3.9416 q 3.284671,-0.98541 7.007299,-1.53285 3.722628,-0.54745 6.788321,-0.65694 l 1.532847,1.42336 0.547445,4.70803 q 3.065694,-3.39416 6.897811,-4.70803 3.941605,-1.42336 7.992705,-1.42336 4.70802,0 7.44525,1.75183 2.84672,1.64233 4.27007,4.70803 3.50365,-3.72263 7.66424,-5.0365 4.16058,-1.42336 8.10219,-1.42336 8.10219,0 11.05839,4.59854 2.95621,4.48906 2.95621,13.24818 v 21.13139 q 0,1.09489 0.54744,1.75182 0.54745,0.65694 1.53285,0.76642 l 5.03649,0.76643 v 4.05109 h -22.11678 v -4.05109 l 4.27007,-0.76643 q 0.9854,-0.21897 1.53285,-0.76642 0.65693,-0.54744 0.65693,-1.75182 v -19.92701 q 0,-6.78832 -1.9708,-9.9635 -1.86132,-3.17519 -7.22628,-3.17519 -2.73723,0 -5.58394,0.87592 -2.73723,0.87591 -5.36497,2.84671 0.32847,1.64234 0.43796,3.61314 0.21898,1.9708 0.21898,4.16058 v 21.56935 q 0,1.09489 0.54744,1.75182 0.54745,0.54745 1.64234,0.76642 l 4.27007,0.76643 v 4.05109 h -21.45985 v -4.05109 l 4.27007,-0.76643 q 0.9854,-0.21897 1.53285,-0.76642 0.65693,-0.54744 0.65693,-1.75182 v -20.0365 q 0,-6.56934 -1.53284,-9.74453 -1.53285,-3.28467 -6.67884,-3.28467 -2.737222,0 -5.802916,0.9854 -3.065693,0.87592 -5.474452,2.62774 v 29.45256 q 0,1.09489 0.437956,1.75182 0.547445,0.54745 1.642336,0.76642 z"
       style="font-size:109.48905182px;font-family:yrsa;text-anchor:middle;fill:#00c2c8;fill-opacity:1;stroke-width:1.09489048"
       id="path832" />
    <path
       d="m 160.62916,234.914 q 0,-6.24088 1.75183,-10.83942 1.75182,-4.59854 4.70803,-7.44525 2.9562,-2.95621 6.89781,-4.37957 4.05109,-1.42335 8.54014,-1.42335 10.62044,0 15.43796,6.56934 4.92701,6.45985 4.92701,16.9708 0,6.24088 -1.75183,10.83942 -1.64233,4.48905 -4.59854,7.44525 -2.9562,2.84672 -7.0073,4.27008 -4.05109,1.31387 -8.54014,1.31387 -10.51095,0 -15.43796,-6.35037 -4.92701,-6.45985 -4.92701,-16.9708 z m 32.84672,0.21898 q 0,-8.97811 -2.62774,-14.34307 -2.51825,-5.47445 -9.41606,-5.47445 -5.80292,0 -8.64963,4.48905 -2.73723,4.37956 -2.73723,14.23357 0,8.86862 2.51825,14.34307 2.62774,5.36496 9.52555,5.36496 5.80292,0 8.54014,-4.37956 2.84672,-4.37956 2.84672,-14.23357 z"
       style="font-size:109.48905182px;font-family:yrsa;text-anchor:middle;fill:#00c2c8;fill-opacity:1;stroke-width:1.09489048"
       id="path834" />
    <path
       d="m 230.78427,258.23517 q -5.0365,0 -9.41606,-1.0949 -4.37956,-1.09489 -6.45985,-1.9708 v -60.21898 q 0,-1.09489 -0.54745,-1.64233 -0.54744,-0.65694 -1.53284,-0.76643 l -5.91241,-0.87591 v -3.61314 q 3.50365,-0.9854 7.66423,-1.53284 4.16058,-0.65694 7.55475,-0.76643 l 1.31386,1.20438 v 29.34307 q 2.40876,-2.40876 5.69343,-3.94161 3.28468,-1.53284 7.66424,-1.53284 7.55474,0 12.70073,5.14598 5.14598,5.14599 5.14598,16.53285 0,11.71533 -6.13138,18.72263 -6.13139,7.0073 -17.73723,7.0073 z m 0.65693,-4.48906 q 6.67884,0 10.18249,-4.48905 3.61314,-4.59854 3.72262,-14.56204 0.10949,-9.9635 -3.17518,-13.90511 -3.17518,-4.0511 -8.75912,-4.0511 -2.95621,0 -5.47445,0.98541 -2.40876,0.87591 -4.48906,2.51824 v 31.53285 q 1.42336,0.76642 3.39416,1.42336 1.97081,0.54744 4.59854,0.54744 z"
       style="font-size:109.48905182px;font-family:yrsa;text-anchor:middle;fill:#00c2c8;fill-opacity:1;stroke-width:1.09489048"
       id="path836" />
    <path
       d="m 279.35977,198.78261 q 0,2.51825 -1.64233,4.16058 -1.64234,1.53285 -4.27007,1.53285 -2.62774,0 -4.27008,-1.53285 -1.64233,-1.64233 -1.64233,-4.16058 0,-2.51825 1.64233,-4.05109 1.64234,-1.64234 4.27008,-1.64234 2.62773,0 4.27007,1.64234 1.64233,1.53284 1.64233,4.05109 z m -0.65693,13.57664 v 37.66424 q 0,1.09489 0.54745,1.75182 0.54744,0.65694 1.64233,0.76642 l 4.81752,0.76643 v 4.05109 H 263.1554 v -4.05109 l 4.81751,-0.76643 q 1.09489,-0.10948 1.64234,-0.76642 0.54744,-0.65693 0.54744,-1.75182 v -29.67154 q 0,-0.9854 -0.54744,-1.64233 -0.43796,-0.65694 -1.53285,-0.76643 l -5.58394,-0.76642 v -3.9416 q 3.50365,-1.0949 7.55475,-1.53285 4.05109,-0.54745 7.44525,-0.65694 z"
       style="font-size:109.48905182px;font-family:yrsa;text-anchor:middle;fill:#00c2c8;fill-opacity:1;stroke-width:1.09489048"
       id="path838" />
  </g>
  <g
     aria-label="net"
     style="font-size:76.64233398px;font-family:yrsa;text-anchor:middle;fill:#00c2c8;fill-opacity:1;stroke-width:1.09489048"
     id="text22">
    <path
       d="m 24.208265,118.64908 v 2.83577 H 8.7265136 v -2.83577 l 3.3722624,-0.53649 q 0.766424,-0.0767 1.149635,-0.5365 0.383212,-0.45986 0.383212,-1.22628 V 95.579739 q 0,-0.689781 -0.383212,-1.149635 -0.306569,-0.459854 -1.072992,-0.536496 L 8.2666596,93.357111 v -2.759124 q 2.2992704,-0.689781 4.9051094,-1.072992 2.605839,-0.383212 4.751825,-0.459854 l 1.072992,0.99635 0.383212,3.448905 q 2.375912,-2.452555 5.211679,-3.448905 2.835766,-0.99635 5.901459,-0.99635 5.518249,0 7.510949,3.218978 1.992701,3.218978 1.992701,8.967151 v 15.09854 q 0,0.76642 0.383212,1.22628 0.459854,0.45985 1.149635,0.5365 l 3.448905,0.53649 v 2.83577 H 29.496586 v -2.83577 l 3.065693,-0.53649 q 0.689781,-0.15329 1.072993,-0.5365 0.459854,-0.38321 0.459854,-1.22628 v -14.02555 q 0,-4.598536 -1.30292,-6.821163 -1.226277,-2.29927 -4.828467,-2.29927 -2.29927,0 -4.445255,0.689781 -2.069343,0.689781 -3.908759,2.069343 v 20.386859 q 0,0.76642 0.383212,1.22628 0.383211,0.38321 1.072992,0.5365 z"
       style="font-size:76.64233398px;font-family:yrsa;text-anchor:middle;fill:#00c2c8;fill-opacity:1;stroke-width:1.09489048"
       id="path825" />
    <path
       d="m 63.70182,92.054192 q -2.989051,0 -4.981752,2.145985 -1.992701,2.069343 -2.529197,6.667883 h 13.948905 q 0.07664,-0.38321 0.07664,-0.68978 0.07664,-0.30657 0.07664,-0.689782 0,-3.29562 -1.762774,-5.364963 -1.686132,-2.069343 -4.828467,-2.069343 z m 12.339416,22.532848 q -0.996351,3.37226 -4.291971,5.4416 -3.218978,2.06935 -8.047445,2.06935 -7.127737,0 -10.576642,-4.5219 -3.448905,-4.59854 -3.448905,-11.64964 0,-7.970799 4.062043,-12.492696 4.062044,-4.521898 10.806569,-4.521898 5.135037,0 8.354015,2.835766 3.29562,2.759124 3.29562,8.124088 0,0.76642 -0.07664,1.91606 -0.07664,1.07299 -0.229927,1.9927 H 55.960944 q 0,0.15328 0,0.38321 0,0.22993 0,0.45985 0,7.51095 2.682482,10.42336 2.682481,2.91241 6.744525,2.91241 2.682482,0 4.981752,-1.14963 2.375912,-1.22628 3.755474,-3.37227 z"
       style="font-size:76.64233398px;font-family:yrsa;text-anchor:middle;fill:#00c2c8;fill-opacity:1;stroke-width:1.09489048"
       id="path827" />
    <path
       d="M 86.057425,113.59069 V 93.816965 l -4.828467,-0.613138 v -2.60584 l 3.525547,-0.536496 q 0.766424,-0.07664 1.149635,-0.459854 0.459854,-0.383212 0.536497,-1.072993 l 2.069343,-8.200729 h 3.448905 l 0.07664,9.503649 h 10.423353 v 3.755474 H 92.112169 v 18.010952 q 0,3.67883 1.149635,4.90511 1.226278,1.14963 3.372263,1.14963 1.762774,0 3.218978,-0.61314 1.532845,-0.61314 2.605835,-1.83941 l 1.68614,1.60949 q -1.22628,2.60584 -3.83212,3.9854 -2.60584,1.30292 -5.748176,1.30292 -3.448905,0 -5.978102,-1.76278 -2.529197,-1.76277 -2.529197,-6.74452 z"
       style="font-size:76.64233398px;font-family:yrsa;text-anchor:middle;fill:#00c2c8;fill-opacity:1;stroke-width:1.09489048"
       id="path829" />
  </g>
</svg>
