<?xml version="1.0" encoding="UTF-8" standalone="no"?>
<svg
   xmlns:dc="http://purl.org/dc/elements/1.1/"
   xmlns:cc="http://creativecommons.org/ns#"
   xmlns:rdf="http://www.w3.org/1999/02/22-rdf-syntax-ns#"
   xmlns:svg="http://www.w3.org/2000/svg"
   xmlns="http://www.w3.org/2000/svg"
   xmlns:sodipodi="http://sodipodi.sourceforge.net/DTD/sodipodi-0.dtd"
   xmlns:inkscape="http://www.inkscape.org/namespaces/inkscape"
   width="300"
   height="300"
   version="1.1"
   id="svg34"
   sodipodi:docname="country_wordcloud.svg"
   inkscape:version="0.92.4 (5da689c313, 2019-01-14)">
  <metadata
     id="metadata40">
    <rdf:RDF>
      <cc:Work
         rdf:about="">
        <dc:format>image/svg+xml</dc:format>
        <dc:type
           rdf:resource="http://purl.org/dc/dcmitype/StillImage" />
        <dc:title />
      </cc:Work>
    </rdf:RDF>
  </metadata>
  <defs
     id="defs38" />
  <sodipodi:namedview
     pagecolor="#ffffff"
     bordercolor="#666666"
     borderopacity="1"
     objecttolerance="10"
     gridtolerance="10"
     guidetolerance="10"
     inkscape:pageopacity="0"
     inkscape:pageshadow="2"
     inkscape:window-width="1920"
     inkscape:window-height="1055"
     id="namedview36"
     showgrid="false"
     inkscape:zoom="1.2166667"
     inkscape:cx="268.08788"
     inkscape:cy="290.16409"
     inkscape:window-x="0"
     inkscape:window-y="0"
     inkscape:window-maximized="1"
     inkscape:current-layer="svg34" />
  <g
     id="g2"
     transform="translate(0,-300)" />
  <g
     aria-label="country"
     transform="rotate(-30)"
     style="font-size:100.67114258px;font-family:yrsa;text-anchor:middle;fill:#00c2c8;fill-opacity:1;stroke-width:1.00671136"
     id="text4">
    <path
       d="m -113.67434,236.90677 q 0,-4.83222 1.30872,-8.95973 1.30873,-4.12752 3.82551,-7.04698 2.51678,-3.02014 6.34228,-4.73155 3.825503,-1.71141 8.758389,-1.71141 3.422819,0 6.946309,0.80537 3.624161,0.80537 5.838926,1.91276 0.201342,2.81879 -0.100671,6.14094 -0.201342,3.32214 -0.604027,6.14093 h -4.026846 l -1.610738,-6.14093 q -0.201342,-1.00672 -0.503356,-1.71141 -0.302013,-0.7047 -1.006711,-1.30873 -0.90604,-0.7047 -2.416107,-1.20805 -1.409396,-0.50336 -3.322148,-0.50336 -5.134228,0 -7.95302,4.12752 -2.81879,4.12752 -2.81879,12.48322 0,8.75839 3.22147,13.08725 3.221481,4.32886 8.959736,4.32886 3.422819,0 6.040268,-1.30873 2.718121,-1.30872 4.429531,-3.1208 l 2.214765,1.91275 q -1.71141,3.72483 -5.637584,5.83893 -3.926175,2.11409 -9.362416,2.11409 -9.16107,0 -13.89262,-5.9396 -4.63087,-6.04027 -4.63087,-15.20134 z"
       style="font-size:100.67114258px;font-family:yrsa;text-anchor:middle;fill:#00c2c8;fill-opacity:1;stroke-width:1.00671136"
       id="path2045" />
    <path
       d="m -72.282772,236.60476 q 0,-5.73826 1.610738,-9.96645 1.610738,-4.22819 4.328859,-6.84563 2.718121,-2.71813 6.342282,-4.02685 3.724832,-1.30873 7.852349,-1.30873 9.765101,0 14.194631,6.04027 4.530202,5.9396 4.530202,15.60403 0,5.73826 -1.610738,9.96644 -1.510068,4.12752 -4.228188,6.84564 -2.718121,2.61745 -6.442954,3.92618 -3.724832,1.20805 -7.852349,1.20805 -9.664429,0 -14.194631,-5.83893 -4.530201,-5.93959 -4.530201,-15.60402 z m 30.201343,0.20134 q 0,-8.25504 -2.416108,-13.18792 -2.315436,-5.03356 -8.657718,-5.03356 -5.335571,0 -7.95302,4.12752 -2.516779,4.02684 -2.516779,13.08725 0,8.15436 2.315436,13.18792 2.416108,4.93288 8.75839,4.93288 5.33557,0 7.852349,-4.02684 2.61745,-4.02685 2.61745,-13.08725 z"
       style="font-size:100.67114258px;font-family:yrsa;text-anchor:middle;fill:#00c2c8;fill-opacity:1;stroke-width:1.00671136"
       id="path2047" />
    <path
       d="m 12.155152,257.84637 q -2.8187915,0 -4.4295298,-1.51007 -1.6107383,-1.51007 -2.2147652,-3.8255 -2.5167785,2.4161 -5.63758395,4.02684 -3.12080545,1.51007 -7.44966455,1.51007 -6.8456375,0 -9.9664435,-3.72483 -3.120805,-3.82551 -3.120805,-11.47651 v -19.63088 q 0,-1.00671 -0.503356,-1.61073 -0.402684,-0.60403 -1.409396,-0.7047 l -4.530201,-0.80537 v -3.62416 q 3.120805,-0.80537 6.543624,-1.20806 3.52349,-0.50335 6.644296,-0.60402 l 1.107382,1.20805 v 25.57047 q 0,5.83893 1.71141,8.65772 1.7114089,2.71812 6.3422815,2.71812 2.6174497,0 5.13422827,-0.80537 2.51677853,-0.90604 4.73154373,-2.71812 v -26.07383 q 0,-1.00671 -0.5033557,-1.61073 -0.5033558,-0.7047 -1.409396,-0.80537 l -5.4362417,-0.80537 v -3.62416 q 3.12080538,-0.80537 7.0469799,-1.20806 3.9261746,-0.50335 7.04698,-0.50335 l 1.107383,1.20805 v 34.42953 q 0,1.30873 0.503355,1.81208 0.604027,0.50336 1.610739,0.60403 l 4.228188,0.40268 v 3.42282 q -1.308725,0.40269 -3.322148,0.80537 -2.013423,0.50336 -3.825504,0.50336 z"
       style="font-size:100.67114258px;font-family:yrsa;text-anchor:middle;fill:#00c2c8;fill-opacity:1;stroke-width:1.00671136"
       id="path2049" />
    <path
       d="m 45.8611,253.51751 v 3.72483 H 25.525529 v -3.72483 l 4.42953,-0.7047 q 1.006712,-0.10067 1.510067,-0.7047 0.503356,-0.60403 0.503356,-1.61074 v -27.28188 q 0,-0.90604 -0.503356,-1.51006 -0.402684,-0.60403 -1.409396,-0.7047 l -5.134228,-0.7047 v -3.62416 q 3.020134,-0.90604 6.442953,-1.4094 3.422819,-0.50335 6.241611,-0.60402 l 1.409396,1.30872 0.503356,4.5302 q 3.120805,-3.22147 6.845638,-4.5302 3.724832,-1.30872 7.751678,-1.30872 7.248322,0 9.865772,4.22818 2.617449,4.22819 2.617449,11.77853 v 19.83221 q 0,1.00671 0.503356,1.61074 0.604027,0.60403 1.510067,0.7047 l 4.530201,0.7047 v 3.72483 h -20.33557 v -3.72483 l 4.026845,-0.7047 q 0.906041,-0.20134 1.409396,-0.7047 0.604027,-0.50335 0.604027,-1.61074 v -18.42282 q 0,-6.04026 -1.711409,-8.95973 -1.610738,-3.02013 -6.342282,-3.02013 -3.020134,0 -5.838926,0.90604 -2.718121,0.90604 -5.134229,2.71812 v 26.77852 q 0,1.00671 0.503356,1.61074 0.503356,0.50336 1.409396,0.7047 z"
       style="font-size:100.67114258px;font-family:yrsa;text-anchor:middle;fill:#00c2c8;fill-opacity:1;stroke-width:1.00671136"
       id="path2051" />
    <path
       d="m 83.844014,246.87321 v -25.97315 l -6.342282,-0.80537 v -3.42282 l 4.630872,-0.7047 q 1.006712,-0.10067 1.510067,-0.60403 0.604027,-0.50335 0.704698,-1.40939 l 2.718121,-10.77181 h 4.530202 l 0.100671,12.48322 h 13.691277 v 4.93288 H 91.797034 v 23.65772 q 0,4.83222 1.510067,6.44296 1.610738,1.51006 4.42953,1.51006 2.315439,0 4.228189,-0.80537 2.01342,-0.80537 3.42282,-2.4161 l 2.21476,2.11409 q -1.61074,3.42282 -5.03355,5.2349 -3.422823,1.71141 -7.55034,1.71141 -4.530201,0 -7.852349,-2.31544 -3.322147,-2.31543 -3.322147,-8.85906 z"
       style="font-size:100.67114258px;font-family:yrsa;text-anchor:middle;fill:#00c2c8;fill-opacity:1;stroke-width:1.00671136"
       id="path2053" />
    <path
       d="m 136.19144,253.61818 v 3.62416 h -23.75839 v -3.72483 l 4.42953,-0.7047 q 1.00671,-0.10067 1.51006,-0.7047 0.50336,-0.60403 0.50336,-1.61074 v -27.08053 q 0,-1.00672 -0.50336,-1.61074 -0.40268,-0.7047 -1.51006,-0.80537 l -5.03356,-0.7047 v -3.62416 q 2.91946,-0.90604 6.24161,-1.4094 3.42282,-0.50335 6.34228,-0.60402 l 1.20806,1.20805 0.80536,6.74497 q 2.31544,-3.12081 6.04027,-5.63759 3.82551,-2.51678 7.85235,-2.51678 1.00671,0 2.51678,0.30202 1.51007,0.30201 2.51678,0.7047 0.20134,3.1208 -0.10067,7.04698 -0.20134,3.8255 -0.90604,6.9463 h -3.72483 l -1.10739,-5.63758 q -0.30201,-1.20805 -0.90604,-1.71141 -0.50335,-0.50335 -1.61074,-0.50335 -2.51677,0 -5.2349,1.10738 -2.71812,1.10738 -5.03355,3.42282 v 24.36241 q 0,1.00671 0.50335,1.61074 0.60403,0.60403 1.61074,0.7047 z"
       style="font-size:100.67114258px;font-family:yrsa;text-anchor:middle;fill:#00c2c8;fill-opacity:1;stroke-width:1.00671136"
       id="path2055" />
    <path
       d="m 158.40199,276.16851 q -2.01343,0 -4.22819,-0.20134 -2.21477,-0.10067 -4.32886,-0.50335 v -4.63088 q 4.32886,-0.40268 7.65101,-1.10738 3.32214,-0.60403 5.83892,-2.11409 2.51678,-1.4094 4.42953,-3.92618 2.01343,-2.51678 3.62416,-6.44295 h -3.72483 l -13.28859,-35.2349 q -0.30201,-0.7047 -0.90604,-1.20805 -0.50335,-0.50336 -1.30872,-0.7047 l -3.02014,-0.90604 v -3.52349 h 19.83222 v 3.52349 l -6.24161,1.20805 10.97315,30.40269 9.56376,-30.50336 -5.9396,-1.10738 v -3.52349 h 15.90604 v 3.52349 l -3.02013,0.90604 q -0.80537,0.20134 -1.4094,0.7047 -0.50335,0.40268 -0.80537,1.30872 l -12.48322,36.74497 q -3.02013,8.85906 -6.94631,13.08725 -3.8255,4.22818 -10.16778,4.22818 z"
       style="font-size:100.67114258px;font-family:yrsa;text-anchor:middle;fill:#00c2c8;fill-opacity:1;stroke-width:1.00671136"
       id="path2057" />
  </g>
  <g
     aria-label="cf"
     style="font-size:55.36912537px;font-family:yrsa;text-anchor:middle;fill:#00c2c8;fill-opacity:1;stroke-width:1.00671136"
     id="text6">
    <path
       d="m 161.55459,246.85624 q 0,-2.65772 0.7198,-4.92785 0.7198,-2.27014 2.10403,-3.87584 1.38423,-1.66108 3.48825,-2.60235 2.10403,-0.94128 4.81712,-0.94128 1.88255,0 3.82047,0.44296 1.99329,0.44295 3.21141,1.05201 0.11073,1.55034 -0.0554,3.37752 -0.11074,1.82718 -0.33222,3.37751 h -2.21476 l -0.88591,-3.37751 q -0.11074,-0.55369 -0.27684,-0.94128 -0.16611,-0.38758 -0.5537,-0.7198 -0.49832,-0.38758 -1.32885,-0.66443 -0.77517,-0.27684 -1.82719,-0.27684 -2.82382,0 -4.37416,2.27013 -1.55033,2.27014 -1.55033,6.86577 0,4.81712 1.77181,7.19799 1.77181,2.38087 4.92785,2.38087 1.88255,0 3.32215,-0.7198 1.49497,-0.7198 2.43624,-1.71644 l 1.21812,1.05201 q -0.94127,2.04866 -3.10067,3.21141 -2.15939,1.16276 -5.14933,1.16276 -5.03859,0 -7.64094,-3.26678 -2.54698,-3.32215 -2.54698,-8.36074 z"
       style="font-size:55.36912537px;font-family:yrsa;text-anchor:middle;fill:#00c2c8;fill-opacity:1;stroke-width:1.00671136"
       id="path2040" />
    <path
       d="m 187.69747,232.84785 q 0,-2.27013 0.83054,-4.26342 0.83054,-2.04866 2.1594,-3.48826 1.38422,-1.49496 3.0453,-2.3255 1.71644,-0.88591 3.43288,-0.88591 1.32886,0 2.60235,0.44296 1.32886,0.38758 2.54698,1.10738 l -0.7198,2.82382 q -1.16275,-0.22147 -2.43624,-0.33221 -1.27349,-0.16611 -2.21476,-0.16611 -2.60235,0.0554 -3.82047,1.21812 -1.16275,1.16275 -1.16275,4.15269 v 4.04194 h 6.8104 v 2.76846 h -6.8104 v 16.44463 q 0,0.55369 0.27684,0.88591 0.27685,0.27684 0.83054,0.33221 l 4.26342,0.38758 v 2.04866 h -13.23322 v -2.04866 l 2.43624,-0.38758 q 0.55369,-0.0554 0.83054,-0.33221 0.27684,-0.33222 0.27684,-0.88591 v -16.27852 l -3.98657,-0.49833 v -1.88255 l 4.04194,-0.55369 z"
       style="font-size:55.36912537px;font-family:yrsa;text-anchor:middle;fill:#00c2c8;fill-opacity:1;stroke-width:1.00671136"
       id="path2042" />
  </g>
  <g
     aria-label="ga"
     transform="rotate(-30)"
     style="font-size:55.36912537px;font-family:yrsa;text-anchor:middle;fill:#00c2c8;fill-opacity:1;stroke-width:1.00671136"
     id="text8">
    <path
       d="m -53.205231,161.12306 q 0,2.93457 1.162751,4.4849 1.218121,1.49497 3.875839,1.49497 2.325503,0 3.488255,-1.32886 1.218121,-1.38423 1.218121,-4.37416 0,-3.10067 -1.218121,-4.4849 -1.218121,-1.4396 -3.7651,-1.4396 -1.993289,0 -3.377517,1.16275 -1.384228,1.16276 -1.384228,4.4849 z m 16.998321,18.16108 q 0,1.93792 -0.941275,3.54362 -0.941275,1.60571 -2.602349,2.71309 -1.661074,1.16275 -3.986577,1.77181 -2.325503,0.60906 -5.093959,0.60906 -4.817114,0 -7.197987,-1.77181 -2.380872,-1.77181 -2.380872,-4.59564 0,-2.04866 1.052013,-3.37752 1.107383,-1.32885 2.823826,-2.10402 -0.996645,-0.55369 -1.494967,-1.38423 -0.498322,-0.83054 -0.498322,-1.99329 0,-1.6057 0.885906,-2.60235 0.885906,-1.05201 2.104027,-1.66107 -1.937919,-0.88591 -3.045302,-2.60235 -1.052013,-1.71644 -1.052013,-4.20805 0,-2.10403 0.775167,-3.70974 0.775168,-1.6057 2.048658,-2.60234 1.328859,-1.05202 3.100671,-1.55034 1.771812,-0.49832 3.765101,-0.49832 1.937919,0 3.543624,0.49832 1.661073,0.49832 2.768456,1.4396 0.941275,-0.88591 1.88255,-1.38423 0.996644,-0.55369 1.993289,-0.55369 0.498322,0 1.107382,0.16611 0.609061,0.11073 1.162752,0.22147 v 3.26678 h -4.651007 q 0.498322,0.83054 0.775168,1.88255 0.276846,0.99664 0.276846,2.21477 0,3.7651 -2.602349,6.0906 -2.602349,2.27013 -7.031879,2.27013 -0.830537,0 -1.605705,-0.0554 -0.775167,-0.11073 -1.494966,-0.27684 -0.553691,0.38758 -0.885906,0.94127 -0.332215,0.5537 -0.332215,1.27349 0,1.21812 1.052014,1.77182 1.107382,0.49832 3.488254,0.49832 h 4.927853 q 3.654362,0 5.481543,1.55033 1.88255,1.49497 1.88255,4.20806 z m -11.848993,6.25671 q 3.377517,0 5.481544,-1.38423 2.159396,-1.32886 2.159396,-4.09732 0,-1.49496 -0.941275,-2.3255 -0.885906,-0.83054 -3.432886,-0.83054 h -5.149329 q -0.719798,0 -1.439597,-0.0554 -0.66443,-0.0554 -1.218121,-0.16611 -0.719798,0.7198 -1.162751,1.71644 -0.442954,1.05201 -0.442954,2.43624 0,2.04866 1.32886,3.37752 1.328859,1.32886 4.817113,1.32886 z"
       style="font-size:55.36912537px;font-family:yrsa;text-anchor:middle;fill:#00c2c8;fill-opacity:1;stroke-width:1.00671136"
       id="path2035" />
    <path
       d="m -24.588045,174.41165 q 1.439597,0 2.934563,-0.49832 1.494967,-0.55369 2.54698,-1.4396 v -5.42617 l -3.875839,0.38758 q -2.436241,0.16611 -3.7651,1.10739 -1.27349,0.8859 -1.27349,2.76845 0,1.4396 0.830537,2.27014 0.885906,0.83053 2.602349,0.83053 z m 9.302013,2.71309 q -1.439598,0 -2.380873,-0.7198 -0.941275,-0.77517 -1.27349,-2.15939 -1.273489,1.38422 -3.211409,2.21476 -1.88255,0.77517 -3.986577,0.77517 -2.768456,0 -4.651006,-1.38423 -1.827182,-1.4396 -1.827182,-4.15268 0,-1.77182 0.775168,-2.93457 0.830537,-1.16275 2.104027,-1.88255 1.27349,-0.7198 2.879194,-1.05201 1.605705,-0.38758 3.156041,-0.49832 l 4.595637,-0.38759 v -2.71308 q 0,-3.15604 -1.27349,-4.37416 -1.218121,-1.27349 -3.7651,-1.27349 -1.882551,0 -3.598994,0.60906 -1.716442,0.60906 -3.15604,1.99328 l -1.052013,-0.99664 q 0.830537,-2.38087 3.322147,-3.59899 2.54698,-1.21812 5.70302,-1.21812 3.986577,0 5.979866,2.04865 2.048658,2.04866 2.048658,6.20135 v 11.35067 q 0,0.66443 0.276845,0.99664 0.332215,0.27685 0.941275,0.33222 l 2.270134,0.22147 v 1.88255 q -0.553691,0.16611 -1.771812,0.44296 -1.162751,0.27684 -2.104026,0.27684 z"
       style="font-size:55.36912537px;font-family:yrsa;text-anchor:middle;fill:#00c2c8;fill-opacity:1;stroke-width:1.00671136"
       id="path2037" />
  </g>
  <g
     aria-label="gq"
     transform="rotate(30)"
     style="font-size:55.36912537px;font-family:yrsa;text-anchor:middle;fill:#00c2c8;fill-opacity:1;stroke-width:1.00671136"
     id="text10">
    <path
       d="m 65.424265,24.344316 q 0,2.934564 1.162751,4.484899 1.218121,1.494967 3.875839,1.494967 2.325503,0 3.488255,-1.328859 1.218121,-1.384228 1.218121,-4.374161 0,-3.100671 -1.218121,-4.484899 -1.218121,-1.439598 -3.765101,-1.439598 -1.993288,0 -3.377516,1.162752 -1.384228,1.162752 -1.384228,4.484899 z m 16.998321,18.161073 q 0,1.93792 -0.941275,3.543624 -0.941275,1.605705 -2.602349,2.713087 -1.661074,1.162752 -3.986577,1.771813 -2.325503,0.60906 -5.093959,0.60906 -4.817114,0 -7.197987,-1.771812 -2.380872,-1.771812 -2.380872,-4.595638 0,-2.048657 1.052013,-3.377516 1.107383,-1.328859 2.823826,-2.104027 -0.996645,-0.553691 -1.494967,-1.384228 -0.498322,-0.830537 -0.498322,-1.993289 0,-1.605704 0.885906,-2.602348 0.885906,-1.052014 2.104027,-1.661074 -1.93792,-0.885906 -3.045302,-2.602349 -1.052013,-1.716443 -1.052013,-4.208054 0,-2.104026 0.775167,-3.709731 0.775168,-1.605705 2.048658,-2.602349 1.328859,-1.052013 3.100671,-1.550335 1.771812,-0.498323 3.765101,-0.498323 1.937919,0 3.543624,0.498323 1.661073,0.498322 2.768456,1.439597 0.941275,-0.885906 1.88255,-1.384228 0.996644,-0.553692 1.993289,-0.553692 0.498322,0 1.107382,0.166108 0.60906,0.110738 1.162752,0.221476 v 3.266779 h -4.651007 q 0.498322,0.830537 0.775168,1.88255 0.276846,0.996644 0.276846,2.214765 0,3.7651 -2.602349,6.090604 -2.602349,2.270134 -7.031879,2.270134 -0.830537,0 -1.605705,-0.05537 -0.775168,-0.110738 -1.494966,-0.276846 -0.553692,0.387584 -0.885906,0.941275 -0.332215,0.553692 -0.332215,1.27349 0,1.218121 1.052013,1.771812 Q 67.749768,36.747 70.13064,36.747 h 4.927852 q 3.654363,0 5.481544,1.550336 1.88255,1.494966 1.88255,4.208053 z M 70.573593,48.7621 q 3.377517,0 5.481544,-1.384228 2.159396,-1.328859 2.159396,-4.097315 0,-1.494966 -0.941276,-2.325503 -0.885906,-0.830537 -3.432885,-0.830537 h -5.149329 q -0.719799,0 -1.439597,-0.05537 -0.66443,-0.05537 -1.218121,-0.166108 -0.719799,0.719799 -1.162752,1.716443 -0.442953,1.052014 -0.442953,2.436242 0,2.048657 1.328859,3.377516 1.328859,1.328859 4.817114,1.328859 z"
       style="font-size:55.36912537px;font-family:yrsa;text-anchor:middle;fill:#00c2c8;fill-opacity:1;stroke-width:1.00671136"
       id="path2030" />
    <path
       d="M 108.89076,49.980221 H 97.152503 v -2.048657 l 3.432887,-0.387584 q 0.55369,-0.05537 0.83054,-0.387584 0.27684,-0.276846 0.27684,-0.775168 v -8.803691 q -1.16275,1.218121 -2.823824,2.048658 -1.661074,0.830537 -3.765101,0.830537 -3.820469,0 -6.533556,-2.657718 -2.657718,-2.713087 -2.657718,-8.637584 0,-6.145973 3.211409,-9.412751 3.266778,-3.266779 8.305369,-3.266779 1.494966,0 2.934561,0.332215 1.4396,0.332215 2.60235,0.885906 l 2.21477,-1.107382 0.83053,0.719798 v 29.068791 q 0,0.498322 0.27685,0.830537 0.27684,0.332215 0.77517,0.387584 l 1.82718,0.332215 z M 96.543443,37.522168 q 1.494966,0 2.768456,-0.498322 1.328861,-0.498322 2.380871,-1.328859 V 20.136263 q -0.77517,-0.66443 -1.882549,-0.996645 -1.052013,-0.332214 -2.270134,-0.332214 -2.934564,0 -4.983221,2.159396 -1.993289,2.104026 -1.993289,7.419462 0,5.315436 1.771812,7.253356 1.771812,1.88255 4.208054,1.88255 z"
       style="font-size:55.36912537px;font-family:yrsa;text-anchor:middle;fill:#00c2c8;fill-opacity:1;stroke-width:1.00671136"
       id="path2032" />
  </g>
  <g
     aria-label="om"
     transform="rotate(-30)"
     style="font-size:32.21476364px;font-family:yrsa;text-anchor:middle;fill:#00c2c8;fill-opacity:1;stroke-width:1.00671136"
     id="text12">
    <path
       d="m 95.306668,173.56606 q 0,-1.83624 0.515437,-3.18926 0.515436,-1.35302 1.385234,-2.1906 0.869799,-0.8698 2.02953,-1.28859 1.191951,-0.41879 2.512751,-0.41879 3.12483,0 4.54228,1.93288 1.44967,1.90067 1.44967,4.99329 0,1.83624 -0.51544,3.18926 -0.48322,1.32081 -1.35302,2.1906 -0.8698,0.83759 -2.06174,1.25638 -1.19195,0.38658 -2.51276,0.38658 -3.092613,0 -4.542277,-1.86846 -1.449665,-1.90067 -1.449665,-4.99329 z m 9.664432,0.0644 q 0,-2.64161 -0.77316,-4.22013 -0.74094,-1.61074 -2.77047,-1.61074 -1.707379,0 -2.544963,1.32081 -0.805369,1.28859 -0.805369,4.18792 0,2.60939 0.74094,4.22013 0.773154,1.57852 2.802682,1.57852 1.70738,0 2.51275,-1.28859 0.83759,-1.28859 0.83759,-4.18792 z"
       style="font-size:32.21476364px;font-family:yrsa;text-anchor:middle;fill:#00c2c8;fill-opacity:1;stroke-width:1.00671136"
       id="path2025" />
    <path
       d="m 116.72143,178.97814 v 1.19195 h -6.47516 v -1.19195 l 1.44966,-0.2255 q 0.28993,-0.0322 0.45101,-0.2255 0.16107,-0.19329 0.16107,-0.51544 v -8.7302 q 0,-0.28993 -0.16107,-0.48322 -0.12886,-0.19329 -0.45101,-0.22551 l -1.64295,-0.2255 v -1.15973 q 0.96644,-0.28993 2.06174,-0.45101 1.0953,-0.16107 1.99732,-0.19329 l 0.451,0.4188 0.16108,1.38523 q 0.90201,-0.99866 2.02953,-1.38523 1.15973,-0.4188 2.35168,-0.4188 1.38523,0 2.1906,0.51544 0.83758,0.48322 1.25637,1.38524 1.03088,-1.09531 2.25504,-1.48188 1.22416,-0.4188 2.38389,-0.4188 2.38389,0 3.25369,1.35302 0.8698,1.32081 0.8698,3.89799 v 6.21745 q 0,0.32215 0.16107,0.51544 0.16108,0.19329 0.45101,0.2255 l 1.48188,0.2255 v 1.19195 h -6.50738 v -1.19195 l 1.25637,-0.2255 q 0.28994,-0.0644 0.45101,-0.2255 0.19329,-0.16108 0.19329,-0.51544 v -5.86309 q 0,-1.99731 -0.57987,-2.93154 -0.54765,-0.93423 -2.12617,-0.93423 -0.80537,0 -1.64295,0.25772 -0.80537,0.25772 -1.57853,0.83758 0.0967,0.48323 0.12886,1.06309 0.0644,0.57987 0.0644,1.22416 v 6.34631 q 0,0.32215 0.16108,0.51544 0.16107,0.16107 0.48322,0.2255 l 1.25637,0.2255 v 1.19195 h -6.31409 v -1.19195 l 1.25637,-0.2255 q 0.28994,-0.0644 0.45101,-0.2255 0.19329,-0.16108 0.19329,-0.51544 v -5.8953 q 0,-1.93289 -0.45101,-2.86712 -0.451,-0.96644 -1.9651,-0.96644 -0.80537,0 -1.70738,0.28993 -0.90201,0.25772 -1.61074,0.77316 v 8.66577 q 0,0.32215 0.12886,0.51544 0.16107,0.16107 0.48322,0.2255 z"
       style="font-size:32.21476364px;font-family:yrsa;text-anchor:middle;fill:#00c2c8;fill-opacity:1;stroke-width:1.00671136"
       id="path2027" />
  </g>
  <g
     aria-label="tk"
     transform="rotate(30)"
     style="font-size:55.36912537px;font-family:yrsa;text-anchor:middle;fill:#00c2c8;fill-opacity:1;stroke-width:1.00671136"
     id="text14">
    <path
       d="m 128.12781,-22.247904 v -14.285234 l -3.48826,-0.442953 v -1.88255 l 2.54698,-0.387584 q 0.55369,-0.05537 0.83054,-0.332215 0.33221,-0.276846 0.38758,-0.775168 l 1.49497,-5.924496 h 2.49161 l 0.0554,6.865771 h 7.5302 v 2.713088 h -7.47483 v 13.011744 q 0,2.657718 0.83054,3.543624 0.8859,0.830537 2.43624,0.830537 1.27349,0 2.3255,-0.442953 1.10738,-0.442953 1.88255,-1.328859 l 1.21812,1.162752 q -0.8859,1.88255 -2.76846,2.879194 -1.88255,0.941275 -4.15268,0.941275 -2.49161,0 -4.31879,-1.27349 -1.82718,-1.273489 -1.82718,-4.872483 z"
       style="font-size:55.36912537px;font-family:yrsa;text-anchor:middle;fill:#00c2c8;fill-opacity:1;stroke-width:1.00671136"
       id="path2020" />
    <path
       d="m 154.70412,-18.593541 v 2.048657 h -11.40604 v -2.048657 l 2.49161,-0.387584 q 0.49832,-0.05537 0.77517,-0.387584 0.27685,-0.332215 0.27685,-0.885906 v -27.85067 q 0,-0.553691 -0.27685,-0.830537 -0.27685,-0.332215 -0.83054,-0.387584 l -2.93456,-0.442953 v -1.827181 q 1.71644,-0.498322 3.82047,-0.775168 2.1594,-0.332215 3.87584,-0.387584 l 0.66443,0.609061 v 25.192952 l 9.08053,-9.855705 -4.04194,-0.664429 v -1.93792 h 10.96309 v 1.93792 l -2.38088,0.553691 q -0.60906,0.05537 -0.99664,0.221477 -0.38759,0.166107 -0.77517,0.553691 l -5.14933,5.370805 q 0.55369,0.775168 1.05202,1.550336 0.55369,0.775167 1.10738,1.827181 l 4.20805,6.976509 q 0.27685,0.553692 0.66443,0.885907 0.38758,0.276845 0.83054,0.387583 l 2.54698,0.553692 v 2.048657 h -6.14598 q -0.83053,0 -1.49496,-0.941275 -0.60906,-0.996644 -1.4396,-2.54698 l -2.27013,-4.318791 q -0.55369,-0.941276 -1.05202,-1.827182 -0.44295,-0.885906 -0.8859,-1.605704 l -3.82047,3.986577 v 3.543624 q 0,0.553691 0.27684,0.885906 0.27685,0.332215 0.83054,0.387584 z"
       style="font-size:55.36912537px;font-family:yrsa;text-anchor:middle;fill:#00c2c8;fill-opacity:1;stroke-width:1.00671136"
       id="path2022" />
  </g>
  <g
     aria-label="cc"
     transform="rotate(-30)"
     style="font-size:32.21476364px;font-family:yrsa;text-anchor:middle;fill:#00c2c8;fill-opacity:1;stroke-width:1.00671136"
     id="text16">
    <path
       d="m 91.969966,327.67102 q 0,-1.54631 0.418792,-2.86711 0.418792,-1.32081 1.224161,-2.25503 0.80537,-0.96645 2.029531,-1.5141 1.224161,-0.54765 2.802684,-0.54765 1.095302,0 2.222816,0.25772 1.15973,0.25772 1.86846,0.61208 0.0644,0.90201 -0.0322,1.9651 -0.0644,1.06309 -0.19328,1.9651 h -1.28859 l -0.51544,-1.9651 q -0.0644,-0.32215 -0.16107,-0.54765 -0.0966,-0.2255 -0.32215,-0.41879 -0.289935,-0.22551 -0.773157,-0.38658 -0.451007,-0.16107 -1.063087,-0.16107 -1.642953,0 -2.544966,1.3208 -0.902014,1.32081 -0.902014,3.99463 0,2.80269 1.030873,4.18792 1.030872,1.38524 2.867114,1.38524 1.095302,0 1.932887,-0.4188 0.8698,-0.41879 1.41745,-0.99865 l 0.70872,0.61208 q -0.54765,1.19194 -1.80402,1.86845 -1.25638,0.67651 -2.995977,0.67651 -2.931544,0 -4.445637,-1.90067 -1.48188,-1.93288 -1.48188,-4.86443 z"
       style="font-size:32.21476364px;font-family:yrsa;text-anchor:middle;fill:#00c2c8;fill-opacity:1;stroke-width:1.00671136"
       id="path2015" />
    <path
       d="m 105.18305,327.67102 q 0,-1.54631 0.4188,-2.86711 0.41879,-1.32081 1.22416,-2.25503 0.80537,-0.96645 2.02953,-1.5141 1.22416,-0.54765 2.80268,-0.54765 1.0953,0 2.22282,0.25772 1.15973,0.25772 1.86846,0.61208 0.0644,0.90201 -0.0322,1.9651 -0.0644,1.06309 -0.19329,1.9651 h -1.28859 l -0.51543,-1.9651 q -0.0644,-0.32215 -0.16108,-0.54765 -0.0966,-0.2255 -0.32215,-0.41879 -0.28993,-0.22551 -0.77315,-0.38658 -0.45101,-0.16107 -1.06309,-0.16107 -1.64295,0 -2.54496,1.3208 -0.90202,1.32081 -0.90202,3.99463 0,2.80269 1.03088,4.18792 1.03087,1.38524 2.86711,1.38524 1.0953,0 1.93289,-0.4188 0.86979,-0.41879 1.41745,-0.99865 l 0.70872,0.61208 q -0.54765,1.19194 -1.80403,1.86845 -1.25637,0.67651 -2.99597,0.67651 -2.93154,0 -4.44564,-1.90067 -1.48188,-1.93288 -1.48188,-4.86443 z"
       style="font-size:32.21476364px;font-family:yrsa;text-anchor:middle;fill:#00c2c8;fill-opacity:1;stroke-width:1.00671136"
       id="path2017" />
  </g>
  <g
     aria-label="cm"
     transform="rotate(-15)"
     style="font-size:32.21476364px;font-family:yrsa;text-anchor:middle;fill:#00c2c8;fill-opacity:1;stroke-width:1.00671136"
     id="text18">
    <path
       d="m 74.042266,136.07778 q 0,-1.54631 0.418792,-2.86712 0.418792,-1.3208 1.224161,-2.25503 0.805369,-0.96644 2.02953,-1.51409 1.224161,-0.54766 2.802684,-0.54766 1.095302,0 2.222819,0.25772 1.159731,0.25772 1.868456,0.61208 0.06443,0.90202 -0.03221,1.9651 -0.06443,1.06309 -0.193289,1.9651 h -1.288591 l -0.515436,-1.9651 q -0.06443,-0.32214 -0.161074,-0.54765 -0.09664,-0.2255 -0.322147,-0.41879 -0.289933,-0.2255 -0.773155,-0.38658 -0.451006,-0.16107 -1.063087,-0.16107 -1.642953,0 -2.544966,1.32081 -0.902014,1.3208 -0.902014,3.99463 0,2.80268 1.030873,4.18792 1.030872,1.38523 2.867114,1.38523 1.095302,0 1.932886,-0.41879 0.869798,-0.41879 1.417449,-0.99866 l 0.708725,0.61208 q -0.547651,1.19195 -1.804027,1.86846 -1.256375,0.67651 -2.995973,0.67651 -2.931543,0 -4.445637,-1.90067 -1.481879,-1.93289 -1.481879,-4.86443 z"
       style="font-size:32.21476364px;font-family:yrsa;text-anchor:middle;fill:#00c2c8;fill-opacity:1;stroke-width:1.00671136"
       id="path2010" />
    <path
       d="m 93.601661,141.39321 v 1.19195 h -6.475167 v -1.19195 l 1.449664,-0.2255 q 0.289933,-0.0322 0.451007,-0.2255 0.161074,-0.19329 0.161074,-0.51544 v -8.7302 q 0,-0.28993 -0.161074,-0.48322 -0.128859,-0.19329 -0.451007,-0.22551 l -1.642953,-0.2255 v -1.15973 q 0.966443,-0.28993 2.061745,-0.45101 1.095302,-0.16107 1.997315,-0.19329 l 0.451007,0.4188 0.161074,1.38523 q 0.902013,-0.99866 2.02953,-1.38523 1.159732,-0.4188 2.351678,-0.4188 1.385235,0 2.190604,0.51544 0.837584,0.48322 1.256376,1.38524 1.030876,-1.09531 2.255036,-1.48188 1.22416,-0.4188 2.38389,-0.4188 2.38389,0 3.25369,1.35302 0.8698,1.32081 0.8698,3.89799 v 6.21745 q 0,0.32215 0.16107,0.51544 0.16108,0.19328 0.45101,0.2255 l 1.48188,0.2255 v 1.19195 h -6.50738 v -1.19195 l 1.25637,-0.2255 q 0.28994,-0.0644 0.45101,-0.2255 0.19329,-0.16108 0.19329,-0.51544 v -5.86309 q 0,-1.99731 -0.57987,-2.93154 -0.54765,-0.93423 -2.12617,-0.93423 -0.80537,0 -1.64296,0.25772 -0.80536,0.25772 -1.578519,0.83758 0.09664,0.48322 0.128859,1.06309 0.06443,0.57987 0.06443,1.22416 v 6.34631 q 0,0.32215 0.16107,0.51544 0.16108,0.16107 0.48323,0.2255 l 1.25637,0.2255 v 1.19195 h -6.314093 v -1.19195 l 1.256376,-0.2255 q 0.289933,-0.0644 0.451007,-0.2255 0.193288,-0.16108 0.193288,-0.51544 v -5.8953 q 0,-1.93289 -0.451006,-2.86712 -0.451007,-0.96644 -1.965101,-0.96644 -0.805369,0 -1.707383,0.28993 -0.902013,0.25772 -1.610738,0.77316 v 8.66577 q 0,0.32215 0.128859,0.51544 0.161074,0.16107 0.483222,0.2255 z"
       style="font-size:32.21476364px;font-family:yrsa;text-anchor:middle;fill:#00c2c8;fill-opacity:1;stroke-width:1.00671136"
       id="path2012" />
  </g>
  <g
     aria-label="co"
     transform="rotate(15)"
     style="font-size:32.21476364px;font-family:yrsa;text-anchor:middle;fill:#00c2c8;fill-opacity:1;stroke-width:1.00671136"
     id="text20">
    <path
       d="m 181.16942,217.28437 q 0,-1.54631 0.41879,-2.86712 0.41879,-1.3208 1.22416,-2.25503 0.80537,-0.96644 2.02953,-1.5141 1.22416,-0.54765 2.80268,-0.54765 1.09531,0 2.22282,0.25772 1.15973,0.25772 1.86846,0.61208 0.0644,0.90202 -0.0322,1.9651 -0.0644,1.06309 -0.19328,1.9651 h -1.28859 l -0.51544,-1.9651 q -0.0644,-0.32214 -0.16107,-0.54765 -0.0967,-0.2255 -0.32215,-0.41879 -0.28994,-0.2255 -0.77316,-0.38658 -0.451,-0.16107 -1.06308,-0.16107 -1.64296,0 -2.54497,1.3208 -0.90201,1.32081 -0.90201,3.99463 0,2.80269 1.03087,4.18792 1.03087,1.38524 2.86711,1.38524 1.0953,0 1.93289,-0.41879 0.8698,-0.41879 1.41745,-0.99866 l 0.70872,0.61208 q -0.54765,1.19195 -1.80402,1.86846 -1.25638,0.67651 -2.99598,0.67651 -2.93154,0 -4.44563,-1.90067 -1.48188,-1.93289 -1.48188,-4.86443 z"
       style="font-size:32.21476364px;font-family:yrsa;text-anchor:middle;fill:#00c2c8;fill-opacity:1;stroke-width:1.00671136"
       id="path2005" />
    <path
       d="m 194.41472,217.18772 q 0,-1.83624 0.51543,-3.18926 0.51544,-1.35302 1.38524,-2.1906 0.8698,-0.8698 2.02953,-1.28859 1.19195,-0.4188 2.51275,-0.4188 3.12483,0 4.54228,1.93289 1.44967,1.90067 1.44967,4.99329 0,1.83624 -0.51544,3.18926 -0.48322,1.3208 -1.35302,2.1906 -0.8698,0.83759 -2.06174,1.25638 -1.19195,0.38658 -2.51276,0.38658 -3.09261,0 -4.54228,-1.86846 -1.44966,-1.90067 -1.44966,-4.99329 z m 9.66443,0.0644 q 0,-2.64161 -0.77316,-4.22013 -0.74094,-1.61074 -2.77047,-1.61074 -1.70738,0 -2.54496,1.3208 -0.80537,1.28859 -0.80537,4.18792 0,2.6094 0.74094,4.22014 0.77315,1.57852 2.80268,1.57852 1.70738,0 2.51275,-1.28859 0.83759,-1.28859 0.83759,-4.18792 z"
       style="font-size:32.21476364px;font-family:yrsa;text-anchor:middle;fill:#00c2c8;fill-opacity:1;stroke-width:1.00671136"
       id="path2007" />
  </g>
  <g
     aria-label="ms"
     transform="rotate(-30)"
     style="font-size:32.21476364px;font-family:yrsa;text-anchor:middle;fill:#00c2c8;fill-opacity:1;stroke-width:1.00671136"
     id="text22">
    <path
       d="m 22.715256,189.44633 v 1.19195 h -6.475167 v -1.19195 l 1.449664,-0.2255 q 0.289933,-0.0322 0.451007,-0.22551 0.161074,-0.19329 0.161074,-0.51543 v -8.7302 q 0,-0.28994 -0.161074,-0.48323 -0.128859,-0.19329 -0.451007,-0.2255 l -1.642953,-0.2255 v -1.15973 q 0.966443,-0.28994 2.061745,-0.45101 1.095302,-0.16108 1.997316,-0.19329 l 0.451006,0.41879 0.161074,1.38524 q 0.902013,-0.99866 2.02953,-1.38524 1.159732,-0.41879 2.351678,-0.41879 1.385235,0 2.190604,0.51544 0.837584,0.48322 1.256376,1.38523 1.030872,-1.0953 2.255033,-1.48188 1.224161,-0.41879 2.383893,-0.41879 2.383892,0 3.253691,1.35302 0.869798,1.32081 0.869798,3.89799 v 6.21745 q 0,0.32214 0.161074,0.51543 0.161074,0.19329 0.451007,0.22551 l 1.481879,0.2255 v 1.19195 h -6.507382 v -1.19195 l 1.256376,-0.2255 q 0.289932,-0.0644 0.451006,-0.22551 0.193289,-0.16107 0.193289,-0.51543 v -5.86309 q 0,-1.99732 -0.579866,-2.93154 -0.547651,-0.93423 -2.126174,-0.93423 -0.805369,0 -1.642953,0.25772 -0.805369,0.25771 -1.578524,0.83758 0.09664,0.48322 0.128859,1.06309 0.06443,0.57986 0.06443,1.22416 v 6.34631 q 0,0.32214 0.161074,0.51543 0.161074,0.16108 0.483221,0.22551 l 1.256376,0.2255 v 1.19195 h -6.314094 v -1.19195 l 1.256376,-0.2255 q 0.289933,-0.0644 0.451007,-0.22551 0.193288,-0.16107 0.193288,-0.51543 v -5.89531 q 0,-1.93288 -0.451006,-2.86711 -0.451007,-0.96644 -1.965101,-0.96644 -0.805369,0 -1.707382,0.28993 -0.902014,0.25772 -1.610739,0.77315 v 8.66578 q 0,0.32214 0.128859,0.51543 0.161074,0.16108 0.483222,0.22551 z"
       style="font-size:32.21476364px;font-family:yrsa;text-anchor:middle;fill:#00c2c8;fill-opacity:1;stroke-width:1.00671136"
       id="path2000" />
    <path
       d="m 41.573476,189.92955 q -0.128859,-0.96644 -0.09664,-1.86846 0.03222,-0.93422 0.128859,-1.73959 h 1.35302 l 0.483222,1.77181 q 0.09664,0.38658 0.193288,0.61208 0.128859,0.19329 0.354362,0.35436 0.322148,0.19329 0.966443,0.41879 0.644296,0.22551 1.48188,0.22551 1.224161,0 1.836241,-0.54765 0.644295,-0.57987 0.644295,-1.5141 0,-1.12751 -0.934228,-1.67517 -0.934228,-0.54765 -2.673825,-1.25637 -1.578524,-0.6443 -2.609396,-1.44967 -0.998658,-0.83758 -0.998658,-2.44832 0,-1.90067 1.385235,-2.86711 1.385235,-0.99866 3.575839,-0.99866 1.030872,0 2.126174,0.2255 1.095302,0.22551 1.836242,0.54765 0.03222,0.83759 -0.03222,1.70739 -0.06443,0.8698 -0.225503,1.73959 h -1.256376 l -0.386577,-1.64295 q -0.06443,-0.32215 -0.193289,-0.51543 -0.128859,-0.22551 -0.451007,-0.4188 -0.257718,-0.12886 -0.67651,-0.25771 -0.418791,-0.12886 -0.966442,-0.16108 -1.030873,-0.0322 -1.707383,0.45101 -0.67651,0.48322 -0.67651,1.48188 0,1.19194 0.934228,1.70738 0.966443,0.48322 2.126175,0.93423 0.805369,0.32215 1.546308,0.67651 0.773155,0.35436 1.35302,0.83758 0.612081,0.48322 0.966443,1.15973 0.354363,0.67651 0.354363,1.57853 0,1.86845 -1.449665,2.89933 -1.449664,1.03087 -3.769127,1.03087 -1.385235,0 -2.577181,-0.32215 -1.191946,-0.35436 -1.965101,-0.67651 z"
       style="font-size:32.21476364px;font-family:yrsa;text-anchor:middle;fill:#00c2c8;fill-opacity:1;stroke-width:1.00671136"
       id="path2002" />
  </g>
  <g
     aria-label="vn"
     transform="rotate(-15)"
     style="font-size:32.21476364px;font-family:yrsa;text-anchor:middle;fill:#00c2c8;fill-opacity:1;stroke-width:1.00671136"
     id="text24">
    <path
       d="M 200.40906,265.41717 195.899,253.91649 q -0.0967,-0.2255 -0.25772,-0.38657 -0.16108,-0.16108 -0.41879,-0.22551 l -0.8698,-0.25771 v -1.12752 h 6.24966 v 1.12752 l -2.02953,0.35436 3.41477,9.53557 3.2859,-9.53557 -2.02953,-0.35436 v -1.12752 h 5.08993 v 1.12752 l -0.86979,0.25771 q -0.22551,0.0644 -0.4188,0.22551 -0.19329,0.12886 -0.28993,0.38657 l -4.1557,11.50068 z"
       style="font-size:32.21476364px;font-family:yrsa;text-anchor:middle;fill:#00c2c8;fill-opacity:1;stroke-width:1.00671136"
       id="path1995" />
    <path
       d="m 216.32869,264.03193 v 1.19195 h -6.50738 v -1.19195 l 1.41745,-0.2255 q 0.32215,-0.0322 0.48322,-0.22551 0.16107,-0.19328 0.16107,-0.51543 v -8.7302 q 0,-0.28994 -0.16107,-0.48322 -0.12886,-0.19329 -0.45101,-0.22551 l -1.64295,-0.2255 v -1.15973 q 0.96644,-0.28994 2.06175,-0.45101 1.0953,-0.16107 1.99731,-0.19329 l 0.45101,0.41879 0.16107,1.44967 q 0.99866,-1.03087 2.19061,-1.44967 1.19194,-0.41879 2.48053,-0.41879 2.31947,0 3.15705,1.35302 0.83758,1.35302 0.83758,3.76913 v 6.34631 q 0,0.32215 0.16108,0.51543 0.19329,0.19329 0.48322,0.22551 l 1.44966,0.2255 v 1.19195 h -6.50738 v -1.19195 l 1.28859,-0.2255 q 0.28993,-0.0644 0.45101,-0.22551 0.19329,-0.16107 0.19329,-0.51543 v -5.8953 q 0,-1.93289 -0.54765,-2.86712 -0.51544,-0.96644 -2.02953,-0.96644 -0.96645,0 -1.86846,0.28993 -0.8698,0.28993 -1.64295,0.8698 v 8.56913 q 0,0.32215 0.16107,0.51543 0.16107,0.16108 0.45101,0.22551 z"
       style="font-size:32.21476364px;font-family:yrsa;text-anchor:middle;fill:#00c2c8;fill-opacity:1;stroke-width:1.00671136"
       id="path1997" />
  </g>
  <g
     aria-label="cn"
     transform="rotate(15)"
     style="font-size:43.80810928px;font-family:yrsa;text-anchor:middle;fill:#00c2c8;fill-opacity:1;stroke-width:1.36900342"
     id="text26">
    <path
       d="m 214.9753,-6.3182141 q 0,-2.1027892 0.56951,-3.8989219 0.5695,-1.796132 1.66471,-3.066567 1.0952,-1.314244 2.75991,-2.058982 1.66471,-0.744737 3.8113,-0.744737 1.48948,0 3.02276,0.350464 1.57709,0.350465 2.54087,0.832354 0.0876,1.226628 -0.0438,2.672295 -0.0876,1.445668 -0.26285,2.6722948 h -1.75233 l -0.70093,-2.6722948 q -0.0876,-0.438081 -0.21904,-0.744738 -0.13142,-0.306656 -0.43808,-0.569505 -0.39427,-0.306657 -1.05139,-0.525697 -0.61332,-0.219041 -1.44567,-0.219041 -2.23421,0 -3.46084,1.796132 -1.22663,1.796133 -1.22663,5.432206 0,3.8113056 1.40186,5.6950543 1.40186,1.88374865 3.89892,1.88374865 1.48948,0 2.62849,-0.56950542 1.18282,-0.56950542 1.92756,-1.35805143 l 0.96377,0.83235412 q -0.74473,1.62090008 -2.45325,2.54087038 -1.70852,0.9199703 -4.07415,0.9199703 -3.98654,0 -6.04552,-2.58467849 -2.01518,-2.62848661 -2.01518,-6.61502451 z"
       style="font-size:43.80810928px;font-family:yrsa;text-anchor:middle;fill:#00c2c8;fill-opacity:1;stroke-width:1.36900342"
       id="path1990" />
    <path
       d="M 241.61748,0.91012394 V 2.531024 h -8.84924 V 0.91012394 l 1.92756,-0.30665677 q 0.43808,-0.0438081 0.65712,-0.30665676 0.21904,-0.26284866 0.21904,-0.70092975 V -12.276117 q 0,-0.394273 -0.21904,-0.657122 -0.17523,-0.262848 -0.61331,-0.306656 l -2.23422,-0.306657 v -1.577092 q 1.31425,-0.394273 2.80372,-0.613314 1.48948,-0.21904 2.7161,-0.262848 l 0.61332,0.569505 0.21904,1.971365 q 1.35805,-1.401859 2.97895,-1.971365 1.6209,-0.569505 3.37322,-0.569505 3.15419,0 4.2932,1.83994 1.13901,1.839941 1.13901,5.1255491 v 8.63019756 q 0,0.43808109 0.21904,0.70092975 0.26285,0.26284865 0.65712,0.30665676 l 1.97137,0.30665677 V 2.531024 h -8.84924 V 0.91012394 l 1.75232,-0.30665677 q 0.39428,-0.0876162 0.61332,-0.30665676 0.26285,-0.21904055 0.26285,-0.70092975 V -8.4210033 q 0,-2.6284867 -0.74474,-3.8989217 -0.70093,-1.314243 -2.75991,-1.314243 -1.31425,0 -2.54087,0.394273 -1.18282,0.394273 -2.23422,1.182819 v 11.65295666 q 0,0.43808109 0.21904,0.70092975 0.21904,0.21904054 0.61332,0.30665676 z"
       style="font-size:43.80810928px;font-family:yrsa;text-anchor:middle;fill:#00c2c8;fill-opacity:1;stroke-width:1.36900342"
       id="path1992" />
  </g>
  <g
     aria-label="ws"
     transform="rotate(-15)"
     style="font-size:32.21476364px;font-family:yrsa;text-anchor:middle;fill:#00c2c8;fill-opacity:1;stroke-width:1.00671136"
     id="text28">
    <path
       d="m 151.17489,264.38912 -3.7047,-11.50067 q -0.0644,-0.28993 -0.25772,-0.41879 -0.16107,-0.16108 -0.41879,-0.22551 l -0.74094,-0.2255 v -1.12752 h 5.70202 v 1.12752 l -1.80403,0.35436 2.70604,9.43893 3.02819,-10.92081 h 2.35167 l 2.99598,10.85638 2.60939,-9.3745 -1.83624,-0.35436 v -1.12752 h 4.83222 v 1.12752 l -0.77316,0.2255 q -0.25772,0.0644 -0.451,0.22551 -0.16108,0.16107 -0.25772,0.41879 l -3.4792,11.50067 h -2.15839 l -3.15704,-10.56644 -2.99598,10.56644 z"
       style="font-size:32.21476364px;font-family:yrsa;text-anchor:middle;fill:#00c2c8;fill-opacity:1;stroke-width:1.00671136"
       id="path1985" />
    <path
       d="m 168.32271,263.48711 q -0.12886,-0.96645 -0.0967,-1.86846 0.0322,-0.93423 0.12886,-1.7396 h 1.35302 l 0.48322,1.77181 q 0.0967,0.38658 0.19329,0.61209 0.12886,0.19328 0.35437,0.35436 0.32214,0.19329 0.96644,0.41879 0.64429,0.2255 1.48188,0.2255 1.22416,0 1.83624,-0.54765 0.64429,-0.57986 0.64429,-1.51409 0,-1.12752 -0.93422,-1.67517 -0.93423,-0.54765 -2.67383,-1.25638 -1.57852,-0.64429 -2.60939,-1.44966 -0.99866,-0.83758 -0.99866,-2.44832 0,-1.90067 1.38523,-2.86712 1.38524,-0.99865 3.57584,-0.99865 1.03087,0 2.12618,0.2255 1.0953,0.2255 1.83624,0.54765 0.0322,0.83758 -0.0322,1.70738 -0.0644,0.8698 -0.2255,1.7396 h -1.25638 l -0.38657,-1.64295 q -0.0644,-0.32215 -0.19329,-0.51544 -0.12886,-0.2255 -0.45101,-0.41879 -0.25772,-0.12886 -0.67651,-0.25772 -0.41879,-0.12886 -0.96644,-0.16107 -1.03087,-0.0322 -1.70738,0.451 -0.67651,0.48323 -0.67651,1.48188 0,1.19195 0.93422,1.70739 0.96645,0.48322 2.12618,0.93422 0.80537,0.32215 1.54631,0.67651 0.77315,0.35437 1.35302,0.83759 0.61208,0.48322 0.96644,1.15973 0.35436,0.67651 0.35436,1.57852 0,1.86846 -1.44966,2.89933 -1.44967,1.03087 -3.76913,1.03087 -1.38523,0 -2.57718,-0.32214 -1.19195,-0.35437 -1.9651,-0.67651 z"
       style="font-size:32.21476364px;font-family:yrsa;text-anchor:middle;fill:#00c2c8;fill-opacity:1;stroke-width:1.00671136"
       id="path1987" />
  </g>
  <text
     id="text30"
     style="font-size:10.06711388px;font-family:yrsa;text-anchor:middle;fill:#5254a3;stroke-width:1.00671136"
     transform="rotate(-30)"
     x="-35.103065"
     y="120.16042" />
</svg>
