<?xml version="1.0" encoding="UTF-8" standalone="no"?>
<svg
   xmlns:dc="http://purl.org/dc/elements/1.1/"
   xmlns:cc="http://creativecommons.org/ns#"
   xmlns:rdf="http://www.w3.org/1999/02/22-rdf-syntax-ns#"
   xmlns:svg="http://www.w3.org/2000/svg"
   xmlns="http://www.w3.org/2000/svg"
   xmlns:sodipodi="http://sodipodi.sourceforge.net/DTD/sodipodi-0.dtd"
   xmlns:inkscape="http://www.inkscape.org/namespaces/inkscape"
   width="400"
   height="400"
   version="1.1"
   id="svg32"
   sodipodi:docname="help_wordcloud.svg"
   inkscape:version="0.92.4 (5da689c313, 2019-01-14)">
  <metadata
     id="metadata38">
    <rdf:RDF>
      <cc:Work
         rdf:about="">
        <dc:format>image/svg+xml</dc:format>
        <dc:type
           rdf:resource="http://purl.org/dc/dcmitype/StillImage" />
        <dc:title></dc:title>
      </cc:Work>
    </rdf:RDF>
  </metadata>
  <defs
     id="defs36" />
  <sodipodi:namedview
     pagecolor="#ffffff"
     bordercolor="#666666"
     borderopacity="1"
     objecttolerance="10"
     gridtolerance="10"
     guidetolerance="10"
     inkscape:pageopacity="0"
     inkscape:pageshadow="2"
     inkscape:window-width="1920"
     inkscape:window-height="1055"
     id="namedview34"
     showgrid="false"
     inkscape:zoom="1.2166667"
     inkscape:cx="-120.12579"
     inkscape:cy="214.21354"
     inkscape:window-x="0"
     inkscape:window-y="0"
     inkscape:window-maximized="1"
     inkscape:current-layer="svg32" />
  <g
     id="g2"
     transform="translate(0,-200)" />
  <g
     aria-label="Help"
     style="font-style:normal;font-variant:normal;font-weight:normal;font-stretch:normal;font-size:93.33333588px;font-family:yrsa;-inkscape-font-specification:'yrsa, Normal';font-variant-ligatures:normal;font-variant-caps:normal;font-variant-numeric:normal;font-feature-settings:normal;text-align:center;writing-mode:lr-tb;text-anchor:middle;fill:#00c2c8;fill-opacity:1"
     id="text4">
    <path
       d="m 195.41169,143.6579 v 3.54667 l -5.41334,1.02666 q -0.93333,0.0933 -1.4,0.74667 -0.37333,0.56 -0.37333,1.49333 v 39.57334 q 0,0.93333 0.37333,1.49333 0.46667,0.56 1.4,0.65333 l 5.41334,1.02667 v 3.45333 h -21.18667 v -3.45333 l 4.57333,-1.02667 q 0.93334,-0.0933 1.4,-0.65333 0.46667,-0.56 0.46667,-1.49333 V 171.6579 h -25.01334 v 18.48 q 0,0.84 0.37334,1.4 0.46667,0.56 1.4,0.65333 l 4.94667,1.02667 v 3.45333 h -21.46667 v -3.45333 l 5.41333,-1.02667 q 0.93333,-0.0933 1.30667,-0.65333 0.46666,-0.56 0.46666,-1.49333 v -39.57334 q 0,-0.93333 -0.46666,-1.49333 -0.46667,-0.65333 -1.30667,-0.74667 l -5.41333,-1.02666 v -3.54667 h 21.46667 v 3.54667 l -5.04,1.02666 q -0.84,0.0933 -1.30667,0.65334 -0.37334,0.56 -0.37334,1.49333 v 16.98667 h 25.01334 V 150.3779 q 0,-0.93333 -0.46667,-1.4 -0.37333,-0.56 -1.30666,-0.74667 l -4.76,-1.02666 v -3.54667 z"
       style="font-style:normal;font-variant:normal;font-weight:normal;font-stretch:normal;font-size:93.33333588px;font-family:yrsa;-inkscape-font-specification:'yrsa, Normal';font-variant-ligatures:normal;font-variant-caps:normal;font-variant-numeric:normal;font-feature-settings:normal;text-align:center;writing-mode:lr-tb;text-anchor:middle;fill:#00c2c8;fill-opacity:1"
       id="path982" />
    <path
       d="m 218.2346,160.83123 q -3.64,0 -6.06667,2.61334 -2.42666,2.52 -3.08,8.12 h 16.98667 q 0.0933,-0.46667 0.0933,-0.84 0.0933,-0.37334 0.0933,-0.84 0,-4.01334 -2.14667,-6.53334 -2.05333,-2.52 -5.88,-2.52 z m 15.02667,27.44 q -1.21333,4.10667 -5.22667,6.62667 -3.92,2.52 -9.8,2.52 -8.68,0 -12.88,-5.50667 -4.2,-5.6 -4.2,-14.18666 0,-9.70667 4.94667,-15.21334 4.94666,-5.50666 13.16,-5.50666 6.25333,0 10.17333,3.45333 4.01334,3.36 4.01334,9.89333 0,0.93334 -0.0933,2.33334 -0.0933,1.30666 -0.28,2.42666 h -24.26667 q 0,0.18667 0,0.46667 0,0.28 0,0.56 0,9.14667 3.26667,12.69333 3.26667,3.54667 8.21334,3.54667 3.26666,0 6.06666,-1.4 2.89334,-1.49333 4.57334,-4.10667 z"
       style="font-style:normal;font-variant:normal;font-weight:normal;font-stretch:normal;font-size:93.33333588px;font-family:yrsa;-inkscape-font-specification:'yrsa, Normal';font-variant-ligatures:normal;font-variant-caps:normal;font-variant-numeric:normal;font-feature-settings:normal;text-align:center;writing-mode:lr-tb;text-anchor:middle;fill:#00c2c8;fill-opacity:1"
       id="path984" />
    <path
       d="m 253.29877,136.75123 v 53.66667 q 0,0.93333 0.46667,1.49333 0.46667,0.56 1.30667,0.65334 l 4.94666,0.74666 v 3.36 h -20.81333 v -3.45333 l 4.94667,-0.65333 q 0.93333,-0.0933 1.4,-0.56 0.46666,-0.56 0.46666,-1.49334 v -47.04 q 0,-0.93333 -0.46666,-1.4 -0.46667,-0.56 -1.4,-0.65333 l -5.13334,-0.74667 v -3.08 q 2.89334,-0.93333 6.53334,-1.4 3.73333,-0.46666 6.62666,-0.56 z"
       style="font-style:normal;font-variant:normal;font-weight:normal;font-stretch:normal;font-size:93.33333588px;font-family:yrsa;-inkscape-font-specification:'yrsa, Normal';font-variant-ligatures:normal;font-variant-caps:normal;font-variant-numeric:normal;font-feature-settings:normal;text-align:center;writing-mode:lr-tb;text-anchor:middle;fill:#00c2c8;fill-opacity:1"
       id="path986" />
    <path
       d="m 284.63252,193.59123 q 5.32,0 8.49333,-3.64 3.17334,-3.64 3.26667,-12.69333 0.0933,-7.56 -2.42667,-11.38667 -2.42666,-3.82666 -7.74666,-3.82666 -2.89334,0 -5.04,1.02666 -2.14667,0.93334 -3.54667,2.14667 v 26.69333 q 1.21333,0.74667 2.98666,1.21334 1.86667,0.46666 4.01334,0.46666 z m 0.56,16.42667 v 3.45333 h -20.81334 v -3.45333 l 4.2,-0.65333 q 0.93334,-0.0933 1.30667,-0.65334 0.46667,-0.46666 0.46667,-1.30666 V 165.2179 q 0,-0.93333 -0.37334,-1.49333 -0.37333,-0.56 -1.30666,-0.65334 l -4.76,-0.65333 v -3.36 q 2.89333,-0.84 5.88,-1.30667 2.98666,-0.46666 5.88,-0.56 l 1.21333,1.21334 0.46667,3.92 q 1.86666,-2.24 4.76,-3.73334 2.89333,-1.58666 7.09333,-1.58666 6.34667,0 10.64,4.48 4.38667,4.38666 4.38667,14 0,10.26666 -5.32,16.14666 -5.22667,5.78667 -14.46667,5.78667 -1.49333,0 -3.36,-0.18667 -1.86667,-0.18666 -3.45333,-0.74666 v 10.92 q 0,0.84 0.46666,1.30666 0.56,0.56 1.4,0.65334 z"
       style="font-style:normal;font-variant:normal;font-weight:normal;font-stretch:normal;font-size:93.33333588px;font-family:yrsa;-inkscape-font-specification:'yrsa, Normal';font-variant-ligatures:normal;font-variant-caps:normal;font-variant-numeric:normal;font-feature-settings:normal;text-align:center;writing-mode:lr-tb;text-anchor:middle;fill:#00c2c8;fill-opacity:1"
       id="path988" />
  </g>
  <g
     aria-label="Hilfe"
     transform="rotate(30)"
     style="font-style:normal;font-variant:normal;font-weight:normal;font-stretch:normal;font-size:53.33333206px;font-family:yrsa;-inkscape-font-specification:'yrsa, Normal';font-variant-ligatures:normal;font-variant-caps:normal;font-variant-numeric:normal;font-feature-settings:normal;text-align:center;writing-mode:lr-tb;text-anchor:middle;fill:#00c2c8;fill-opacity:1"
     id="text6">
    <path
       d="m 136.6623,14.091612 v 2.026667 l -3.09333,0.586667 q -0.53334,0.05333 -0.8,0.426666 -0.21334,0.32 -0.21334,0.853334 v 22.613332 q 0,0.533334 0.21334,0.853334 0.26666,0.32 0.8,0.373333 l 3.09333,0.586667 v 1.973333 h -12.10667 v -1.973333 l 2.61334,-0.586667 q 0.53333,-0.05333 0.8,-0.373333 0.26666,-0.32 0.26666,-0.853334 V 30.091612 H 113.9423 v 10.56 q 0,0.48 0.21333,0.8 0.26667,0.32 0.8,0.373333 l 2.82667,0.586667 v 1.973333 h -12.26667 v -1.973333 l 3.09334,-0.586667 q 0.53333,-0.05333 0.74666,-0.373333 0.26667,-0.32 0.26667,-0.853334 V 17.984946 q 0,-0.533334 -0.26667,-0.853334 -0.26666,-0.373333 -0.74666,-0.426666 l -3.09334,-0.586667 v -2.026667 h 12.26667 v 2.026667 l -2.88,0.586667 q -0.48,0.05333 -0.74667,0.373333 -0.21333,0.32 -0.21333,0.853333 v 9.706667 h 14.29333 v -9.706667 q 0,-0.533333 -0.26666,-0.8 -0.21334,-0.32 -0.74667,-0.426666 l -2.72,-0.586667 v -2.026667 z"
       style="font-style:normal;font-variant:normal;font-weight:normal;font-stretch:normal;font-size:53.33333206px;font-family:yrsa;-inkscape-font-specification:'yrsa, Normal';font-variant-ligatures:normal;font-variant-caps:normal;font-variant-numeric:normal;font-feature-settings:normal;text-align:center;writing-mode:lr-tb;text-anchor:middle;fill:#00c2c8;fill-opacity:1"
       id="path971" />
    <path
       d="m 148.50813,15.851612 q 0,1.226667 -0.8,2.026667 -0.8,0.746667 -2.08,0.746667 -1.28,0 -2.08,-0.746667 -0.8,-0.8 -0.8,-2.026667 0,-1.226666 0.8,-1.973333 0.8,-0.8 2.08,-0.8 1.28,0 2.08,0.8 0.8,0.746667 0.8,1.973333 z m -0.32,6.613333 v 18.346667 q 0,0.533333 0.26667,0.853333 0.26667,0.32 0.8,0.373333 l 2.34667,0.373334 v 1.973333 H 140.6148 v -1.973333 l 2.34667,-0.373334 q 0.53333,-0.05333 0.8,-0.373333 0.26666,-0.32 0.26666,-0.853333 V 26.358279 q 0,-0.48 -0.26666,-0.8 -0.21334,-0.32 -0.74667,-0.373334 l -2.72,-0.373333 v -1.92 q 1.70667,-0.533333 3.68,-0.746667 1.97333,-0.266666 3.62667,-0.32 z"
       style="font-style:normal;font-variant:normal;font-weight:normal;font-stretch:normal;font-size:53.33333206px;font-family:yrsa;-inkscape-font-specification:'yrsa, Normal';font-variant-ligatures:normal;font-variant-caps:normal;font-variant-numeric:normal;font-feature-settings:normal;text-align:center;writing-mode:lr-tb;text-anchor:middle;fill:#00c2c8;fill-opacity:1"
       id="path973" />
    <path
       d="m 162.0323,10.144946 v 30.666666 q 0,0.533333 0.26667,0.853333 0.26666,0.32 0.74666,0.373333 l 2.82667,0.426667 v 1.92 h -11.89333 v -1.973333 l 2.82666,-0.373334 q 0.53334,-0.05333 0.8,-0.32 0.26667,-0.32 0.26667,-0.853333 V 13.984946 q 0,-0.533334 -0.26667,-0.8 -0.26666,-0.32 -0.8,-0.373334 l -2.93333,-0.426666 v -1.76 q 1.65333,-0.533334 3.73333,-0.8000003 2.13334,-0.2666666 3.78667,-0.32 z"
       style="font-style:normal;font-variant:normal;font-weight:normal;font-stretch:normal;font-size:53.33333206px;font-family:yrsa;-inkscape-font-specification:'yrsa, Normal';font-variant-ligatures:normal;font-variant-caps:normal;font-variant-numeric:normal;font-feature-settings:normal;text-align:center;writing-mode:lr-tb;text-anchor:middle;fill:#00c2c8;fill-opacity:1"
       id="path975" />
    <path
       d="m 172.36396,20.118279 q 0,-2.186667 0.8,-4.106667 0.8,-1.973333 2.08,-3.36 1.33334,-1.44 2.93334,-2.24 1.65333,-0.8533329 3.30666,-0.8533329 1.28,0 2.50667,0.4266666 1.28,0.3733333 2.45333,1.0666663 l -0.69333,2.72 q -1.12,-0.213333 -2.34667,-0.32 -1.22666,-0.16 -2.13333,-0.16 -2.50667,0.05333 -3.68,1.173334 -1.12,1.12 -1.12,4 v 3.893333 h 6.56 v 2.666666 h -6.56 v 15.84 q 0,0.533333 0.26667,0.853333 0.26666,0.266667 0.8,0.32 l 4.10666,0.373334 v 1.973333 H 168.8973 v -1.973333 l 2.34666,-0.373334 q 0.53334,-0.05333 0.8,-0.32 0.26667,-0.32 0.26667,-0.853333 v -15.68 l -3.84,-0.48 v -1.813333 l 3.89333,-0.533333 z"
       style="font-style:normal;font-variant:normal;font-weight:normal;font-stretch:normal;font-size:53.33333206px;font-family:yrsa;-inkscape-font-specification:'yrsa, Normal';font-variant-ligatures:normal;font-variant-caps:normal;font-variant-numeric:normal;font-feature-settings:normal;text-align:center;writing-mode:lr-tb;text-anchor:middle;fill:#00c2c8;fill-opacity:1"
       id="path977" />
    <path
       d="m 196.05813,23.904945 q -2.08,0 -3.46667,1.493334 -1.38666,1.44 -1.76,4.64 h 9.70667 q 0.0533,-0.266667 0.0533,-0.48 0.0533,-0.213334 0.0533,-0.48 0,-2.293334 -1.22667,-3.733334 -1.17333,-1.44 -3.36,-1.44 z m 8.58667,15.68 q -0.69334,2.346667 -2.98667,3.786667 -2.24,1.44 -5.6,1.44 -4.96,0 -7.36,-3.146667 -2.4,-3.2 -2.4,-8.106666 0,-5.546667 2.82667,-8.693334 2.82666,-3.146666 7.52,-3.146666 3.57333,0 5.81333,1.973333 2.29333,1.92 2.29333,5.653333 0,0.533334 -0.0533,1.333334 -0.0533,0.746666 -0.16,1.386666 h -13.86667 q 0,0.106667 0,0.266667 0,0.16 0,0.32 0,5.226666 1.86667,7.253333 1.86667,2.026667 4.69333,2.026667 1.86667,0 3.46667,-0.8 1.65333,-0.853334 2.61333,-2.346667 z"
       style="font-style:normal;font-variant:normal;font-weight:normal;font-stretch:normal;font-size:53.33333206px;font-family:yrsa;-inkscape-font-specification:'yrsa, Normal';font-variant-ligatures:normal;font-variant-caps:normal;font-variant-numeric:normal;font-feature-settings:normal;text-align:center;writing-mode:lr-tb;text-anchor:middle;fill:#00c2c8;fill-opacity:1"
       id="path979" />
  </g>
  <g
     aria-label="Aidez-moi"
     transform="rotate(30)"
     style="font-style:normal;font-variant:normal;font-weight:normal;font-stretch:normal;font-size:46.66666794px;font-family:yrsa;-inkscape-font-specification:'yrsa, Normal';font-variant-ligatures:normal;font-variant-caps:normal;font-variant-numeric:normal;font-feature-settings:normal;text-align:center;writing-mode:lr-tb;text-anchor:middle;fill:#00c2c8;fill-opacity:1"
     id="text8">
    <path
       d="m 303.85518,105.86048 -4.57333,-13.02 -4.24667,13.02 z m -8.02666,8.44667 v 1.72666 h -8.82 v -1.72666 l 2.05333,-0.51334 q 0.37333,-0.0933 0.65333,-0.28 0.28,-0.23333 0.37334,-0.60666 l 8.07333,-23.473337 h 3.64 l 8.44667,23.473337 q 0.14,0.37333 0.37333,0.60666 0.28,0.18667 0.65333,0.28 l 1.96,0.51334 v 1.72666 h -10.08 v -1.72666 l 3.40667,-0.65334 -2.00667,-5.74 h -10.22 l -1.86666,5.74 z"
       style="font-style:normal;font-variant:normal;font-weight:normal;font-stretch:normal;font-size:46.66666794px;font-family:yrsa;-inkscape-font-specification:'yrsa, Normal';font-variant-ligatures:normal;font-variant-caps:normal;font-variant-numeric:normal;font-feature-settings:normal;text-align:center;writing-mode:lr-tb;text-anchor:middle;fill:#00c2c8;fill-opacity:1"
       id="path952" />
    <path
       d="m 321.79852,91.067146 q 0,1.073333 -0.7,1.773334 -0.7,0.653333 -1.82,0.653333 -1.12,0 -1.82,-0.653333 -0.7,-0.700001 -0.7,-1.773334 0,-1.073333 0.7,-1.726667 0.7,-0.7 1.82,-0.7 1.12,0 1.82,0.7 0.7,0.653334 0.7,1.726667 z m -0.28,5.786667 v 16.053337 q 0,0.46666 0.23333,0.74666 0.23333,0.28 0.7,0.32667 l 2.05333,0.32667 v 1.72666 h -9.61333 v -1.72666 l 2.05333,-0.32667 q 0.46667,-0.0467 0.7,-0.32667 0.23334,-0.28 0.23334,-0.74666 v -12.64667 q 0,-0.42 -0.23334,-0.7 -0.18666,-0.28 -0.65333,-0.326667 l -2.38,-0.326667 v -1.68 q 1.49333,-0.466666 3.22,-0.653333 1.72667,-0.233333 3.17333,-0.28 z"
       style="font-style:normal;font-variant:normal;font-weight:normal;font-stretch:normal;font-size:46.66666794px;font-family:yrsa;-inkscape-font-specification:'yrsa, Normal';font-variant-ligatures:normal;font-variant-caps:normal;font-variant-numeric:normal;font-feature-settings:normal;text-align:center;writing-mode:lr-tb;text-anchor:middle;fill:#00c2c8;fill-opacity:1"
       id="path954" />
    <path
       d="m 336.57216,113.93381 q 1.30667,0 2.38,-0.42 1.12,-0.42 2.00667,-1.12 V 99.047146 q -0.60667,-0.326666 -1.58667,-0.606666 -0.98,-0.28 -2.05333,-0.28 -2.38,0 -4.06,1.773333 -1.68,1.726667 -1.72667,6.393337 0,4.43333 1.49334,6.02 1.54,1.58666 3.54666,1.58666 z m 7.7,2.38 q -1.4,0 -2.14666,-0.7 -0.7,-0.74666 -1.02667,-1.82 -0.98,1.07334 -2.42667,1.86667 -1.44666,0.74667 -3.40666,0.74667 -1.54,0 -2.94,-0.51334 -1.4,-0.56 -2.47334,-1.72666 -1.02666,-1.16667 -1.63333,-2.94 -0.60667,-1.82 -0.60667,-4.34 0,-5.41334 2.75334,-8.02667 2.75333,-2.66 7.14,-2.66 0.93333,0 1.82,0.14 0.93333,0.09333 1.63333,0.28 v -7.186667 q 0,-0.466667 -0.23333,-0.7 -0.23334,-0.28 -0.65334,-0.326667 l -2.61333,-0.373333 v -1.54 q 1.44667,-0.466667 3.26667,-0.7 1.86666,-0.233334 3.31333,-0.28 l 0.56,0.56 v 26.739997 q 0,0.60667 0.23333,0.84 0.28,0.23334 0.74667,0.28 l 1.96,0.18667 v 1.58667 q -0.60667,0.18666 -1.54,0.37333 -0.93333,0.23333 -1.72667,0.23333 z"
       style="font-style:normal;font-variant:normal;font-weight:normal;font-stretch:normal;font-size:46.66666794px;font-family:yrsa;-inkscape-font-specification:'yrsa, Normal';font-variant-ligatures:normal;font-variant-caps:normal;font-variant-numeric:normal;font-feature-settings:normal;text-align:center;writing-mode:lr-tb;text-anchor:middle;fill:#00c2c8;fill-opacity:1"
       id="path956" />
    <path
       d="m 359.12091,98.113813 q -1.82,0 -3.03333,1.306667 -1.21333,1.26 -1.54,4.06 h 8.49333 q 0.0467,-0.23333 0.0467,-0.42 0.0467,-0.18667 0.0467,-0.42 0,-2.00667 -1.07334,-3.266667 -1.02666,-1.26 -2.94,-1.26 z m 7.51334,13.719997 q -0.60667,2.05334 -2.61334,3.31334 -1.96,1.26 -4.9,1.26 -4.34,0 -6.44,-2.75334 -2.1,-2.8 -2.1,-7.09333 0,-4.85333 2.47334,-7.606667 2.47333,-2.753333 6.58,-2.753333 3.12666,0 5.08666,1.726666 2.00667,1.68 2.00667,4.946664 0,0.46667 -0.0467,1.16667 -0.0467,0.65333 -0.14,1.21333 h -12.13333 q 0,0.0933 0,0.23334 0,0.14 0,0.28 0,4.57333 1.63333,6.34666 1.63334,1.77334 4.10667,1.77334 1.63333,0 3.03333,-0.7 1.44667,-0.74667 2.28667,-2.05334 z"
       style="font-style:normal;font-variant:normal;font-weight:normal;font-stretch:normal;font-size:46.66666794px;font-family:yrsa;-inkscape-font-specification:'yrsa, Normal';font-variant-ligatures:normal;font-variant-caps:normal;font-variant-numeric:normal;font-feature-settings:normal;text-align:center;writing-mode:lr-tb;text-anchor:middle;fill:#00c2c8;fill-opacity:1"
       id="path958" />
    <path
       d="m 386.173,116.03381 h -15.30667 l -0.7,-1.54 11.76,-15.959997 H 378.193 q -0.79334,0 -1.63334,0.09333 -0.79333,0.04667 -1.4,0.14 -0.51333,0.04667 -0.79333,0.326667 -0.23333,0.233333 -0.32667,0.7 l -0.74666,3.126667 h -1.91334 q -0.14,-1.58667 -0.18666,-3.173334 0,-1.633333 0.18666,-2.986666 h 14.46667 l 0.7,1.493333 -11.66667,15.866667 h 3.92 q 0.98,0 1.86667,0 0.88667,-0.0467 1.68,-0.18667 0.46667,-0.0467 0.74667,-0.23333 0.32666,-0.23333 0.46666,-0.7 l 0.98,-3.36 1.86667,0.23333 q 0.0467,1.44667 0,3.08 -0.0467,1.63334 -0.23333,3.08 z"
       style="font-style:normal;font-variant:normal;font-weight:normal;font-stretch:normal;font-size:46.66666794px;font-family:yrsa;-inkscape-font-specification:'yrsa, Normal';font-variant-ligatures:normal;font-variant-caps:normal;font-variant-numeric:normal;font-feature-settings:normal;text-align:center;writing-mode:lr-tb;text-anchor:middle;fill:#00c2c8;fill-opacity:1"
       id="path960" />
    <path
       d="m 390.70477,107.21381 v -2.56666 h 12.74 v 2.56666 z"
       style="font-style:normal;font-variant:normal;font-weight:normal;font-stretch:normal;font-size:46.66666794px;font-family:yrsa;-inkscape-font-specification:'yrsa, Normal';font-variant-ligatures:normal;font-variant-caps:normal;font-variant-numeric:normal;font-feature-settings:normal;text-align:center;writing-mode:lr-tb;text-anchor:middle;fill:#00c2c8;fill-opacity:1"
       id="path962" />
    <path
       d="m 416.42029,114.30715 v 1.72666 h -9.38 v -1.72666 l 2.1,-0.32667 q 0.42,-0.0467 0.65333,-0.32667 0.23333,-0.28 0.23333,-0.74666 v -12.64667 q 0,-0.42 -0.23333,-0.7 -0.18667,-0.28 -0.65333,-0.326667 l -2.38,-0.326667 v -1.68 q 1.4,-0.42 2.98666,-0.653333 1.58667,-0.233333 2.89334,-0.28 l 0.65333,0.606667 0.23333,2.006666 q 1.30667,-1.446666 2.94,-2.006666 1.68,-0.606667 3.40667,-0.606667 2.00667,0 3.17334,0.746667 1.21333,0.7 1.82,2.006666 1.49333,-1.586666 3.26666,-2.146666 1.77334,-0.606667 3.45334,-0.606667 3.45333,0 4.71333,1.96 1.26,1.913337 1.26,5.646667 v 9.00667 q 0,0.46666 0.23333,0.74666 0.23334,0.28 0.65334,0.32667 l 2.14666,0.32667 v 1.72666 h -9.42666 v -1.72666 l 1.82,-0.32667 q 0.42,-0.0933 0.65333,-0.32667 0.28,-0.23333 0.28,-0.74666 v -8.49334 q 0,-2.89333 -0.84,-4.24666 -0.79333,-1.353337 -3.08,-1.353337 -1.16667,0 -2.38,0.373333 -1.16667,0.373334 -2.28667,1.213334 0.14,0.7 0.18667,1.54 0.0933,0.84 0.0933,1.77333 v 9.19334 q 0,0.46666 0.23334,0.74666 0.23333,0.23334 0.7,0.32667 l 1.82,0.32667 v 1.72666 h -9.14667 v -1.72666 l 1.82,-0.32667 q 0.42,-0.0933 0.65333,-0.32667 0.28,-0.23333 0.28,-0.74666 v -8.54 q 0,-2.8 -0.65333,-4.15334 -0.65333,-1.399997 -2.84667,-1.399997 -1.16667,0 -2.47333,0.42 -1.30667,0.373333 -2.33334,1.119997 v 12.55334 q 0,0.46666 0.18667,0.74666 0.23333,0.23334 0.7,0.32667 z"
       style="font-style:normal;font-variant:normal;font-weight:normal;font-stretch:normal;font-size:46.66666794px;font-family:yrsa;-inkscape-font-specification:'yrsa, Normal';font-variant-ligatures:normal;font-variant-caps:normal;font-variant-numeric:normal;font-feature-settings:normal;text-align:center;writing-mode:lr-tb;text-anchor:middle;fill:#00c2c8;fill-opacity:1"
       id="path964" />
    <path
       d="m 443.45853,106.46715 q 0,-2.66 0.74666,-4.62 0.74667,-1.960004 2.00667,-3.173337 1.26,-1.26 2.94,-1.866667 1.72667,-0.606666 3.64,-0.606666 4.52667,0 6.58,2.8 2.1,2.75333 2.1,7.23333 0,2.66 -0.74667,4.62 -0.7,1.91334 -1.96,3.17334 -1.26,1.21333 -2.98666,1.82 -1.72667,0.56 -3.64,0.56 -4.48,0 -6.58,-2.70667 -2.1,-2.75333 -2.1,-7.23333 z m 14,0.0933 q 0,-3.82667 -1.12,-6.11333 -1.07334,-2.333337 -4.01334,-2.333337 -2.47333,0 -3.68666,1.913337 -1.16667,1.86666 -1.16667,6.06666 0,3.78 1.07333,6.11334 1.12,2.28666 4.06,2.28666 2.47334,0 3.64,-1.86666 1.21334,-1.86667 1.21334,-6.06667 z"
       style="font-style:normal;font-variant:normal;font-weight:normal;font-stretch:normal;font-size:46.66666794px;font-family:yrsa;-inkscape-font-specification:'yrsa, Normal';font-variant-ligatures:normal;font-variant-caps:normal;font-variant-numeric:normal;font-feature-settings:normal;text-align:center;writing-mode:lr-tb;text-anchor:middle;fill:#00c2c8;fill-opacity:1"
       id="path966" />
    <path
       d="m 472.00686,91.067146 q 0,1.073333 -0.7,1.773334 -0.7,0.653333 -1.82,0.653333 -1.12,0 -1.82,-0.653333 -0.7,-0.700001 -0.7,-1.773334 0,-1.073333 0.7,-1.726667 0.7,-0.7 1.82,-0.7 1.12,0 1.82,0.7 0.7,0.653334 0.7,1.726667 z m -0.28,5.786667 v 16.053337 q 0,0.46666 0.23333,0.74666 0.23334,0.28 0.7,0.32667 l 2.05334,0.32667 v 1.72666 h -9.61334 v -1.72666 l 2.05334,-0.32667 q 0.46666,-0.0467 0.7,-0.32667 0.23333,-0.28 0.23333,-0.74666 v -12.64667 q 0,-0.42 -0.23333,-0.7 -0.18667,-0.28 -0.65334,-0.326667 l -2.38,-0.326667 v -1.68 q 1.49334,-0.466666 3.22,-0.653333 1.72667,-0.233333 3.17334,-0.28 z"
       style="font-style:normal;font-variant:normal;font-weight:normal;font-stretch:normal;font-size:46.66666794px;font-family:yrsa;-inkscape-font-specification:'yrsa, Normal';font-variant-ligatures:normal;font-variant-caps:normal;font-variant-numeric:normal;font-feature-settings:normal;text-align:center;writing-mode:lr-tb;text-anchor:middle;fill:#00c2c8;fill-opacity:1"
       id="path968" />
  </g>
  <g
     aria-label="Ayuda"
     transform="rotate(-60)"
     style="font-style:normal;font-variant:normal;font-weight:normal;font-stretch:normal;font-size:53.33333206px;font-family:yrsa;-inkscape-font-specification:'yrsa, Normal';font-variant-ligatures:normal;font-variant-caps:normal;font-variant-numeric:normal;font-feature-settings:normal;text-align:center;writing-mode:lr-tb;text-anchor:middle;fill:#00c2c8;fill-opacity:1"
     id="text10">
    <path
       d="m -238.85478,180.08049 -5.22667,-14.88 -4.85333,14.88 z m -9.17333,9.65333 v 1.97333 h -10.08 v -1.97333 l 2.34666,-0.58667 q 0.42667,-0.10666 0.74667,-0.32 0.32,-0.26666 0.42667,-0.69333 l 9.22666,-26.82667 h 4.16 l 9.65334,26.82667 q 0.16,0.42667 0.42666,0.69333 0.32,0.21334 0.74667,0.32 l 2.24,0.58667 v 1.97333 h -11.52 v -1.97333 l 3.89333,-0.74667 -2.29333,-6.56 h -11.68 l -2.13333,6.56 z"
       style="font-style:normal;font-variant:normal;font-weight:normal;font-stretch:normal;font-size:53.33333206px;font-family:yrsa;-inkscape-font-specification:'yrsa, Normal';font-variant-ligatures:normal;font-variant-caps:normal;font-variant-numeric:normal;font-feature-settings:normal;text-align:center;writing-mode:lr-tb;text-anchor:middle;fill:#00c2c8;fill-opacity:1"
       id="path941" />
    <path
       d="m -224.49228,201.73382 q -1.06667,0 -2.24,-0.10667 -1.17333,-0.0533 -2.29333,-0.26666 v -2.45334 q 2.29333,-0.21333 4.05333,-0.58666 1.76,-0.32 3.09333,-1.12 1.33334,-0.74667 2.34667,-2.08 1.06667,-1.33334 1.92,-3.41334 h -1.97333 l -7.04,-18.66666 q -0.16,-0.37334 -0.48,-0.64 -0.26667,-0.26667 -0.69334,-0.37334 l -1.6,-0.48 v -1.86666 h 10.50667 v 1.86666 l -3.30667,0.64 5.81334,16.10667 5.06666,-16.16 -3.14666,-0.58667 v -1.86666 h 8.42666 v 1.86666 l -1.6,0.48 q -0.42666,0.10667 -0.74666,0.37334 -0.26667,0.21333 -0.42667,0.69333 l -6.61333,19.46667 q -1.6,4.69333 -3.68,6.93333 -2.02667,2.24 -5.38667,2.24 z"
       style="font-style:normal;font-variant:normal;font-weight:normal;font-stretch:normal;font-size:53.33333206px;font-family:yrsa;-inkscape-font-specification:'yrsa, Normal';font-variant-ligatures:normal;font-variant-caps:normal;font-variant-numeric:normal;font-feature-settings:normal;text-align:center;writing-mode:lr-tb;text-anchor:middle;fill:#00c2c8;fill-opacity:1"
       id="path943" />
    <path
       d="m -183.74145,192.02715 q -1.49333,0 -2.34666,-0.8 -0.85334,-0.8 -1.17334,-2.02666 -1.33333,1.28 -2.98666,2.13333 -1.65334,0.8 -3.94667,0.8 -3.62667,0 -5.28,-1.97333 -1.65333,-2.02667 -1.65333,-6.08 v -10.4 q 0,-0.53334 -0.26667,-0.85334 -0.21333,-0.32 -0.74667,-0.37333 l -2.4,-0.42667 v -1.92 q 1.65334,-0.42666 3.46667,-0.64 1.86667,-0.26666 3.52,-0.32 l 0.58667,0.64 v 13.54667 q 0,3.09333 0.90666,4.58667 0.90667,1.44 3.36,1.44 1.38667,0 2.72,-0.42667 1.33334,-0.48 2.50667,-1.44 v -13.81333 q 0,-0.53334 -0.26667,-0.85334 -0.26666,-0.37333 -0.74666,-0.42666 l -2.88,-0.42667 v -1.92 q 1.65333,-0.42667 3.73333,-0.64 2.08,-0.26667 3.73333,-0.26667 l 0.58667,0.64 v 18.24 q 0,0.69334 0.26667,0.96 0.32,0.26667 0.85333,0.32 l 2.24,0.21334 v 1.81333 q -0.69333,0.21333 -1.76,0.42667 -1.06667,0.26666 -2.02667,0.26666 z"
       style="font-style:normal;font-variant:normal;font-weight:normal;font-stretch:normal;font-size:53.33333206px;font-family:yrsa;-inkscape-font-specification:'yrsa, Normal';font-variant-ligatures:normal;font-variant-caps:normal;font-variant-numeric:normal;font-feature-settings:normal;text-align:center;writing-mode:lr-tb;text-anchor:middle;fill:#00c2c8;fill-opacity:1"
       id="path945" />
    <path
       d="m -166.15145,189.30715 q 1.49333,0 2.72,-0.48 1.28,-0.48 2.29333,-1.28 v -15.25333 q -0.69333,-0.37333 -1.81333,-0.69333 -1.12,-0.32 -2.34667,-0.32 -2.72,0 -4.64,2.02666 -1.92,1.97334 -1.97333,7.30667 0,5.06667 1.70666,6.88 1.76,1.81333 4.05334,1.81333 z m 8.8,2.72 q -1.6,0 -2.45334,-0.8 -0.8,-0.85333 -1.17333,-2.08 -1.12,1.22667 -2.77333,2.13334 -1.65334,0.85333 -3.89334,0.85333 -1.76,0 -3.36,-0.58667 -1.6,-0.64 -2.82666,-1.97333 -1.17334,-1.33333 -1.86667,-3.36 -0.69333,-2.08 -0.69333,-4.96 0,-6.18667 3.14666,-9.17333 3.14667,-3.04 8.16,-3.04 1.06667,0 2.08,0.16 1.06667,0.10666 1.86667,0.32 v -8.21334 q 0,-0.53333 -0.26667,-0.8 -0.26666,-0.32 -0.74666,-0.37333 l -2.98667,-0.42667 v -1.76 q 1.65333,-0.53333 3.73333,-0.8 2.13334,-0.26666 3.78667,-0.32 l 0.64,0.64 v 30.56 q 0,0.69334 0.26667,0.96 0.32,0.26667 0.85333,0.32 l 2.24,0.21334 v 1.81333 q -0.69333,0.21333 -1.76,0.42667 -1.06667,0.26666 -1.97333,0.26666 z"
       style="font-style:normal;font-variant:normal;font-weight:normal;font-stretch:normal;font-size:53.33333206px;font-family:yrsa;-inkscape-font-specification:'yrsa, Normal';font-variant-ligatures:normal;font-variant-caps:normal;font-variant-numeric:normal;font-feature-settings:normal;text-align:center;writing-mode:lr-tb;text-anchor:middle;fill:#00c2c8;fill-opacity:1"
       id="path947" />
    <path
       d="m -142.72812,189.41382 q 1.38667,0 2.82667,-0.48 1.44,-0.53333 2.45333,-1.38667 v -5.22666 l -3.73333,0.37333 q -2.34667,0.16 -3.62667,1.06667 -1.22667,0.85333 -1.22667,2.66666 0,1.38667 0.8,2.18667 0.85334,0.8 2.50667,0.8 z m 8.96,2.61333 q -1.38667,0 -2.29333,-0.69333 -0.90667,-0.74667 -1.22667,-2.08 -1.22667,1.33333 -3.09333,2.13333 -1.81334,0.74667 -3.84,0.74667 -2.66667,0 -4.48,-1.33333 -1.76,-1.38667 -1.76,-4 0,-1.70667 0.74666,-2.82667 0.8,-1.12 2.02667,-1.81333 1.22667,-0.69334 2.77333,-1.01334 1.54667,-0.37333 3.04,-0.48 l 4.42667,-0.37333 v -2.61333 q 0,-3.04 -1.22667,-4.21334 -1.17333,-1.22666 -3.62666,-1.22666 -1.81334,0 -3.46667,0.58666 -1.65333,0.58667 -3.04,1.92 l -1.01333,-0.96 q 0.8,-2.29333 3.2,-3.46666 2.45333,-1.17334 5.49333,-1.17334 3.84,0 5.76,1.97334 1.97333,1.97333 1.97333,5.97333 v 10.93333 q 0,0.64 0.26667,0.96 0.32,0.26667 0.90667,0.32 l 2.18666,0.21334 v 1.81333 q -0.53333,0.16 -1.70666,0.42667 -1.12,0.26666 -2.02667,0.26666 z"
       style="font-style:normal;font-variant:normal;font-weight:normal;font-stretch:normal;font-size:53.33333206px;font-family:yrsa;-inkscape-font-specification:'yrsa, Normal';font-variant-ligatures:normal;font-variant-caps:normal;font-variant-numeric:normal;font-feature-settings:normal;text-align:center;writing-mode:lr-tb;text-anchor:middle;fill:#00c2c8;fill-opacity:1"
       id="path949" />
  </g>
  <g
     aria-label="помоћ"
     transform="rotate(-60)"
     style="font-style:normal;font-variant:normal;font-weight:normal;font-stretch:normal;font-size:46.66666794px;font-family:yrsa;-inkscape-font-specification:'yrsa, Normal';font-variant-ligatures:normal;font-variant-caps:normal;font-variant-numeric:normal;font-feature-settings:normal;text-align:center;writing-mode:lr-tb;text-anchor:middle;fill:#00c2c8;fill-opacity:1"
     id="text12">
    <path
       d="m -277.84981,208.7138 v 25.52083 h -4.2155 v -22.17122 h -13.60352 v 22.17122 h -4.21549 V 208.7138 Z"
       style="font-style:normal;font-variant:normal;font-weight:normal;font-stretch:normal;font-size:46.66666794px;font-family:yrsa;-inkscape-font-specification:'yrsa, Normal';font-variant-ligatures:normal;font-variant-caps:normal;font-variant-numeric:normal;font-feature-settings:normal;text-align:center;writing-mode:lr-tb;text-anchor:middle;fill:#00c2c8;fill-opacity:1"
       id="path930" />
    <path
       d="m -259.30164,211.65325 q -3.37239,0 -5.33203,2.64323 -1.95963,2.62045 -1.95963,7.20052 0,4.58008 1.93685,7.22331 1.95963,2.62044 5.35481,2.62044 3.34961,0 5.30925,-2.64323 1.95963,-2.64322 1.95963,-7.20052 0,-4.5345 -1.95963,-7.17773 -1.95964,-2.66602 -5.30925,-2.66602 z m 0,-3.55468 q 5.46875,0 8.5905,3.55468 3.12174,3.55469 3.12174,9.84375 0,6.26628 -3.12174,9.84375 -3.12175,3.55469 -8.5905,3.55469 -5.49153,0 -8.61328,-3.55469 -3.09896,-3.57747 -3.09896,-9.84375 0,-6.28906 3.09896,-9.84375 3.12175,-3.55468 8.61328,-3.55468 z"
       style="font-style:normal;font-variant:normal;font-weight:normal;font-stretch:normal;font-size:46.66666794px;font-family:yrsa;-inkscape-font-specification:'yrsa, Normal';font-variant-ligatures:normal;font-variant-caps:normal;font-variant-numeric:normal;font-feature-settings:normal;text-align:center;writing-mode:lr-tb;text-anchor:middle;fill:#00c2c8;fill-opacity:1"
       id="path932" />
    <path
       d="m -240.82182,208.7138 h 6.12956 l 7.24609,17.08984 7.26888,-17.08984 h 6.08399 v 25.52083 h -4.2155 v -21.51041 l -7.04101,16.61133 h -4.19271 l -7.06381,-16.61133 v 21.51041 h -4.21549 z"
       style="font-style:normal;font-variant:normal;font-weight:normal;font-stretch:normal;font-size:46.66666794px;font-family:yrsa;-inkscape-font-specification:'yrsa, Normal';font-variant-ligatures:normal;font-variant-caps:normal;font-variant-numeric:normal;font-feature-settings:normal;text-align:center;writing-mode:lr-tb;text-anchor:middle;fill:#00c2c8;fill-opacity:1"
       id="path934" />
    <path
       d="m -195.59069,211.65325 q -3.3724,0 -5.33204,2.64323 -1.95963,2.62045 -1.95963,7.20052 0,4.58008 1.93685,7.22331 1.95963,2.62044 5.35482,2.62044 3.3496,0 5.30924,-2.64323 1.95964,-2.64322 1.95964,-7.20052 0,-4.5345 -1.95964,-7.17773 -1.95964,-2.66602 -5.30924,-2.66602 z m 0,-3.55468 q 5.46875,0 8.59049,3.55468 3.12175,3.55469 3.12175,9.84375 0,6.26628 -3.12175,9.84375 -3.12174,3.55469 -8.59049,3.55469 -5.49154,0 -8.61329,-3.55469 -3.09895,-3.57747 -3.09895,-9.84375 0,-6.28906 3.09895,-9.84375 3.12175,-3.55468 8.61329,-3.55468 z"
       style="font-style:normal;font-variant:normal;font-weight:normal;font-stretch:normal;font-size:46.66666794px;font-family:yrsa;-inkscape-font-specification:'yrsa, Normal';font-variant-ligatures:normal;font-variant-caps:normal;font-variant-numeric:normal;font-feature-settings:normal;text-align:center;writing-mode:lr-tb;text-anchor:middle;fill:#00c2c8;fill-opacity:1"
       id="path936" />
    <path
       d="m -176.26778,211.97226 h -4.01042 v -3.25846 h 4.01042 v -9.9349 h 4.21549 v 9.9349 h 12.32748 v 3.25846 h -12.32748 v 9.18295 q 1.50391,-2.30144 3.5319,-3.44076 2.05078,-1.13932 4.7168,-1.13932 4.30664,0 6.60807,2.66601 2.30143,2.66602 2.30143,8.06641 v 6.92708 h -4.1927 v -6.79036 q 0,-3.62305 -1.41276,-5.42318 -1.41276,-1.80013 -4.23829,-1.80013 -3.46354,0 -5.40039,2.21029 -1.91406,2.1875 -1.91406,5.85612 v 5.94726 h -4.21549 z"
       style="font-style:normal;font-variant:normal;font-weight:normal;font-stretch:normal;font-size:46.66666794px;font-family:yrsa;-inkscape-font-specification:'yrsa, Normal';font-variant-ligatures:normal;font-variant-caps:normal;font-variant-numeric:normal;font-feature-settings:normal;text-align:center;writing-mode:lr-tb;text-anchor:middle;fill:#00c2c8;fill-opacity:1"
       id="path938" />
  </g>
  <g
     aria-label="Aiuto"
     style="font-style:normal;font-variant:normal;font-weight:normal;font-stretch:normal;font-size:53.33333206px;font-family:yrsa;-inkscape-font-specification:'yrsa, Normal';font-variant-ligatures:normal;font-variant-caps:normal;font-variant-numeric:normal;font-feature-settings:normal;text-align:center;writing-mode:lr-tb;text-anchor:middle;fill:#00c2c8;fill-opacity:1"
     id="text14">
    <path
       d="m 292.37406,239.46924 -5.22667,-14.88 -4.85333,14.88 z m -9.17333,9.65333 v 1.97333 h -10.08 v -1.97333 l 2.34666,-0.58667 q 0.42667,-0.10667 0.74667,-0.32 0.32,-0.26667 0.42667,-0.69333 l 9.22666,-26.82667 h 4.16 l 9.65334,26.82667 q 0.16,0.42666 0.42666,0.69333 0.32,0.21333 0.74667,0.32 l 2.24,0.58667 v 1.97333 h -11.52 v -1.97333 l 3.89333,-0.74667 -2.29333,-6.56 h -11.68 l -2.13333,6.56 z"
       style="font-style:normal;font-variant:normal;font-weight:normal;font-stretch:normal;font-size:53.33333206px;font-family:yrsa;-inkscape-font-specification:'yrsa, Normal';font-variant-ligatures:normal;font-variant-caps:normal;font-variant-numeric:normal;font-feature-settings:normal;text-align:center;writing-mode:lr-tb;text-anchor:middle;fill:#00c2c8;fill-opacity:1"
       id="path919" />
    <path
       d="m 312.88073,222.56257 q 0,1.22667 -0.8,2.02667 -0.8,0.74666 -2.08,0.74666 -1.28,0 -2.08,-0.74666 -0.8,-0.8 -0.8,-2.02667 0,-1.22667 0.8,-1.97333 0.8,-0.8 2.08,-0.8 1.28,0 2.08,0.8 0.8,0.74666 0.8,1.97333 z m -0.32,6.61333 v 18.34667 q 0,0.53333 0.26666,0.85333 0.26667,0.32 0.8,0.37333 l 2.34667,0.37334 v 1.97333 h -10.98667 v -1.97333 l 2.34667,-0.37334 q 0.53333,-0.0533 0.8,-0.37333 0.26667,-0.32 0.26667,-0.85333 v -14.45333 q 0,-0.48 -0.26667,-0.8 -0.21333,-0.32 -0.74667,-0.37334 l -2.72,-0.37333 v -1.92 q 1.70667,-0.53333 3.68,-0.74667 1.97334,-0.26666 3.62667,-0.32 z"
       style="font-style:normal;font-variant:normal;font-weight:normal;font-stretch:normal;font-size:53.33333206px;font-family:yrsa;-inkscape-font-specification:'yrsa, Normal';font-variant-ligatures:normal;font-variant-caps:normal;font-variant-numeric:normal;font-feature-settings:normal;text-align:center;writing-mode:lr-tb;text-anchor:middle;fill:#00c2c8;fill-opacity:1"
       id="path921" />
    <path
       d="m 339.25823,251.4159 q -1.49334,0 -2.34667,-0.8 -0.85333,-0.8 -1.17333,-2.02667 -1.33334,1.28 -2.98667,2.13334 -1.65333,0.8 -3.94667,0.8 -3.62666,0 -5.28,-1.97334 -1.65333,-2.02666 -1.65333,-6.07999 v -10.4 q 0,-0.53334 -0.26667,-0.85334 -0.21333,-0.32 -0.74666,-0.37333 l -2.4,-0.42667 v -1.92 q 1.65333,-0.42666 3.46666,-0.64 1.86667,-0.26666 3.52,-0.32 l 0.58667,0.64 v 13.54667 q 0,3.09333 0.90667,4.58666 0.90666,1.44 3.36,1.44 1.38666,0 2.72,-0.42666 1.33333,-0.48 2.50666,-1.44 v -13.81333 q 0,-0.53334 -0.26666,-0.85334 -0.26667,-0.37333 -0.74667,-0.42666 l -2.88,-0.42667 v -1.92 q 1.65333,-0.42667 3.73333,-0.64 2.08,-0.26667 3.73334,-0.26667 l 0.58666,0.64 v 18.24 q 0,0.69333 0.26667,0.96 0.32,0.26667 0.85333,0.32 l 2.24,0.21333 v 1.81334 q -0.69333,0.21333 -1.76,0.42666 -1.06666,0.26667 -2.02666,0.26667 z"
       style="font-style:normal;font-variant:normal;font-weight:normal;font-stretch:normal;font-size:53.33333206px;font-family:yrsa;-inkscape-font-specification:'yrsa, Normal';font-variant-ligatures:normal;font-variant-caps:normal;font-variant-numeric:normal;font-feature-settings:normal;text-align:center;writing-mode:lr-tb;text-anchor:middle;fill:#00c2c8;fill-opacity:1"
       id="path923" />
    <path
       d="m 349.00823,245.60257 v -13.76 l -3.36,-0.42667 v -1.81333 l 2.45333,-0.37333 q 0.53333,-0.0533 0.8,-0.32 0.32,-0.26667 0.37333,-0.74667 l 1.44,-5.70667 h 2.4 l 0.0533,6.61334 h 7.25334 v 2.61333 h -7.2 v 12.53333 q 0,2.56 0.8,3.41333 0.85333,0.8 2.34666,0.8 1.22667,0 2.24,-0.42666 1.06667,-0.42667 1.81334,-1.28 l 1.17333,1.12 q -0.85333,1.81333 -2.66667,2.77333 -1.81333,0.90667 -4,0.90667 -2.4,0 -4.16,-1.22667 -1.75999,-1.22667 -1.75999,-4.69333 z"
       style="font-style:normal;font-variant:normal;font-weight:normal;font-stretch:normal;font-size:53.33333206px;font-family:yrsa;-inkscape-font-specification:'yrsa, Normal';font-variant-ligatures:normal;font-variant-caps:normal;font-variant-numeric:normal;font-feature-settings:normal;text-align:center;writing-mode:lr-tb;text-anchor:middle;fill:#00c2c8;fill-opacity:1"
       id="path925" />
    <path
       d="m 364.42073,240.16257 q 0,-3.04 0.85333,-5.28 0.85333,-2.24 2.29333,-3.62667 1.44,-1.44 3.36,-2.13333 1.97333,-0.69333 4.16,-0.69333 5.17333,0 7.52,3.2 2.4,3.14666 2.4,8.26666 0,3.04 -0.85333,5.28 -0.8,2.18667 -2.24,3.62667 -1.44,1.38666 -3.41334,2.08 -1.97333,0.64 -4.16,0.64 -5.12,0 -7.51999,-3.09334 -2.4,-3.14666 -2.4,-8.26666 z m 15.99999,0.10667 q 0,-4.37334 -1.28,-6.98667 -1.22666,-2.66667 -4.58666,-2.66667 -2.82667,0 -4.21334,2.18667 -1.33333,2.13333 -1.33333,6.93333 0,4.32 1.22667,6.98667 1.28,2.61333 4.64,2.61333 2.82666,0 4.16,-2.13333 1.38666,-2.13334 1.38666,-6.93333 z"
       style="font-style:normal;font-variant:normal;font-weight:normal;font-stretch:normal;font-size:53.33333206px;font-family:yrsa;-inkscape-font-specification:'yrsa, Normal';font-variant-ligatures:normal;font-variant-caps:normal;font-variant-numeric:normal;font-feature-settings:normal;text-align:center;writing-mode:lr-tb;text-anchor:middle;fill:#00c2c8;fill-opacity:1"
       id="path927" />
  </g>
  <g
     aria-label="Hjelp"
     style="font-style:normal;font-variant:normal;font-weight:normal;font-stretch:normal;font-size:53.33333206px;font-family:yrsa;-inkscape-font-specification:'yrsa, Normal';font-variant-ligatures:normal;font-variant-caps:normal;font-variant-numeric:normal;font-feature-settings:normal;text-align:center;writing-mode:lr-tb;text-anchor:middle;fill:#00c2c8;fill-opacity:1"
     id="text16">
    <path
       d="m 222.49334,23.994338 v 2.026666 l -3.09333,0.586667 q -0.53333,0.05333 -0.8,0.426666 -0.21333,0.32 -0.21333,0.853334 v 22.613333 q 0,0.533333 0.21333,0.853333 0.26667,0.32 0.8,0.373333 l 3.09333,0.586667 v 1.973333 h -12.10666 v -1.973333 l 2.61333,-0.586667 q 0.53333,-0.05333 0.8,-0.373333 0.26667,-0.32 0.26667,-0.853333 V 39.994337 h -14.29334 v 10.56 q 0,0.48 0.21334,0.8 0.26666,0.32 0.8,0.373333 l 2.82666,0.586667 v 1.973333 h -12.26666 v -1.973333 l 3.09333,-0.586667 q 0.53333,-0.05333 0.74667,-0.373333 0.26666,-0.32 0.26666,-0.853333 V 27.887671 q 0,-0.533334 -0.26666,-0.853334 -0.26667,-0.373333 -0.74667,-0.426666 l -3.09333,-0.586667 v -2.026666 h 12.26666 v 2.026666 l -2.88,0.586667 q -0.48,0.05333 -0.74666,0.373333 -0.21334,0.32 -0.21334,0.853333 v 9.706667 h 14.29334 v -9.706667 q 0,-0.533333 -0.26667,-0.8 -0.21333,-0.32 -0.74667,-0.426666 l -2.72,-0.586667 v -2.026666 z"
       style="font-style:normal;font-variant:normal;font-weight:normal;font-stretch:normal;font-size:53.33333206px;font-family:yrsa;-inkscape-font-specification:'yrsa, Normal';font-variant-ligatures:normal;font-variant-caps:normal;font-variant-numeric:normal;font-feature-settings:normal;text-align:center;writing-mode:lr-tb;text-anchor:middle;fill:#00c2c8;fill-opacity:1"
       id="path908" />
    <path
       d="m 233.38168,25.754337 q 0,1.226667 -0.8,2.026667 -0.8,0.746667 -2.02667,0.746667 -1.28,0 -2.08,-0.746667 -0.8,-0.8 -0.8,-2.026667 0,-1.226666 0.8,-1.973333 0.8,-0.8 2.08,-0.8 1.22667,0 2.02667,0.8 0.8,0.746667 0.8,1.973333 z m -0.53334,5.973334 0.58667,0.64 v 19.573333 q 0,4.159999 -0.69333,6.186666 -0.64,2.026667 -2.34667,3.466667 -1.17333,1.013333 -2.77333,1.76 -1.54667,0.746666 -3.14667,1.28 l -0.96,-1.92 q 1.70667,-1.12 2.82667,-2.133334 1.17333,-1.013333 1.81333,-2.24 0.64,-1.173333 0.90667,-2.72 0.26666,-1.546666 0.26666,-3.679999 v -15.68 q 0,-0.48 -0.26666,-0.8 -0.26667,-0.32 -0.74667,-0.373333 l -2.72,-0.373334 v -1.92 q 1.65333,-0.533333 3.62667,-0.746666 1.97333,-0.266667 3.62666,-0.32 z"
       style="font-style:normal;font-variant:normal;font-weight:normal;font-stretch:normal;font-size:53.33333206px;font-family:yrsa;-inkscape-font-specification:'yrsa, Normal';font-variant-ligatures:normal;font-variant-caps:normal;font-variant-numeric:normal;font-feature-settings:normal;text-align:center;writing-mode:lr-tb;text-anchor:middle;fill:#00c2c8;fill-opacity:1"
       id="path910" />
    <path
       d="m 249.28501,33.807671 q -2.08,0 -3.46667,1.493333 -1.38666,1.44 -1.76,4.64 h 9.70667 q 0.0533,-0.266667 0.0533,-0.48 0.0533,-0.213334 0.0533,-0.48 0,-2.293333 -1.22667,-3.733333 -1.17333,-1.44 -3.36,-1.44 z m 8.58667,15.679999 q -0.69334,2.346667 -2.98667,3.786667 -2.24,1.44 -5.6,1.44 -4.96,0 -7.36,-3.146667 -2.4,-3.2 -2.4,-8.106666 0,-5.546667 2.82667,-8.693333 2.82666,-3.146667 7.52,-3.146667 3.57333,0 5.81333,1.973333 2.29333,1.92 2.29333,5.653333 0,0.533334 -0.0533,1.333334 -0.0533,0.746666 -0.16,1.386666 h -13.86667 q 0,0.106667 0,0.266667 0,0.16 0,0.32 0,5.226667 1.86667,7.253333 1.86667,2.026667 4.69333,2.026667 1.86667,0 3.46667,-0.8 1.65333,-0.853333 2.61333,-2.346667 z"
       style="font-style:normal;font-variant:normal;font-weight:normal;font-stretch:normal;font-size:53.33333206px;font-family:yrsa;-inkscape-font-specification:'yrsa, Normal';font-variant-ligatures:normal;font-variant-caps:normal;font-variant-numeric:normal;font-feature-settings:normal;text-align:center;writing-mode:lr-tb;text-anchor:middle;fill:#00c2c8;fill-opacity:1"
       id="path912" />
    <path
       d="m 269.32168,20.047671 v 30.666666 q 0,0.533333 0.26666,0.853333 0.26667,0.32 0.74667,0.373334 l 2.82667,0.426666 v 1.92 h -11.89334 v -1.973333 l 2.82667,-0.373333 q 0.53333,-0.05333 0.8,-0.32 0.26667,-0.32 0.26667,-0.853334 V 23.887671 q 0,-0.533333 -0.26667,-0.8 -0.26667,-0.32 -0.8,-0.373333 l -2.93333,-0.426667 v -1.76 q 1.65333,-0.533333 3.73333,-0.8 2.13333,-0.266667 3.78667,-0.32 z"
       style="font-style:normal;font-variant:normal;font-weight:normal;font-stretch:normal;font-size:53.33333206px;font-family:yrsa;-inkscape-font-specification:'yrsa, Normal';font-variant-ligatures:normal;font-variant-caps:normal;font-variant-numeric:normal;font-feature-settings:normal;text-align:center;writing-mode:lr-tb;text-anchor:middle;fill:#00c2c8;fill-opacity:1"
       id="path914" />
    <path
       d="m 287.22668,52.52767 q 3.04,0 4.85333,-2.08 1.81333,-2.08 1.86667,-7.253333 0.0533,-4.32 -1.38667,-6.506666 -1.38667,-2.186667 -4.42667,-2.186667 -1.65333,0 -2.88,0.586667 -1.22666,0.533333 -2.02666,1.226666 V 51.56767 q 0.69333,0.426667 1.70666,0.693334 1.06667,0.266666 2.29334,0.266666 z m 0.32,9.386667 v 1.973333 h -11.89334 v -1.973333 l 2.4,-0.373334 q 0.53334,-0.05333 0.74667,-0.373333 0.26667,-0.266667 0.26667,-0.746667 V 36.314337 q 0,-0.533333 -0.21334,-0.853333 -0.21333,-0.32 -0.74666,-0.373333 l -2.72,-0.373334 v -1.92 q 1.65333,-0.48 3.36,-0.746666 1.70666,-0.266667 3.36,-0.32 l 0.69333,0.693333 0.26667,2.24 q 1.06666,-1.28 2.72,-2.133333 1.65333,-0.906667 4.05333,-0.906667 3.62667,0 6.08,2.56 2.50667,2.506667 2.50667,8 0,5.866666 -3.04,9.226666 -2.98667,3.306667 -8.26667,3.306667 -0.85333,0 -1.92,-0.106667 -1.06667,-0.106667 -1.97333,-0.426667 v 6.24 q 0,0.48 0.26666,0.746667 0.32,0.32 0.8,0.373333 z"
       style="font-style:normal;font-variant:normal;font-weight:normal;font-stretch:normal;font-size:53.33333206px;font-family:yrsa;-inkscape-font-specification:'yrsa, Normal';font-variant-ligatures:normal;font-variant-caps:normal;font-variant-numeric:normal;font-feature-settings:normal;text-align:center;writing-mode:lr-tb;text-anchor:middle;fill:#00c2c8;fill-opacity:1"
       id="path916" />
  </g>
  <g
     aria-label="Wsparcie"
     inkscape:transform-center-x="23.835616"
     inkscape:transform-center-y="-63.287671"
     style="font-style:normal;font-variant:normal;font-weight:normal;font-stretch:normal;font-size:53.33333206px;font-family:yrsa;-inkscape-font-specification:'yrsa, Normal';font-variant-ligatures:normal;font-variant-caps:normal;font-variant-numeric:normal;font-feature-settings:normal;text-align:center;writing-mode:lr-tb;text-anchor:middle;fill:#00c2c8;fill-opacity:1"
     id="text18">
    <path
       d="m 213.22345,382.32341 -6.08,-20.32 -5.86666,20.32 h -4.05334 l -8.48,-26.82667 q -0.10666,-0.42666 -0.42666,-0.69333 -0.26667,-0.26667 -0.69334,-0.37333 l -2.34666,-0.58667 v -2.02667 h 11.62666 v 2.02667 l -3.89333,0.74667 6.88,23.25333 5.92,-20.05333 -0.8,-2.29334 q -0.16,-0.42666 -0.42667,-0.69333 -0.26666,-0.26667 -0.69333,-0.37333 l -1.97333,-0.58667 v -2.02667 h 11.30666 v 2.02667 l -3.94666,0.74667 6.66666,23.04 6.50667,-23.04 -3.89333,-0.74667 v -2.02667 h 10.08 v 2.02667 l -2.4,0.58667 q -0.42667,0.10666 -0.74667,0.37333 -0.26667,0.21333 -0.37333,0.69333 l -7.84,26.82667 z"
       style="font-style:normal;font-variant:normal;font-weight:normal;font-stretch:normal;font-size:53.33333206px;font-family:yrsa;-inkscape-font-specification:'yrsa, Normal';font-variant-ligatures:normal;font-variant-caps:normal;font-variant-numeric:normal;font-feature-settings:normal;text-align:center;writing-mode:lr-tb;text-anchor:middle;fill:#00c2c8;fill-opacity:1"
       id="path891" />
    <path
       d="m 228.98262,380.93674 q -0.21333,-1.6 -0.16,-3.09333 0.0533,-1.54667 0.21333,-2.88 h 2.24 l 0.8,2.93333 q 0.16,0.64 0.32,1.01334 0.21334,0.32 0.58667,0.58666 0.53333,0.32 1.6,0.69334 1.06667,0.37333 2.45333,0.37333 2.02667,0 3.04,-0.90667 1.06667,-0.96 1.06667,-2.50666 0,-1.86667 -1.54667,-2.77334 -1.54666,-0.90666 -4.42666,-2.08 -2.61334,-1.06666 -4.32,-2.4 -1.65334,-1.38666 -1.65334,-4.05333 0,-3.14667 2.29334,-4.74667 2.29333,-1.65333 5.92,-1.65333 1.70666,0 3.52,0.37333 1.81333,0.37334 3.04,0.90667 0.0533,1.38667 -0.0533,2.82667 -0.10666,1.44 -0.37333,2.88 h -2.08 l -0.64,-2.72 q -0.10667,-0.53334 -0.32,-0.85334 -0.21333,-0.37333 -0.74667,-0.69333 -0.42666,-0.21333 -1.12,-0.42667 -0.69333,-0.21333 -1.6,-0.26666 -1.70666,-0.0533 -2.82666,0.74666 -1.12,0.8 -1.12,2.45334 0,1.97333 1.54666,2.82666 1.6,0.8 3.52,1.54667 1.33334,0.53333 2.56,1.12 1.28,0.58667 2.24,1.38667 1.01334,0.8 1.6,1.92 0.58667,1.12 0.58667,2.61333 0,3.09333 -2.4,4.8 -2.4,1.70667 -6.24,1.70667 -2.29333,0 -4.26667,-0.53334 -1.97333,-0.58666 -3.25333,-1.12 z"
       style="font-style:normal;font-variant:normal;font-weight:normal;font-stretch:normal;font-size:53.33333206px;font-family:yrsa;-inkscape-font-specification:'yrsa, Normal';font-variant-ligatures:normal;font-variant-caps:normal;font-variant-numeric:normal;font-feature-settings:normal;text-align:center;writing-mode:lr-tb;text-anchor:middle;fill:#00c2c8;fill-opacity:1"
       id="path893" />
    <path
       d="m 260.21845,380.35008 q 3.04,0 4.85334,-2.08 1.81333,-2.08 1.86666,-7.25334 0.0533,-4.32 -1.38666,-6.50666 -1.38667,-2.18667 -4.42667,-2.18667 -1.65333,0 -2.88,0.58667 -1.22667,0.53333 -2.02667,1.22666 v 15.25334 q 0.69334,0.42666 1.70667,0.69333 1.06667,0.26667 2.29333,0.26667 z m 0.32,9.38666 v 1.97334 h -11.89333 v -1.97334 l 2.4,-0.37333 q 0.53333,-0.0533 0.74667,-0.37333 0.26666,-0.26667 0.26666,-0.74667 v -24.10667 q 0,-0.53333 -0.21333,-0.85333 -0.21333,-0.32 -0.74667,-0.37333 l -2.72,-0.37334 v -1.92 q 1.65334,-0.48 3.36,-0.74666 1.70667,-0.26667 3.36,-0.32 l 0.69334,0.69333 0.26666,2.24 q 1.06667,-1.28 2.72,-2.13333 1.65334,-0.90667 4.05334,-0.90667 3.62666,0 6.08,2.56 2.50666,2.50667 2.50666,8 0,5.86667 -3.04,9.22667 -2.98666,3.30666 -8.26666,3.30666 -0.85334,0 -1.92,-0.10666 -1.06667,-0.10667 -1.97334,-0.42667 v 6.24 q 0,0.48 0.26667,0.74667 0.32,0.32 0.8,0.37333 z"
       style="font-style:normal;font-variant:normal;font-weight:normal;font-stretch:normal;font-size:53.33333206px;font-family:yrsa;-inkscape-font-specification:'yrsa, Normal';font-variant-ligatures:normal;font-variant-caps:normal;font-variant-numeric:normal;font-feature-settings:normal;text-align:center;writing-mode:lr-tb;text-anchor:middle;fill:#00c2c8;fill-opacity:1"
       id="path895" />
    <path
       d="m 283.15928,379.81674 q 1.38667,0 2.82667,-0.48 1.44,-0.53333 2.45333,-1.38666 v -5.22667 l -3.73333,0.37333 q -2.34666,0.16 -3.62666,1.06667 -1.22667,0.85333 -1.22667,2.66667 0,1.38666 0.8,2.18666 0.85333,0.8 2.50666,0.8 z m 8.96,2.61334 q -1.38666,0 -2.29333,-0.69334 -0.90667,-0.74666 -1.22667,-2.08 -1.22666,1.33334 -3.09333,2.13334 -1.81333,0.74666 -3.84,0.74666 -2.66666,0 -4.48,-1.33333 -1.76,-1.38667 -1.76,-4 0,-1.70667 0.74667,-2.82667 0.8,-1.12 2.02667,-1.81333 1.22666,-0.69333 2.77333,-1.01333 1.54667,-0.37334 3.04,-0.48 l 4.42666,-0.37334 v -2.61333 q 0,-3.04 -1.22666,-4.21333 -1.17334,-1.22667 -3.62667,-1.22667 -1.81333,0 -3.46666,0.58667 -1.65334,0.58666 -3.04,1.92 l -1.01334,-0.96 q 0.8,-2.29334 3.2,-3.46667 2.45334,-1.17333 5.49333,-1.17333 3.84,0 5.76,1.97333 1.97334,1.97333 1.97334,5.97333 v 10.93334 q 0,0.64 0.26666,0.96 0.32,0.26666 0.90667,0.32 l 2.18667,0.21333 v 1.81333 q -0.53334,0.16 -1.70667,0.42667 -1.12,0.26667 -2.02667,0.26667 z"
       style="font-style:normal;font-variant:normal;font-weight:normal;font-stretch:normal;font-size:53.33333206px;font-family:yrsa;-inkscape-font-specification:'yrsa, Normal';font-variant-ligatures:normal;font-variant-caps:normal;font-variant-numeric:normal;font-feature-settings:normal;text-align:center;writing-mode:lr-tb;text-anchor:middle;fill:#00c2c8;fill-opacity:1"
       id="path897" />
    <path
       d="m 311.50345,380.19008 v 1.92 h -12.58666 v -1.97334 l 2.34666,-0.37333 q 0.53334,-0.0533 0.8,-0.37333 0.26667,-0.32 0.26667,-0.85334 v -14.34666 q 0,-0.53334 -0.26667,-0.85334 -0.21333,-0.37333 -0.8,-0.42666 l -2.66666,-0.37334 v -1.92 q 1.54666,-0.48 3.30666,-0.74666 1.81334,-0.26667 3.36,-0.32 l 0.64,0.64 0.42667,3.57333 q 1.22666,-1.65333 3.2,-2.98667 2.02666,-1.33333 4.16,-1.33333 0.53333,0 1.33333,0.16 0.8,0.16 1.33333,0.37333 0.10667,1.65334 -0.0533,3.73334 -0.10667,2.02666 -0.48,3.68 h -1.97333 l -0.58667,-2.98667 q -0.16,-0.64 -0.48,-0.90667 -0.26667,-0.26666 -0.85333,-0.26666 -1.33334,0 -2.77334,0.58666 -1.44,0.58667 -2.66666,1.81334 v 12.90666 q 0,0.53334 0.26666,0.85334 0.32,0.32 0.85334,0.37333 z"
       style="font-style:normal;font-variant:normal;font-weight:normal;font-stretch:normal;font-size:53.33333206px;font-family:yrsa;-inkscape-font-specification:'yrsa, Normal';font-variant-ligatures:normal;font-variant-caps:normal;font-variant-numeric:normal;font-feature-settings:normal;text-align:center;writing-mode:lr-tb;text-anchor:middle;fill:#00c2c8;fill-opacity:1"
       id="path899" />
    <path
       d="m 319.44261,371.33674 q 0,-2.56 0.69333,-4.74666 0.69334,-2.18667 2.02667,-3.73334 1.33333,-1.6 3.36,-2.50666 2.02667,-0.90667 4.64,-0.90667 1.81333,0 3.68,0.42667 1.92,0.42666 3.09333,1.01333 0.10667,1.49333 -0.0533,3.25333 -0.10667,1.76 -0.32,3.25334 h -2.13333 l -0.85334,-3.25334 q -0.10666,-0.53333 -0.26666,-0.90666 -0.16,-0.37334 -0.53334,-0.69334 -0.48,-0.37333 -1.28,-0.64 -0.74666,-0.26666 -1.76,-0.26666 -2.72,0 -4.21333,2.18666 -1.49333,2.18667 -1.49333,6.61334 0,4.64 1.70666,6.93333 1.70667,2.29333 4.74667,2.29333 1.81333,0 3.2,-0.69333 1.44,-0.69333 2.34667,-1.65333 l 1.17333,1.01333 q -0.90667,1.97333 -2.98667,3.09333 -2.08,1.12 -4.96,1.12 -4.85333,0 -7.36,-3.14666 -2.45333,-3.2 -2.45333,-8.05334 z"
       style="font-style:normal;font-variant:normal;font-weight:normal;font-stretch:normal;font-size:53.33333206px;font-family:yrsa;-inkscape-font-specification:'yrsa, Normal';font-variant-ligatures:normal;font-variant-caps:normal;font-variant-numeric:normal;font-feature-settings:normal;text-align:center;writing-mode:lr-tb;text-anchor:middle;fill:#00c2c8;fill-opacity:1"
       id="path901" />
    <path
       d="m 348.99761,353.57674 q 0,1.22667 -0.8,2.02667 -0.8,0.74667 -2.08,0.74667 -1.28,0 -2.08,-0.74667 -0.8,-0.8 -0.8,-2.02667 0,-1.22666 0.8,-1.97333 0.8,-0.8 2.08,-0.8 1.28,0 2.08,0.8 0.8,0.74667 0.8,1.97333 z m -0.32,6.61334 v 18.34666 q 0,0.53334 0.26667,0.85334 0.26666,0.32 0.8,0.37333 l 2.34666,0.37333 v 1.97334 h -10.98666 v -1.97334 l 2.34666,-0.37333 q 0.53334,-0.0533 0.8,-0.37333 0.26667,-0.32 0.26667,-0.85334 v -14.45333 q 0,-0.48 -0.26667,-0.8 -0.21333,-0.32 -0.74666,-0.37333 l -2.72,-0.37334 v -1.92 q 1.70666,-0.53333 3.68,-0.74666 1.97333,-0.26667 3.62666,-0.32 z"
       style="font-style:normal;font-variant:normal;font-weight:normal;font-stretch:normal;font-size:53.33333206px;font-family:yrsa;-inkscape-font-specification:'yrsa, Normal';font-variant-ligatures:normal;font-variant-caps:normal;font-variant-numeric:normal;font-feature-settings:normal;text-align:center;writing-mode:lr-tb;text-anchor:middle;fill:#00c2c8;fill-opacity:1"
       id="path903" />
    <path
       d="m 365.40179,361.63008 q -2.08,0 -3.46667,1.49333 -1.38667,1.44 -1.76,4.64 h 9.70667 q 0.0533,-0.26667 0.0533,-0.48 0.0533,-0.21333 0.0533,-0.48 0,-2.29333 -1.22666,-3.73333 -1.17334,-1.44 -3.36,-1.44 z m 8.58666,15.68 q -0.69333,2.34666 -2.98666,3.78666 -2.24,1.44 -5.6,1.44 -4.96,0 -7.36,-3.14666 -2.4,-3.2 -2.4,-8.10667 0,-5.54667 2.82666,-8.69333 2.82667,-3.14667 7.52,-3.14667 3.57334,0 5.81334,1.97333 2.29333,1.92 2.29333,5.65334 0,0.53333 -0.0533,1.33333 -0.0533,0.74667 -0.16,1.38667 h -13.86667 q 0,0.10666 0,0.26666 0,0.16 0,0.32 0,5.22667 1.86667,7.25334 1.86666,2.02666 4.69333,2.02666 1.86667,0 3.46667,-0.8 1.65333,-0.85333 2.61333,-2.34666 z"
       style="font-style:normal;font-variant:normal;font-weight:normal;font-stretch:normal;font-size:53.33333206px;font-family:yrsa;-inkscape-font-specification:'yrsa, Normal';font-variant-ligatures:normal;font-variant-caps:normal;font-variant-numeric:normal;font-feature-settings:normal;text-align:center;writing-mode:lr-tb;text-anchor:middle;fill:#00c2c8;fill-opacity:1"
       id="path905" />
  </g>
  <g
     aria-label="Pomoc"
     transform="rotate(30)"
     style="font-style:normal;font-variant:normal;font-weight:normal;font-stretch:normal;font-size:60px;font-family:yrsa;-inkscape-font-specification:'yrsa, Normal';font-variant-ligatures:normal;font-variant-caps:normal;font-variant-numeric:normal;font-feature-settings:normal;text-align:center;writing-mode:lr-tb;text-anchor:middle;fill:#00c2c8;fill-opacity:1"
     id="text22">
    <path
       d="m 119.88158,-14.271019 q 3.06,0 5.4,-1.92 2.4,-1.98 2.4,-7.26 0,-3.96 -1.92,-5.58 -1.92,-1.68 -5.88,-1.68 -1.5,0 -2.52,0.12 -0.96,0.12 -1.74,0.12 v 16.02 q 1.08,0.06 1.98,0.12 0.96,0.06 2.28,0.06 z m 2.1,13.3200001 v 2.22 h -15.84 v -2.22 l 3.48,-0.66 q 0.54,-0.06 0.84,-0.42 0.3,-0.36 0.3,-0.84 V -28.611019 q 0,-0.42 -0.3,-0.78 -0.24,-0.36 -0.66,-0.42 l -3.66,-0.72 v -2.28 h 7.08 q 2.04,0 3.48,-0.12 1.44,-0.18 4.26,-0.18 6.78,0 9.3,2.58 2.58,2.52 2.58,7.02 0,5.58 -3.66,8.64 -3.66,3.06 -9.3,3.06 -1.08,0 -2.16,0 -1.02,-0.06 -2.1,-0.12 v 9.0600001 q 0,0.42 0.3,0.78 0.3,0.36 0.78,0.42 z"
       style="font-style:normal;font-variant:normal;font-weight:normal;font-stretch:normal;font-size:60px;font-family:yrsa;-inkscape-font-specification:'yrsa, Normal';font-variant-ligatures:normal;font-variant-caps:normal;font-variant-numeric:normal;font-feature-settings:normal;text-align:center;writing-mode:lr-tb;text-anchor:middle;fill:#00c2c8;fill-opacity:1"
       id="path880" />
    <path
       d="m 137.02189,-11.031019 q 0,-3.42 0.96,-5.94 0.96,-2.52 2.58,-4.08 1.62,-1.62 3.78,-2.4 2.22,-0.78 4.68,-0.78 5.82,0 8.46,3.6 2.7,3.54 2.7,9.3 0,3.4200001 -0.96,5.9400001 -0.9,2.46 -2.52,4.08 -1.62,1.56 -3.84,2.34 -2.22,0.72 -4.68,0.72 -5.76,0 -8.46,-3.48 -2.7,-3.54 -2.7,-9.3000001 z m 18,0.12 q 0,-4.92 -1.44,-7.86 -1.38,-3 -5.16,-3 -3.18,0 -4.74,2.46 -1.5,2.4 -1.5,7.8 0,4.8600001 1.38,7.8600001 1.44,2.94 5.22,2.94 3.18,0 4.68,-2.4 1.56,-2.4 1.56,-7.8000001 z"
       style="font-style:normal;font-variant:normal;font-weight:normal;font-stretch:normal;font-size:60px;font-family:yrsa;-inkscape-font-specification:'yrsa, Normal';font-variant-ligatures:normal;font-variant-caps:normal;font-variant-numeric:normal;font-feature-settings:normal;text-align:center;writing-mode:lr-tb;text-anchor:middle;fill:#00c2c8;fill-opacity:1"
       id="path882" />
    <path
       d="m 176.90689,-0.9510189 v 2.22 h -12.06 v -2.22 l 2.7,-0.42 q 0.54,-0.06 0.84,-0.42 0.3,-0.36 0.3,-0.96 V -19.011019 q 0,-0.54 -0.3,-0.9 -0.24,-0.36 -0.84,-0.42 l -3.06,-0.42 v -2.16 q 1.8,-0.54 3.84,-0.84 2.04,-0.3 3.72,-0.36 l 0.84,0.78 0.3,2.58 q 1.68,-1.86 3.78,-2.58 2.16,-0.78 4.38,-0.78 2.58,0 4.08,0.96 1.56,0.9 2.34,2.58 1.92,-2.04 4.2,-2.76 2.28,-0.78 4.44,-0.78 4.44,0 6.06,2.52 1.62,2.46 1.62,7.26 v 11.5800001 q 0,0.6 0.3,0.96 0.3,0.36 0.84,0.42 l 2.76,0.42 v 2.22 h -12.12 v -2.22 l 2.34,-0.42 q 0.54,-0.12 0.84,-0.42 0.36,-0.3 0.36,-0.96 V -13.671019 q 0,-3.72 -1.08,-5.46 -1.02,-1.74 -3.96,-1.74 -1.5,0 -3.06,0.48 -1.5,0.48 -2.94,1.56 0.18,0.9 0.24,1.98 0.12,1.08 0.12,2.28 v 11.8200001 q 0,0.6 0.3,0.96 0.3,0.3 0.9,0.42 l 2.34,0.42 v 2.22 h -11.76 v -2.22 l 2.34,-0.42 q 0.54,-0.12 0.84,-0.42 0.36,-0.3 0.36,-0.96 V -13.731019 q 0,-3.6 -0.84,-5.34 -0.84,-1.8 -3.66,-1.8 -1.5,0 -3.18,0.54 -1.68,0.48 -3,1.44 v 16.1400001 q 0,0.6 0.24,0.96 0.3,0.3 0.9,0.42 z"
       style="font-style:normal;font-variant:normal;font-weight:normal;font-stretch:normal;font-size:60px;font-family:yrsa;-inkscape-font-specification:'yrsa, Normal';font-variant-ligatures:normal;font-variant-caps:normal;font-variant-numeric:normal;font-feature-settings:normal;text-align:center;writing-mode:lr-tb;text-anchor:middle;fill:#00c2c8;fill-opacity:1"
       id="path884" />
    <path
       d="m 211.67033,-11.031019 q 0,-3.42 0.96,-5.94 0.96,-2.52 2.58,-4.08 1.62,-1.62 3.78,-2.4 2.22,-0.78 4.68,-0.78 5.82,0 8.46,3.6 2.7,3.54 2.7,9.3 0,3.4200001 -0.96,5.9400001 -0.9,2.46 -2.52,4.08 -1.62,1.56 -3.84,2.34 -2.22,0.72 -4.68,0.72 -5.76,0 -8.46,-3.48 -2.7,-3.54 -2.7,-9.3000001 z m 18,0.12 q 0,-4.92 -1.44,-7.86 -1.38,-3 -5.16,-3 -3.18,0 -4.74,2.46 -1.5,2.4 -1.5,7.8 0,4.8600001 1.38,7.8600001 1.44,2.94 5.22,2.94 3.18,0 4.68,-2.4 1.56,-2.4 1.56,-7.8000001 z"
       style="font-style:normal;font-variant:normal;font-weight:normal;font-stretch:normal;font-size:60px;font-family:yrsa;-inkscape-font-specification:'yrsa, Normal';font-variant-ligatures:normal;font-variant-caps:normal;font-variant-numeric:normal;font-feature-settings:normal;text-align:center;writing-mode:lr-tb;text-anchor:middle;fill:#00c2c8;fill-opacity:1"
       id="path886" />
    <path
       d="m 239.73533,-10.851019 q 0,-2.88 0.78,-5.34 0.78,-2.46 2.28,-4.2 1.5,-1.8 3.78,-2.82 2.28,-1.02 5.22,-1.02 2.04,0 4.14,0.48 2.16,0.48 3.48,1.14 0.12,1.68 -0.06,3.66 -0.12,1.98 -0.36,3.66 h -2.4 l -0.96,-3.66 q -0.12,-0.6 -0.3,-1.02 -0.18,-0.42 -0.6,-0.78 -0.54,-0.42 -1.44,-0.72 -0.84,-0.3 -1.98,-0.3 -3.06,0 -4.74,2.46 -1.68,2.46 -1.68,7.44 0,5.2200001 1.92,7.8000001 1.92,2.58 5.34,2.58 2.04,0 3.6,-0.78 1.62,-0.78 2.64,-1.86 l 1.32,1.14 q -1.02,2.22 -3.36,3.48 -2.34,1.26 -5.58,1.26 -5.46,0 -8.28,-3.54 -2.76,-3.6 -2.76,-9.0600001 z"
       style="font-style:normal;font-variant:normal;font-weight:normal;font-stretch:normal;font-size:60px;font-family:yrsa;-inkscape-font-specification:'yrsa, Normal';font-variant-ligatures:normal;font-variant-caps:normal;font-variant-numeric:normal;font-feature-settings:normal;text-align:center;writing-mode:lr-tb;text-anchor:middle;fill:#00c2c8;fill-opacity:1"
       id="path888" />
  </g>
  <g
     aria-label="帮帮我"
     transform="rotate(-30)"
     style="font-style:normal;font-variant:normal;font-weight:normal;font-stretch:normal;font-size:40px;font-family:yrsa;-inkscape-font-specification:'yrsa, Normal';font-variant-ligatures:normal;font-variant-caps:normal;font-variant-numeric:normal;font-feature-settings:normal;text-align:center;writing-mode:lr-tb;text-anchor:middle;fill:#00c2c8;fill-opacity:1"
     id="text24">
    <path
       d="m 206.64947,229.00272 v -2.36 h -7.84 c 0.2,-0.8 0.28,-1.52 0.28,-2.2 v -0.92 h 6.48 v -2.32 h -6.48 v -2.88 h 7.28 v -2.44 h -7.28 v -3.16 h -3 v 3.16 h -8.28 v 2.44 h 8.28 v 2.88 h -7.44 v 2.32 h 7.44 v 0.88 c 0,0.68 -0.12,1.44 -0.36,2.24 h -8.56 v 2.36 h 7.44 c -1.24,1.8 -3.24,3.56 -6.64,4.68 0.68,0.56 1.6,1.48 2.08,2.16 4.28,-1.72 6.72,-4.32 7.96,-6.84 z m 12.88,6.64 h -13.08 v -3.12 h -3.04 v 3.12 h -12.24 v 11.44 h 2.96 v -8.72 h 9.28 v 10.8 h 3.04 v -10.8 h 10.08 v 5.4 c 0,0.52 -0.16,0.64 -0.84,0.68 -0.64,0.04 -2.96,0.04 -5.52,0 0.4,0.72 0.88,1.72 1.04,2.56 3.32,0 5.44,0 6.68,-0.44 1.24,-0.44 1.64,-1.24 1.64,-2.76 z m 0.84,-21.4 -0.52,0.12 h -11.48 v 19.64 h 2.88 v -17.04 h 6.8 c -1.08,1.72 -2.4,3.68 -3.72,5.4 3.56,1.96 4.8,3.72 4.84,5.2 0,0.8 -0.28,1.4 -1,1.72 -0.48,0.16 -1.08,0.28 -1.68,0.32 -1.16,0.08 -2.56,0.04 -4.28,-0.12 0.44,0.68 0.88,1.76 0.92,2.52 1.56,0.12 3.24,0.12 4.64,0 0.76,-0.08 1.68,-0.32 2.36,-0.68 1.32,-0.68 2,-1.8 1.96,-3.52 0,-1.84 -1.16,-3.72 -4.56,-5.8 1.64,-2 3.4,-4.4 4.92,-6.52 z"
       style="font-style:normal;font-variant:normal;font-weight:normal;font-stretch:normal;font-size:40px;font-family:yrsa;-inkscape-font-specification:'yrsa, Normal';font-variant-ligatures:normal;font-variant-caps:normal;font-variant-numeric:normal;font-feature-settings:normal;text-align:center;writing-mode:lr-tb;text-anchor:middle;fill:#00c2c8;fill-opacity:1"
       id="path873" />
    <path
       d="m 246.64947,229.00272 v -2.36 h -7.84 c 0.2,-0.8 0.28,-1.52 0.28,-2.2 v -0.92 h 6.48 v -2.32 h -6.48 v -2.88 h 7.28 v -2.44 h -7.28 v -3.16 h -3 v 3.16 h -8.28 v 2.44 h 8.28 v 2.88 h -7.44 v 2.32 h 7.44 v 0.88 c 0,0.68 -0.12,1.44 -0.36,2.24 h -8.56 v 2.36 h 7.44 c -1.24,1.8 -3.24,3.56 -6.64,4.68 0.68,0.56 1.6,1.48 2.08,2.16 4.28,-1.72 6.72,-4.32 7.96,-6.84 z m 12.88,6.64 h -13.08 v -3.12 h -3.04 v 3.12 h -12.24 v 11.44 h 2.96 v -8.72 h 9.28 v 10.8 h 3.04 v -10.8 h 10.08 v 5.4 c 0,0.52 -0.16,0.64 -0.84,0.68 -0.64,0.04 -2.96,0.04 -5.52,0 0.4,0.72 0.88,1.72 1.04,2.56 3.32,0 5.44,0 6.68,-0.44 1.24,-0.44 1.64,-1.24 1.64,-2.76 z m 0.84,-21.4 -0.52,0.12 h -11.48 v 19.64 h 2.88 v -17.04 h 6.8 c -1.08,1.72 -2.4,3.68 -3.72,5.4 3.56,1.96 4.8,3.72 4.84,5.2 0,0.8 -0.28,1.4 -1,1.72 -0.48,0.16 -1.08,0.28 -1.68,0.32 -1.16,0.08 -2.56,0.04 -4.28,-0.12 0.44,0.68 0.88,1.76 0.92,2.52 1.56,0.12 3.24,0.12 4.64,0 0.76,-0.08 1.68,-0.32 2.36,-0.68 1.32,-0.68 2,-1.8 1.96,-3.52 0,-1.84 -1.16,-3.72 -4.56,-5.8 1.64,-2 3.4,-4.4 4.92,-6.52 z"
       style="font-style:normal;font-variant:normal;font-weight:normal;font-stretch:normal;font-size:40px;font-family:yrsa;-inkscape-font-specification:'yrsa, Normal';font-variant-ligatures:normal;font-variant-caps:normal;font-variant-numeric:normal;font-feature-settings:normal;text-align:center;writing-mode:lr-tb;text-anchor:middle;fill:#00c2c8;fill-opacity:1"
       id="path875" />
    <path
       d="m 301.76947,220.40272 c -1.28,-1.88 -4.08,-4.68 -6.36,-6.64 l -2.28,1.56 c 2.32,2.04 5.04,4.92 6.24,6.8 z m -3.56,8.72 c -1.36,2.56 -3.12,5 -5.24,7.28 -0.68,-2.64 -1.24,-5.72 -1.64,-9.12 h 11.44 v -2.84 h -11.76 c -0.32,-3.56 -0.48,-7.4 -0.48,-11.4 h -3.04 c 0.04,3.92 0.2,7.76 0.56,11.4 h -9.16 v -6.96 c 2.44,-0.52 4.76,-1.16 6.68,-1.84 l -2.12,-2.44 c -3.76,1.4 -10.2,2.76 -15.8,3.6 0.4,0.72 0.8,1.76 0.96,2.48 2.36,-0.32 4.88,-0.72 7.36,-1.2 v 6.36 h -8.56 v 2.84 h 8.56 v 7 c -3.48,0.72 -6.72,1.4 -9.12,1.8 l 0.84,3 c 2.4,-0.52 5.28,-1.2 8.28,-1.84 v 8.12 c 0,0.72 -0.24,0.92 -0.96,0.92 -0.68,0.04 -3.04,0.08 -5.6,-0.04 0.44,0.84 0.96,2.2 1.12,3 3.24,0 5.4,-0.08 6.64,-0.56 1.24,-0.48 1.72,-1.36 1.72,-3.28 v -8.88 c 2.44,-0.56 4.92,-1.12 7.36,-1.72 l -0.2,-2.68 c -2.36,0.52 -4.8,1.04 -7.16,1.56 v -6.4 h 9.4 c 0.52,4.32 1.28,8.28 2.24,11.6 -2.84,2.64 -6.12,4.84 -9.48,6.48 0.76,0.64 1.6,1.64 2.04,2.36 3,-1.56 5.84,-3.56 8.44,-5.88 1.84,4.68 4.24,7.48 7.4,7.48 3,0 4.04,-1.92 4.6,-8.52 -0.84,-0.28 -1.88,-0.96 -2.52,-1.6 -0.24,5.12 -0.72,7.16 -1.8,7.16 -2,0 -3.8,-2.56 -5.32,-6.76 2.8,-2.84 5.16,-6 6.96,-9.4 z"
       style="font-style:normal;font-variant:normal;font-weight:normal;font-stretch:normal;font-size:40px;font-family:yrsa;-inkscape-font-specification:'yrsa, Normal';font-variant-ligatures:normal;font-variant-caps:normal;font-variant-numeric:normal;font-feature-settings:normal;text-align:center;writing-mode:lr-tb;text-anchor:middle;fill:#00c2c8;fill-opacity:1"
       id="path877" />
  </g>
  <g
     aria-label="Hjælp"
     transform="rotate(-60)"
     style="font-style:normal;font-variant:normal;font-weight:normal;font-stretch:normal;font-size:53.33333206px;font-family:yrsa;-inkscape-font-specification:'yrsa, Normal';font-variant-ligatures:normal;font-variant-caps:normal;font-variant-numeric:normal;font-feature-settings:normal;text-align:center;writing-mode:lr-tb;text-anchor:middle;fill:#00c2c8;fill-opacity:1"
     id="text26">
    <path
       d="m -58.069667,61.923312 v 2.026666 L -61.163,64.536645 q -0.533334,0.05333 -0.8,0.426667 -0.213334,0.32 -0.213334,0.853333 v 22.613333 q 0,0.533333 0.213334,0.853333 0.266666,0.32 0.8,0.373333 l 3.093333,0.586667 v 1.973333 H -70.176334 V 90.243311 L -67.563,89.656644 q 0.533333,-0.05333 0.8,-0.373333 0.266666,-0.32 0.266666,-0.853333 V 77.923311 h -14.293333 v 10.56 q 0,0.48 0.213334,0.8 0.266666,0.32 0.8,0.373333 l 2.826666,0.586667 v 1.973333 H -89.216333 V 90.243311 L -86.123,89.656644 q 0.533333,-0.05333 0.746667,-0.373333 0.266666,-0.32 0.266666,-0.853333 V 65.816645 q 0,-0.533333 -0.266666,-0.853333 Q -85.643,64.589978 -86.123,64.536645 l -3.093333,-0.586667 v -2.026666 h 12.266666 v 2.026666 l -2.88,0.586667 q -0.48,0.05333 -0.746666,0.373333 -0.213334,0.32 -0.213334,0.853334 v 9.706666 h 14.293333 v -9.706666 q 0,-0.533334 -0.266666,-0.8 -0.213334,-0.32 -0.746667,-0.426667 l -2.72,-0.586667 v -2.026666 z"
       style="font-style:normal;font-variant:normal;font-weight:normal;font-stretch:normal;font-size:53.33333206px;font-family:yrsa;-inkscape-font-specification:'yrsa, Normal';font-variant-ligatures:normal;font-variant-caps:normal;font-variant-numeric:normal;font-feature-settings:normal;text-align:center;writing-mode:lr-tb;text-anchor:middle;fill:#00c2c8;fill-opacity:1"
       id="path862" />
    <path
       d="m -47.181335,63.683312 q 0,1.226666 -0.8,2.026666 -0.8,0.746667 -2.026666,0.746667 -1.28,0 -2.08,-0.746667 -0.8,-0.8 -0.8,-2.026666 0,-1.226667 0.8,-1.973334 0.8,-0.8 2.08,-0.8 1.226666,0 2.026666,0.8 0.8,0.746667 0.8,1.973334 z m -0.533333,5.973333 0.586667,0.64 v 19.573333 q 0,4.16 -0.693334,6.186666 -0.64,2.026667 -2.346666,3.466667 -1.173333,1.013329 -2.773333,1.759999 -1.546667,0.74667 -3.146667,1.28 l -0.96,-1.92 q 1.706667,-1.119999 2.826667,-2.133333 1.173333,-1.013333 1.813333,-2.239999 0.64,-1.173334 0.906667,-2.72 0.266666,-1.546667 0.266666,-3.68 v -15.68 q 0,-0.48 -0.266666,-0.8 -0.266667,-0.32 -0.746667,-0.373333 l -2.72,-0.373334 v -1.92 q 1.653333,-0.533333 3.626667,-0.746666 1.973333,-0.266667 3.626666,-0.32 z"
       style="font-style:normal;font-variant:normal;font-weight:normal;font-stretch:normal;font-size:53.33333206px;font-family:yrsa;-inkscape-font-specification:'yrsa, Normal';font-variant-ligatures:normal;font-variant-caps:normal;font-variant-numeric:normal;font-feature-settings:normal;text-align:center;writing-mode:lr-tb;text-anchor:middle;fill:#00c2c8;fill-opacity:1"
       id="path864" />
    <path
       d="m -18.744667,71.843311 q -2.08,0 -3.466667,1.44 -1.386666,1.44 -1.76,4.586667 h 9.76 v -0.906667 q 0,-2.293333 -1.173333,-3.68 -1.173333,-1.44 -3.36,-1.44 z m 8.64,15.573333 q -0.8,2.4 -3.146667,3.84 -2.293333,1.386667 -5.44,1.386667 -2.773333,0 -4.746666,-1.066667 -1.973333,-1.066666 -3.146667,-2.933333 -1.333333,1.92 -3.626666,2.986667 -2.24,1.013333 -4.746667,1.013333 -2.88,0 -4.64,-1.333333 -1.76,-1.386667 -1.76,-3.946667 0,-1.706667 0.746667,-2.826667 0.8,-1.173333 2.026666,-1.866666 1.226667,-0.693333 2.773334,-1.013333 1.546666,-0.373334 3.04,-0.48 l 4.426666,-0.32 v -2.666667 q 0,-2.986667 -1.28,-4.213333 -1.28,-1.226667 -3.733333,-1.226667 -1.546667,0 -3.253333,0.586667 -1.653334,0.586666 -3.093333,1.92 l -1.013334,-0.96 q 0.746667,-2.293334 3.2,-3.466667 2.506667,-1.173333 5.226667,-1.173333 2.453333,0 4.053333,0.853333 1.6,0.853333 2.453333,2.453333 1.333333,-1.653333 3.253333,-2.506666 1.92,-0.906667 4.373334,-0.906667 3.573333,0 5.813333,1.973333 2.293333,1.92 2.293333,5.653334 0,0.533333 -0.05333,1.333333 -0.05333,0.746667 -0.16,1.386667 h -13.866667 q 0,0.106666 0,0.266666 0,0.106667 0,0.266667 0,5.28 1.92,7.306666 1.92,2.026667 4.586667,2.026667 1.813333,0 3.466667,-0.8 1.706666,-0.853333 2.666666,-2.346667 z m -23.52,2.506667 q 1.493334,0 3.2,-0.64 1.76,-0.64 3.146667,-1.973333 -0.373333,-0.96 -0.693333,-2.08 -0.266667,-1.12 -0.32,-2.346667 l -3.786667,0.32 q -2.346667,0.16 -3.626667,1.066667 -1.226666,0.853333 -1.226666,2.666666 0,1.386667 0.8,2.186667 0.853333,0.8 2.506666,0.8 z"
       style="font-style:normal;font-variant:normal;font-weight:normal;font-stretch:normal;font-size:53.33333206px;font-family:yrsa;-inkscape-font-specification:'yrsa, Normal';font-variant-ligatures:normal;font-variant-caps:normal;font-variant-numeric:normal;font-feature-settings:normal;text-align:center;writing-mode:lr-tb;text-anchor:middle;fill:#00c2c8;fill-opacity:1"
       id="path866" />
    <path
       d="m 1.2586642,57.976645 v 30.666666 q 0,0.533333 0.2666666,0.853333 0.2666667,0.32 0.7466667,0.373334 l 2.8266666,0.426666 v 1.92 H -6.794669 v -1.973333 l 2.8266666,-0.373333 q 0.5333334,-0.05333 0.8,-0.32 0.2666667,-0.32 0.2666667,-0.853334 V 61.816645 q 0,-0.533333 -0.2666667,-0.8 -0.2666666,-0.32 -0.8,-0.373333 l -2.9333332,-0.426667 v -1.76 q 1.6533333,-0.533333 3.7333332,-0.8 2.1333333,-0.266667 3.7866666,-0.32 z"
       style="font-style:normal;font-variant:normal;font-weight:normal;font-stretch:normal;font-size:53.33333206px;font-family:yrsa;-inkscape-font-specification:'yrsa, Normal';font-variant-ligatures:normal;font-variant-caps:normal;font-variant-numeric:normal;font-feature-settings:normal;text-align:center;writing-mode:lr-tb;text-anchor:middle;fill:#00c2c8;fill-opacity:1"
       id="path868" />
    <path
       d="m 19.163659,90.456644 q 3.04,0 4.853333,-2.08 1.813334,-2.08 1.866667,-7.253333 0.05333,-4.32 -1.386667,-6.506666 -1.386666,-2.186667 -4.426666,-2.186667 -1.653334,0 -2.88,0.586667 -1.226667,0.533333 -2.026667,1.226666 v 15.253333 q 0.693333,0.426667 1.706667,0.693334 1.066666,0.266666 2.293333,0.266666 z m 0.32,9.386667 v 1.973329 H 7.5903259 v -1.973329 l 2.4,-0.373334 q 0.5333331,-0.05333 0.7466671,-0.373333 0.266666,-0.266667 0.266666,-0.746667 V 74.243311 q 0,-0.533333 -0.213333,-0.853333 -0.213333,-0.32 -0.746667,-0.373333 L 7.3236593,72.643311 v -1.92 q 1.6533333,-0.48 3.3599997,-0.746666 1.706667,-0.266667 3.36,-0.32 l 0.693333,0.693333 0.266667,2.24 q 1.066667,-1.28 2.72,-2.133333 1.653333,-0.906667 4.053333,-0.906667 3.626667,0 6.08,2.56 2.506667,2.506667 2.506667,8 0,5.866666 -3.04,9.226666 -2.986667,3.306667 -8.266667,3.306667 -0.853333,0 -1.92,-0.106667 -1.066666,-0.106666 -1.973333,-0.426666 v 6.239999 q 0,0.48 0.266667,0.746667 0.32,0.32 0.8,0.373333 z"
       style="font-style:normal;font-variant:normal;font-weight:normal;font-stretch:normal;font-size:53.33333206px;font-family:yrsa;-inkscape-font-specification:'yrsa, Normal';font-variant-ligatures:normal;font-variant-caps:normal;font-variant-numeric:normal;font-feature-settings:normal;text-align:center;writing-mode:lr-tb;text-anchor:middle;fill:#00c2c8;fill-opacity:1"
       id="path870" />
  </g>
  <g
     aria-label="Socorro"
     style="font-style:normal;font-variant:normal;font-weight:normal;font-stretch:normal;font-size:53.33333206px;font-family:yrsa;-inkscape-font-specification:'yrsa, Normal';font-variant-ligatures:normal;font-variant-caps:normal;font-variant-numeric:normal;font-feature-settings:normal;text-align:center;writing-mode:lr-tb;text-anchor:middle;fill:#00c2c8;fill-opacity:1"
     id="text28">
    <path
       d="m 137.97689,326.93293 q 0,1.6 -0.64,3.2 -0.58667,1.54667 -1.86667,2.77334 -1.28,1.22666 -3.30667,1.97333 -1.97333,0.74667 -4.69333,0.74667 -3.04,0 -5.54667,-0.8 -2.45333,-0.8 -3.94666,-1.70667 -0.0533,-1.86667 0.0533,-3.78667 0.10667,-1.97333 0.32,-3.84 h 2.56 l 0.74667,4.53334 q 0.0533,0.37333 0.16,0.69333 0.16,0.32 0.53333,0.69333 0.74667,0.8 2.18667,1.44 1.44,0.64 3.25333,0.64 2.82667,0 4.32,-1.38666 1.49333,-1.44 1.49333,-3.84 0,-2.82667 -1.92,-4.21334 -1.86666,-1.38666 -4.90666,-2.77333 -1.38667,-0.64 -2.88,-1.38667 -1.49334,-0.8 -2.66667,-1.86666 -1.17333,-1.06667 -1.97333,-2.50667 -0.74667,-1.44 -0.74667,-3.41333 0,-3.41334 2.50667,-5.65334 2.50666,-2.29333 7.41333,-2.29333 2.13333,0 4.26667,0.48 2.18666,0.42667 3.68,1.12 0.16,1.92 0.0533,3.73333 -0.10667,1.81334 -0.32,3.46667 h -2.50667 l -0.74666,-3.94667 q -0.10667,-0.37333 -0.32,-0.74666 -0.16,-0.37334 -0.53334,-0.69334 -0.64,-0.53333 -1.81333,-0.90666 -1.12,-0.37334 -2.50667,-0.37334 -2.50666,0 -3.84,1.22667 -1.28,1.17333 -1.28,3.30667 0,2.61333 1.86667,3.94666 1.86667,1.33334 5.28,2.98667 1.54667,0.74667 3.04,1.6 1.54667,0.85333 2.66667,1.92 1.17333,1.01333 1.86666,2.4 0.69334,1.38667 0.69334,3.25333 z"
       style="font-style:normal;font-variant:normal;font-weight:normal;font-stretch:normal;font-size:53.33333206px;font-family:yrsa;-inkscape-font-specification:'yrsa, Normal';font-variant-ligatures:normal;font-variant-caps:normal;font-variant-numeric:normal;font-feature-settings:normal;text-align:center;writing-mode:lr-tb;text-anchor:middle;fill:#00c2c8;fill-opacity:1"
       id="path847" />
    <path
       d="m 142.44605,324.05293 q 0,-3.04 0.85333,-5.28 0.85334,-2.24 2.29334,-3.62666 1.44,-1.44 3.36,-2.13334 1.97333,-0.69333 4.16,-0.69333 5.17333,0 7.52,3.2 2.4,3.14667 2.4,8.26667 0,3.04 -0.85334,5.28 -0.8,2.18666 -2.24,3.62666 -1.44,1.38667 -3.41333,2.08 -1.97333,0.64 -4.16,0.64 -5.12,0 -7.52,-3.09333 -2.4,-3.14667 -2.4,-8.26667 z m 16,0.10667 q 0,-4.37333 -1.28,-6.98667 -1.22667,-2.66666 -4.58667,-2.66666 -2.82666,0 -4.21333,2.18666 -1.33333,2.13334 -1.33333,6.93334 0,4.32 1.22666,6.98666 1.28,2.61334 4.64,2.61334 2.82667,0 4.16,-2.13334 1.38667,-2.13333 1.38667,-6.93333 z"
       style="font-style:normal;font-variant:normal;font-weight:normal;font-stretch:normal;font-size:53.33333206px;font-family:yrsa;-inkscape-font-specification:'yrsa, Normal';font-variant-ligatures:normal;font-variant-caps:normal;font-variant-numeric:normal;font-feature-settings:normal;text-align:center;writing-mode:lr-tb;text-anchor:middle;fill:#00c2c8;fill-opacity:1"
       id="path849" />
    <path
       d="m 167.39272,324.21293 q 0,-2.56 0.69333,-4.74666 0.69333,-2.18667 2.02667,-3.73334 1.33333,-1.6 3.36,-2.50666 2.02666,-0.90667 4.64,-0.90667 1.81333,0 3.68,0.42667 1.92,0.42666 3.09333,1.01333 0.10667,1.49333 -0.0533,3.25333 -0.10667,1.76 -0.32,3.25334 h -2.13334 l -0.85333,-3.25334 q -0.10667,-0.53333 -0.26667,-0.90666 -0.16,-0.37334 -0.53333,-0.69334 -0.48,-0.37333 -1.28,-0.64 -0.74667,-0.26666 -1.76,-0.26666 -2.72,0 -4.21333,2.18666 -1.49334,2.18667 -1.49334,6.61334 0,4.64 1.70667,6.93333 1.70667,2.29333 4.74667,2.29333 1.81333,0 3.2,-0.69333 1.44,-0.69333 2.34666,-1.65333 l 1.17334,1.01333 q -0.90667,1.97333 -2.98667,3.09333 -2.08,1.12 -4.96,1.12 -4.85333,0 -7.36,-3.14666 -2.45333,-3.2 -2.45333,-8.05334 z"
       style="font-style:normal;font-variant:normal;font-weight:normal;font-stretch:normal;font-size:53.33333206px;font-family:yrsa;-inkscape-font-specification:'yrsa, Normal';font-variant-ligatures:normal;font-variant-caps:normal;font-variant-numeric:normal;font-feature-settings:normal;text-align:center;writing-mode:lr-tb;text-anchor:middle;fill:#00c2c8;fill-opacity:1"
       id="path851" />
    <path
       d="m 189.32105,324.05293 q 0,-3.04 0.85333,-5.28 0.85333,-2.24 2.29333,-3.62666 1.44,-1.44 3.36,-2.13334 1.97334,-0.69333 4.16,-0.69333 5.17334,0 7.52,3.2 2.4,3.14667 2.4,8.26667 0,3.04 -0.85333,5.28 -0.8,2.18666 -2.24,3.62666 -1.44,1.38667 -3.41333,2.08 -1.97334,0.64 -4.16,0.64 -5.12,0 -7.52,-3.09333 -2.4,-3.14667 -2.4,-8.26667 z m 16,0.10667 q 0,-4.37333 -1.28,-6.98667 -1.22667,-2.66666 -4.58667,-2.66666 -2.82667,0 -4.21333,2.18666 -1.33334,2.13334 -1.33334,6.93334 0,4.32 1.22667,6.98666 1.28,2.61334 4.64,2.61334 2.82667,0 4.16,-2.13334 1.38667,-2.13333 1.38667,-6.93333 z"
       style="font-style:normal;font-variant:normal;font-weight:normal;font-stretch:normal;font-size:53.33333206px;font-family:yrsa;-inkscape-font-specification:'yrsa, Normal';font-variant-ligatures:normal;font-variant-caps:normal;font-variant-numeric:normal;font-feature-settings:normal;text-align:center;writing-mode:lr-tb;text-anchor:middle;fill:#00c2c8;fill-opacity:1"
       id="path853" />
    <path
       d="m 226.64105,333.06627 v 1.92 h -12.58667 v -1.97334 l 2.34667,-0.37333 q 0.53333,-0.0533 0.8,-0.37333 0.26666,-0.32 0.26666,-0.85334 v -14.34666 q 0,-0.53334 -0.26666,-0.85334 -0.21334,-0.37333 -0.8,-0.42666 l -2.66667,-0.37334 v -1.92 q 1.54667,-0.48 3.30667,-0.74666 1.81333,-0.26667 3.36,-0.32 l 0.64,0.64 0.42666,3.57333 q 1.22667,-1.65333 3.2,-2.98667 2.02667,-1.33333 4.16,-1.33333 0.53334,0 1.33334,0.16 0.8,0.16 1.33333,0.37333 0.10667,1.65334 -0.0533,3.73334 -0.10667,2.02666 -0.48,3.68 h -1.97334 l -0.58666,-2.98667 q -0.16,-0.64 -0.48,-0.90667 -0.26667,-0.26666 -0.85334,-0.26666 -1.33333,0 -2.77333,0.58666 -1.44,0.58667 -2.66667,1.81334 v 12.90666 q 0,0.53334 0.26667,0.85334 0.32,0.32 0.85333,0.37333 z"
       style="font-style:normal;font-variant:normal;font-weight:normal;font-stretch:normal;font-size:53.33333206px;font-family:yrsa;-inkscape-font-specification:'yrsa, Normal';font-variant-ligatures:normal;font-variant-caps:normal;font-variant-numeric:normal;font-feature-settings:normal;text-align:center;writing-mode:lr-tb;text-anchor:middle;fill:#00c2c8;fill-opacity:1"
       id="path855" />
    <path
       d="m 247.47438,333.06627 v 1.92 h -12.58666 v -1.97334 l 2.34666,-0.37333 q 0.53334,-0.0533 0.8,-0.37333 0.26667,-0.32 0.26667,-0.85334 v -14.34666 q 0,-0.53334 -0.26667,-0.85334 -0.21333,-0.37333 -0.8,-0.42666 l -2.66666,-0.37334 v -1.92 q 1.54666,-0.48 3.30666,-0.74666 1.81334,-0.26667 3.36,-0.32 l 0.64,0.64 0.42667,3.57333 q 1.22667,-1.65333 3.2,-2.98667 2.02667,-1.33333 4.16,-1.33333 0.53333,0 1.33333,0.16 0.8,0.16 1.33334,0.37333 0.10666,1.65334 -0.0533,3.73334 -0.10666,2.02666 -0.48,3.68 h -1.97333 l -0.58667,-2.98667 q -0.16,-0.64 -0.48,-0.90667 -0.26666,-0.26666 -0.85333,-0.26666 -1.33333,0 -2.77333,0.58666 -1.44,0.58667 -2.66667,1.81334 v 12.90666 q 0,0.53334 0.26667,0.85334 0.32,0.32 0.85333,0.37333 z"
       style="font-style:normal;font-variant:normal;font-weight:normal;font-stretch:normal;font-size:53.33333206px;font-family:yrsa;-inkscape-font-specification:'yrsa, Normal';font-variant-ligatures:normal;font-variant-caps:normal;font-variant-numeric:normal;font-feature-settings:normal;text-align:center;writing-mode:lr-tb;text-anchor:middle;fill:#00c2c8;fill-opacity:1"
       id="path857" />
    <path
       d="m 255.46688,324.05293 q 0,-3.04 0.85333,-5.28 0.85333,-2.24 2.29333,-3.62666 1.44,-1.44 3.36,-2.13334 1.97334,-0.69333 4.16,-0.69333 5.17334,0 7.52,3.2 2.4,3.14667 2.4,8.26667 0,3.04 -0.85333,5.28 -0.8,2.18666 -2.24,3.62666 -1.44,1.38667 -3.41333,2.08 -1.97334,0.64 -4.16,0.64 -5.12,0 -7.52,-3.09333 -2.4,-3.14667 -2.4,-8.26667 z m 16,0.10667 q 0,-4.37333 -1.28,-6.98667 -1.22667,-2.66666 -4.58667,-2.66666 -2.82667,0 -4.21333,2.18666 -1.33334,2.13334 -1.33334,6.93334 0,4.32 1.22667,6.98666 1.28,2.61334 4.64,2.61334 2.82667,0 4.16,-2.13334 1.38667,-2.13333 1.38667,-6.93333 z"
       style="font-style:normal;font-variant:normal;font-weight:normal;font-stretch:normal;font-size:53.33333206px;font-family:yrsa;-inkscape-font-specification:'yrsa, Normal';font-variant-ligatures:normal;font-variant-caps:normal;font-variant-numeric:normal;font-feature-settings:normal;text-align:center;writing-mode:lr-tb;text-anchor:middle;fill:#00c2c8;fill-opacity:1"
       id="path859" />
  </g>
  <g
     aria-label="助けて"
     style="font-style:normal;font-variant:normal;font-weight:normal;font-stretch:normal;font-size:46.66666794px;font-family:yrsa;-inkscape-font-specification:'yrsa, Normal';font-variant-ligatures:normal;font-variant-caps:normal;font-variant-numeric:normal;font-feature-settings:normal;text-align:center;writing-mode:lr-tb;text-anchor:middle;fill:#00c2c8;fill-opacity:1"
     id="text14-0">
    <path
       d="m 13.098181,171.81916 h 7.48 v 5.28 c -2.64,0.56 -5.16,1.12 -7.48,1.6 z m 7.48,-16.96 v 5.84 h -7.48 v -5.84 z m 0,14.28 h -7.48 v -5.76 h 7.48 z m 5,6.88 -2.2,0.48 v -24.36 h -13 v 27.12 l -2.8400002,0.56 0.52,3 c 4.7600002,-1.08 11.4800002,-2.64 17.7200002,-4.12 z m 8.48,-16.8 c 0.12,-2.92 0.12,-5.92 0.12,-9 h -2.88 c 0,3.08 0,6.08 -0.12,9 h -6.48 v 2.84 h 6.36 c -0.56,9.56 -2.56,17.8 -10.16,22.56 0.76,0.44 1.72,1.48 2.16,2.2 8.08,-5.36 10.28,-14.36 10.88,-24.76 h 6.24 c -0.36,14.56 -0.8,19.84 -1.8,21.04 -0.36,0.52 -0.8,0.64 -1.48,0.6 -0.84,0 -2.92,0 -5.2,-0.16 0.52,0.76 0.8,1.96 0.88,2.84 2.12,0.08 4.28,0.16 5.48,0.04 1.28,-0.16 2.12,-0.48 2.88,-1.52 1.32,-1.76 1.72,-7.44 2.12,-24.2 0,-0.36 0.04,-1.48 0.04,-1.48 z"
       style="font-style:normal;font-variant:normal;font-weight:normal;font-stretch:normal;font-size:40px;font-family:yrsa;-inkscape-font-specification:'yrsa, Normal';font-variant-ligatures:normal;font-variant-caps:normal;font-variant-numeric:normal;font-feature-settings:normal;text-align:center;writing-mode:lr-tb;text-anchor:middle"
       id="path840" />
    <path
       d="m 76.458181,152.45916 h -3.72 c 0.12,0.64 0.28,1.48 0.36,2.4 0.08,1 0.2,3.68 0.24,6.2 -1.68,0.08 -3.4,0.12 -5.04,0.12 -2.16,0 -4.72,-0.16 -6.44,-0.44 v 3.2 c 1.72,0.12 4.56,0.24 6.48,0.24 1.64,0 3.36,-0.04 5.08,-0.12 0,0.48 0,0.88 0,1.24 0,7.68 -0.24,12.2 -4.52,15.96 -0.96,0.96 -2.6,1.96 -3.88,2.48 l 2.92,2.28 c 8.48,-5 8.48,-11.52 8.48,-20.72 0,-0.36 0,-0.84 0,-1.4 2.4,-0.16 4.64,-0.4 6.48,-0.68 v -3.28 c -1.88,0.44 -4.16,0.72 -6.52,0.92 -0.04,-2.48 -0.08,-5.16 -0.04,-6.04 0,-0.88 0.04,-1.68 0.12,-2.36 z m -20.24,0.6 -3.72,-0.36 c 0,0.72 -0.04,1.76 -0.2,2.68 -0.48,3.32 -1.52,9.48 -1.52,15.96 0,5.04 1.32,10.24 2.12,12.68 l 2.72,-0.32 c -0.04,-0.4 -0.08,-0.96 -0.12,-1.36 -0.04,-0.44 0.04,-1.2 0.2,-1.8 0.44,-1.96 1.64,-6.04 2.6,-8.84 l -1.72,-1.04 c -0.76,2 -1.6,4.44 -2.16,6.12 -1.52,-6.56 -0.16,-15.32 1.12,-21.12 0.2,-0.76 0.48,-1.84 0.68,-2.6 z"
       style="font-style:normal;font-variant:normal;font-weight:normal;font-stretch:normal;font-size:40px;font-family:yrsa;-inkscape-font-specification:'yrsa, Normal';font-variant-ligatures:normal;font-variant-caps:normal;font-variant-numeric:normal;font-feature-settings:normal;text-align:center;writing-mode:lr-tb;text-anchor:middle"
       id="path842" />
    <path
       d="m 89.418181,157.09916 0.36,3.48 c 4.32,-0.92 14.519999,-1.88 18.799999,-2.36 -3.68,2.2 -7.48,7.28 -7.48,13.52 0,8.92 8.44,12.88 15.84,13.16 l 1.16,-3.32 c -6.52,-0.24 -13.8,-2.72 -13.8,-10.56 0,-4.72 3.48,-10.8 9.16,-12.64 2.04,-0.6 5.56,-0.64 7.84,-0.64 v -3.2 c -2.68,0.12 -6.44,0.32 -10.8,0.72 -7.36,0.6 -14.919999,1.36 -17.519999,1.64 -0.76,0.08 -2.04,0.16 -3.56,0.2 z"
       style="font-style:normal;font-variant:normal;font-weight:normal;font-stretch:normal;font-size:40px;font-family:yrsa;-inkscape-font-specification:'yrsa, Normal';font-variant-ligatures:normal;font-variant-caps:normal;font-variant-numeric:normal;font-feature-settings:normal;text-align:center;writing-mode:lr-tb;text-anchor:middle"
       id="path844" />
  </g>
  <g
     aria-label="Hjälpa"
     transform="rotate(-30)"
     style="font-style:normal;font-variant:normal;font-weight:normal;font-stretch:normal;font-size:40px;font-family:yrsa;-inkscape-font-specification:'yrsa, Normal';font-variant-ligatures:normal;font-variant-caps:normal;font-variant-numeric:normal;font-feature-settings:normal;text-align:center;writing-mode:lr-tb;text-anchor:middle;fill:#00c2c8;fill-opacity:1"
     id="text841">
    <path
       d="m 210.10816,265.60816 v 1.52 l -2.32,0.44 q -0.4,0.04 -0.6,0.32 -0.16,0.24 -0.16,0.64 v 16.96 q 0,0.4 0.16,0.64 0.2,0.24 0.6,0.28 l 2.32,0.44 v 1.48 h -9.08 v -1.48 l 1.96,-0.44 q 0.4,-0.04 0.6,-0.28 0.2,-0.24 0.2,-0.64 v -7.88 h -10.72 v 7.92 q 0,0.36 0.16,0.6 0.2,0.24 0.6,0.28 l 2.12,0.44 v 1.48 h -9.2 v -1.48 l 2.32,-0.44 q 0.4,-0.04 0.56,-0.28 0.2,-0.24 0.2,-0.64 v -16.96 q 0,-0.4 -0.2,-0.64 -0.2,-0.28 -0.56,-0.32 l -2.32,-0.44 v -1.52 h 9.2 v 1.52 l -2.16,0.44 q -0.36,0.04 -0.56,0.28 -0.16,0.24 -0.16,0.64 v 7.28 h 10.72 v -7.28 q 0,-0.4 -0.2,-0.6 -0.16,-0.24 -0.56,-0.32 l -2.04,-0.44 v -1.52 z"
       style="font-style:normal;font-variant:normal;font-weight:normal;font-stretch:normal;font-size:40px;font-family:yrsa;-inkscape-font-specification:'yrsa, Normal';font-variant-ligatures:normal;font-variant-caps:normal;font-variant-numeric:normal;font-feature-settings:normal;text-align:center;writing-mode:lr-tb;text-anchor:middle;fill:#00c2c8;fill-opacity:1"
       id="path827" />
    <path
       d="m 218.27441,266.92816 q 0,0.92 -0.6,1.52 -0.6,0.56 -1.52,0.56 -0.96,0 -1.56,-0.56 -0.6,-0.6 -0.6,-1.52 0,-0.92 0.6,-1.48 0.6,-0.6 1.56,-0.6 0.92,0 1.52,0.6 0.6,0.56 0.6,1.48 z m -0.4,4.48 0.44,0.48 v 14.68 q 0,3.12 -0.52,4.64 -0.48,1.52 -1.76,2.6 -0.88,0.76 -2.08,1.32 -1.16,0.56 -2.36,0.96 l -0.72,-1.44 q 1.28,-0.84 2.12,-1.6 0.88,-0.76 1.36,-1.68 0.48,-0.88 0.68,-2.04 0.2,-1.16 0.2,-2.76 v -11.76 q 0,-0.36 -0.2,-0.6 -0.2,-0.24 -0.56,-0.28 l -2.04,-0.28 v -1.44 q 1.24,-0.4 2.72,-0.56 1.48,-0.2 2.72,-0.24 z"
       style="font-style:normal;font-variant:normal;font-weight:normal;font-stretch:normal;font-size:40px;font-family:yrsa;-inkscape-font-specification:'yrsa, Normal';font-variant-ligatures:normal;font-variant-caps:normal;font-variant-numeric:normal;font-feature-settings:normal;text-align:center;writing-mode:lr-tb;text-anchor:middle;fill:#00c2c8;fill-opacity:1"
       id="path829" />
    <path
       d="m 228.44191,286.60816 q 1.04,0 2.12,-0.36 1.08,-0.4 1.84,-1.04 v -3.92 l -2.8,0.28 q -1.76,0.12 -2.72,0.8 -0.92,0.64 -0.92,2 0,1.04 0.6,1.64 0.64,0.6 1.88,0.6 z m 6.72,1.96 q -1.04,0 -1.72,-0.52 -0.68,-0.56 -0.92,-1.56 -0.92,1 -2.32,1.6 -1.36,0.56 -2.88,0.56 -2,0 -3.36,-1 -1.32,-1.04 -1.32,-3 0,-1.28 0.56,-2.12 0.6,-0.84 1.52,-1.36 0.92,-0.52 2.08,-0.76 1.16,-0.28 2.28,-0.36 l 3.32,-0.28 v -1.96 q 0,-2.28 -0.92,-3.16 -0.88,-0.92 -2.72,-0.92 -1.36,0 -2.6,0.44 -1.24,0.44 -2.28,1.44 l -0.76,-0.72 q 0.6,-1.72 2.4,-2.6 1.84,-0.88 4.12,-0.88 2.88,0 4.32,1.48 1.48,1.48 1.48,4.48 v 8.2 q 0,0.48 0.2,0.72 0.24,0.2 0.68,0.24 l 1.64,0.16 v 1.36 q -0.4,0.12 -1.28,0.32 -0.84,0.2 -1.52,0.2 z m -0.44,-21.52 q 0,0.88 -0.52,1.4 -0.48,0.52 -1.32,0.52 -0.84,0 -1.36,-0.52 -0.52,-0.52 -0.52,-1.4 0,-0.88 0.52,-1.4 0.52,-0.52 1.36,-0.52 0.84,0 1.32,0.52 0.52,0.52 0.52,1.4 z m -6.48,0 q 0,0.88 -0.52,1.4 -0.52,0.52 -1.32,0.52 -0.84,0 -1.36,-0.52 -0.52,-0.52 -0.52,-1.4 0,-0.88 0.52,-1.4 0.52,-0.52 1.36,-0.52 0.8,0 1.32,0.52 0.52,0.52 0.52,1.4 z"
       style="font-style:normal;font-variant:normal;font-weight:normal;font-stretch:normal;font-size:40px;font-family:yrsa;-inkscape-font-specification:'yrsa, Normal';font-variant-ligatures:normal;font-variant-caps:normal;font-variant-numeric:normal;font-feature-settings:normal;text-align:center;writing-mode:lr-tb;text-anchor:middle;fill:#00c2c8;fill-opacity:1"
       id="path831" />
    <path
       d="m 245.62004,262.64816 v 23 q 0,0.4 0.2,0.64 0.2,0.24 0.56,0.28 l 2.12,0.32 v 1.44 h -8.92 v -1.48 l 2.12,-0.28 q 0.4,-0.04 0.6,-0.24 0.2,-0.24 0.2,-0.64 v -20.16 q 0,-0.4 -0.2,-0.6 -0.2,-0.24 -0.6,-0.28 l -2.2,-0.32 v -1.32 q 1.24,-0.4 2.8,-0.6 1.6,-0.2 2.84,-0.24 z"
       style="font-style:normal;font-variant:normal;font-weight:normal;font-stretch:normal;font-size:40px;font-family:yrsa;-inkscape-font-specification:'yrsa, Normal';font-variant-ligatures:normal;font-variant-caps:normal;font-variant-numeric:normal;font-feature-settings:normal;text-align:center;writing-mode:lr-tb;text-anchor:middle;fill:#00c2c8;fill-opacity:1"
       id="path833" />
    <path
       d="m 259.04879,287.00816 q 2.28,0 3.64,-1.56 1.36,-1.56 1.4,-5.44 0.04,-3.24 -1.04,-4.88 -1.04,-1.64 -3.32,-1.64 -1.24,0 -2.16,0.44 -0.92,0.4 -1.52,0.92 v 11.44 q 0.52,0.32 1.28,0.52 0.8,0.2 1.72,0.2 z m 0.24,7.04 v 1.48 h -8.92 v -1.48 l 1.8,-0.28 q 0.4,-0.04 0.56,-0.28 0.2,-0.2 0.2,-0.56 v -18.08 q 0,-0.4 -0.16,-0.64 -0.16,-0.24 -0.56,-0.28 l -2.04,-0.28 v -1.44 q 1.24,-0.36 2.52,-0.56 1.28,-0.2 2.52,-0.24 l 0.52,0.52 0.2,1.68 q 0.8,-0.96 2.04,-1.6 1.24,-0.68 3.04,-0.68 2.72,0 4.56,1.92 1.88,1.88 1.88,6 0,4.4 -2.28,6.92 -2.24,2.48 -6.2,2.48 -0.64,0 -1.44,-0.08 -0.8,-0.08 -1.48,-0.32 v 4.68 q 0,0.36 0.2,0.56 0.24,0.24 0.6,0.28 z"
       style="font-style:normal;font-variant:normal;font-weight:normal;font-stretch:normal;font-size:40px;font-family:yrsa;-inkscape-font-specification:'yrsa, Normal';font-variant-ligatures:normal;font-variant-caps:normal;font-variant-numeric:normal;font-feature-settings:normal;text-align:center;writing-mode:lr-tb;text-anchor:middle;fill:#00c2c8;fill-opacity:1"
       id="path835" />
    <path
       d="m 276.25441,286.60816 q 1.04,0 2.12,-0.36 1.08,-0.4 1.84,-1.04 v -3.92 l -2.8,0.28 q -1.76,0.12 -2.72,0.8 -0.92,0.64 -0.92,2 0,1.04 0.6,1.64 0.64,0.6 1.88,0.6 z m 6.72,1.96 q -1.04,0 -1.72,-0.52 -0.68,-0.56 -0.92,-1.56 -0.92,1 -2.32,1.6 -1.36,0.56 -2.88,0.56 -2,0 -3.36,-1 -1.32,-1.04 -1.32,-3 0,-1.28 0.56,-2.12 0.6,-0.84 1.52,-1.36 0.92,-0.52 2.08,-0.76 1.16,-0.28 2.28,-0.36 l 3.32,-0.28 v -1.96 q 0,-2.28 -0.92,-3.16 -0.88,-0.92 -2.72,-0.92 -1.36,0 -2.6,0.44 -1.24,0.44 -2.28,1.44 l -0.76,-0.72 q 0.6,-1.72 2.4,-2.6 1.84,-0.88 4.12,-0.88 2.88,0 4.32,1.48 1.48,1.48 1.48,4.48 v 8.2 q 0,0.48 0.2,0.72 0.24,0.2 0.68,0.24 l 1.64,0.16 v 1.36 q -0.4,0.12 -1.28,0.32 -0.84,0.2 -1.52,0.2 z"
       style="font-style:normal;font-variant:normal;font-weight:normal;font-stretch:normal;font-size:40px;font-family:yrsa;-inkscape-font-specification:'yrsa, Normal';font-variant-ligatures:normal;font-variant-caps:normal;font-variant-numeric:normal;font-feature-settings:normal;text-align:center;writing-mode:lr-tb;text-anchor:middle;fill:#00c2c8;fill-opacity:1"
       id="path837" />
  </g>
</svg>
