<?xml version="1.0" encoding="UTF-8" standalone="no"?>
<svg
   xmlns:dc="http://purl.org/dc/elements/1.1/"
   xmlns:cc="http://creativecommons.org/ns#"
   xmlns:rdf="http://www.w3.org/1999/02/22-rdf-syntax-ns#"
   xmlns:svg="http://www.w3.org/2000/svg"
   xmlns="http://www.w3.org/2000/svg"
   xmlns:sodipodi="http://sodipodi.sourceforge.net/DTD/sodipodi-0.dtd"
   xmlns:inkscape="http://www.inkscape.org/namespaces/inkscape"
   width="90"
   height="70"
   version="1.1"
   id="svg22"
   sodipodi:docname="duckduckgo.svg"
   inkscape:version="0.92.3 (2405546, 2018-03-11)">
  <defs
     id="defs26" />
  <sodipodi:namedview
     pagecolor="#ffffff"
     bordercolor="#666666"
     borderopacity="1"
     objecttolerance="10"
     gridtolerance="10"
     guidetolerance="10"
     inkscape:pageopacity="0"
     inkscape:pageshadow="2"
     inkscape:window-width="1864"
     inkscape:window-height="1064"
     id="namedview24"
     showgrid="false"
     inkscape:zoom="9.0195402"
     inkscape:cx="46.248603"
     inkscape:cy="28.714836"
     inkscape:window-x="1976"
     inkscape:window-y="0"
     inkscape:window-maximized="1"
     inkscape:current-layer="svg22" />
  <metadata
     id="metadata2">
    <rdf:RDF>
      <cc:Work>
        <dc:format>image/svg+xml</dc:format>
        <dc:type
           rdf:resource="http://purl.org/dc/dcmitype/StillImage" />
        <dc:title></dc:title>
      </cc:Work>
    </rdf:RDF>
  </metadata>
  <circle
     style="fill:none;fill-opacity:1;stroke:#00b7ba;stroke-width:2;stroke-linejoin:round"
     id="circle4"
     r="22.796"
     cy="26.939314"
     cx="44.560001" />
  <text
     id="text8"
     word-spacing="0"
     letter-spacing="0"
     font-size="40"
     style="font-size:40px;line-height:1.25;font-family:sans-serif;text-align:center;letter-spacing:0;word-spacing:0;text-anchor:middle;fill:#262626"
     y="64.670929"
     x="45.041">
    <tspan
       id="tspan6"
       font-size="14.7"
       style="font-size:14.69999981px;text-align:center"
       y="64.670929"
       x="45.041">DuckDuckGo</tspan>
  </text>
  <path
     style="clip-rule:evenodd;fill:none;image-rendering:optimizeQuality;shape-rendering:geometricPrecision;text-rendering:geometricPrecision"
     inkscape:connector-curvature="0"
     id="path10"
     class="fil1"
     d="m 64.206,26.570314 c 0,10.673 -8.682,19.354 -19.355,19.354 -10.672,0 -19.352,-8.682 -19.352,-19.354 0,-10.67 8.682,-19.3520003 19.352,-19.3520003 10.674,0 19.355,8.6820003 19.355,19.3520003 z" />
  <g
     id="g845"
     style="fill:#00b7ba;fill-opacity:1"
     transform="translate(0,1.4543137)">
    <path
       d="M 37.347,9.057 C 36.734,9.061 36.122,9.114 35.521,9.223 A 0.148,0.148 0 0 0 35.4,9.376 l 0.04,0.945 a 0.148,0.148 0 0 0 0.136,0.143 c -0.03,-0.003 -0.01,-0.003 0.011,0.007 0.022,0.01 0.052,0.026 0.088,0.047 l 0.008,0.004 c -0.21,0.076 -0.415,0.166 -0.584,0.305 -0.248,0.204 -0.415,0.512 -0.41,0.928 l 0.006,0.523 a 0.148,0.148 0 0 0 0.164,0.145 l 0.52,-0.053 a 10.62,10.62 0 0 1 2.663,0.078 c 0.08,0.012 0.16,0.033 0.239,0.047 a 7.638,7.638 0 0 0 -1.217,0.486 c -1.417,0.745 -2.324,1.879 -2.772,3.334 -0.431,1.403 -0.432,3.09 -0.087,5.033 a 0.148,0.148 0 0 0 0.002,0.012 v 0.008 a 0.148,0.148 0 0 0 0,0.002 c 0.454,2.54 1.922,9.478 3.119,15.137 0.592,2.802 1.12,5.293 1.412,6.716 0.096,0.467 0.148,0.915 0.162,1.34 0.015,0.445 -0.012,0.872 -0.074,1.282 a 0.148,0.148 0 0 0 0.037,0.12 c 0.154,0.171 0.33,0.292 0.53,0.327 0.199,0.035 0.41,-0.025 0.61,-0.162 a 0.148,0.148 0 0 0 0.063,-0.1 c 0.072,-0.474 0.102,-0.978 0.084,-1.51 a 9.164,9.164 0 0 0 -0.188,-1.547 c -0.317,-1.55 -0.833,-3.986 -1.412,-6.724 -1.199,-5.67 -2.667,-12.626 -3.11,-15.096 -0.317,-1.78 -0.318,-3.285 0.048,-4.473 0.351,-1.14 1.043,-2.006 2.158,-2.591 a 6.99,6.99 0 0 1 1.4,-0.53 12.23,12.23 0 0 1 1.819,-0.341 0.148,0.148 0 0 0 0.129,-0.125 l 0.138,-0.91 a 0.148,0.148 0 0 0 -0.086,-0.157 c -0.88,-0.39 -1.836,-0.663 -2.81,-0.814 -0.22,-0.034 -0.443,-0.05 -0.664,-0.07 a 0.148,0.148 0 0 0 0.013,-0.102 l -0.166,-0.723 c 0.524,0 1.048,0.034 1.565,0.115 a 9.959,9.959 0 0 1 3.101,1.026 c 0.491,0.26 0.906,0.528 1.246,0.799 0.343,0.273 0.612,0.547 0.809,0.818 a 0.148,0.148 0 0 0 0.04,0.037 l 0.294,0.19 a 0.148,0.148 0 0 0 0.053,0.02 c 0.58,0.11 1.12,0.273 1.586,0.487 a 3.6,3.6 0 0 1 1.05,0.702 c 1.039,1.038 2.047,2.821 2.657,4.664 0.547,1.654 0.764,3.336 0.426,4.52 a 0.148,0.148 0 0 0 0.101,0.183 l 0.92,0.263 a 0.148,0.148 0 0 0 0.184,-0.101 c 0.422,-1.479 0.173,-3.404 -0.44,-5.258 -0.665,-2.011 -1.768,-3.965 -2.959,-5.156 -0.39,-0.391 -0.874,-0.706 -1.418,-0.955 A 7.969,7.969 0 0 0 44.986,12.141 5.724,5.724 0 0 0 44.111,11.278 9.327,9.327 0 0 0 42.675,10.35 11.225,11.225 0 0 0 39.177,9.196 11.342,11.342 0 0 0 37.347,9.057 Z m 6.99,20.063 a 0.148,0.148 0 0 0 -0.136,0.113 c -0.324,1.294 -0.195,2.85 0.177,4.45 0.46,1.971 1.297,4.027 2.135,5.703 0.31,0.617 0.717,1.397 1.178,2.279 0.676,1.293 1.467,2.808 2.234,4.361 a 0.148,0.148 0 0 0 0.11,0.08 c 0.182,0.03 0.361,0.053 0.543,-0.015 0.18,-0.068 0.334,-0.226 0.468,-0.489 a 0.148,0.148 0 0 0 0,-0.132 c -0.743,-1.505 -1.555,-3.057 -2.248,-4.383 a 159.66,159.66 0 0 1 -1.166,-2.262 c -0.799,-1.597 -1.598,-3.56 -2.033,-5.426 -0.335,-1.438 -0.446,-2.806 -0.182,-3.863 a 0.148,0.148 0 0 0 -0.109,-0.18 L 44.38,29.124 A 0.148,0.148 0 0 0 44.337,29.12 Z"
       id="path12"
       inkscape:connector-curvature="0"
       style="clip-rule:evenodd;fill:#00b7ba;fill-opacity:1;image-rendering:optimizeQuality;shape-rendering:geometricPrecision;text-rendering:geometricPrecision" />
    <path
       d="m 37.278,21.447 c 0,-0.517 0.21,-0.987 0.552,-1.328 a 1.87,1.87 0 0 1 2.653,0.003 1.87,1.87 0 0 1 0,2.651 1.872,1.872 0 0 1 -2.653,0.003 1.872,1.872 0 0 1 -0.552,-1.329 z m 1.225,-0.65 a 0.916,0.916 0 0 0 -0.267,0.65 0.916,0.916 0 0 0 0.92,0.92 0.915,0.915 0 0 0 0.92,-0.92 0.92,0.92 0 0 0 -1.573,-0.65 z m 6.811,-0.885 c 0,-0.462 0.19,-0.881 0.494,-1.187 a 1.674,1.674 0 0 1 2.373,0 1.674,1.674 0 0 1 0.002,2.375 1.677,1.677 0 0 1 -2.377,0 1.676,1.676 0 0 1 -0.492,-1.188 z m 1.168,-0.51 a 0.725,0.725 0 0 0 1.024,1.024 0.725,0.725 0 0 0 -1.024,-1.023 z"
       class="fil0"
       id="path14"
       inkscape:connector-curvature="0"
       style="clip-rule:evenodd;fill:#00b7ba;fill-opacity:1;image-rendering:optimizeQuality;shape-rendering:geometricPrecision;text-rendering:geometricPrecision" />
    <path
       d="m 39.554,17.395 c 0,0 -1.054,-0.477 -2.08,0.167 -1.023,0.643 -0.985,1.3 -0.985,1.3 0,0 -0.544,-1.212 0.906,-1.806 1.452,-0.594 2.159,0.339 2.159,0.339 z m 7.923,0.1 c 0,0 -0.758,-0.433 -1.346,-0.425 -1.207,0.016 -1.537,0.55 -1.537,0.55 0,0 0.203,-1.274 1.748,-1.019 0.837,0.14 1.135,0.893 1.135,0.893 z"
       class="fil2"
       id="path16"
       inkscape:connector-curvature="0"
       style="clip-rule:evenodd;fill:#00b7ba;fill-opacity:1;fill-rule:evenodd;image-rendering:optimizeQuality;shape-rendering:geometricPrecision;text-rendering:geometricPrecision" />
    <path
       d="m 57.25,21.64 c -0.52,-0.018 -1,0.028 -1.305,0.169 -0.32,0.148 -1.034,0.373 -1.85,0.603 -1.303,0.368 -2.82,0.744 -3.591,0.928 -1.019,0.244 -1.508,0.27 -2.51,0.326 -0.23,0.013 -0.486,0.028 -0.72,0.043 -0.858,0.054 -1.83,0.482 -2.637,1.012 a 0.11,0.11 0 0 0 -0.018,0.013 0.11,0.11 0 0 0 -0.008,0.008 c -0.452,0.3 -0.86,0.64 -1.17,0.983 -0.315,0.35 -0.532,0.697 -0.586,1.021 -0.102,0.624 0.05,1.222 0.317,1.74 0.33,0.645 0.845,1.173 1.287,1.479 0.237,0.164 0.767,0.392 1.477,0.65 0.71,0.259 1.59,0.54 2.488,0.776 1.285,0.337 2.622,0.594 3.6,0.576 1.023,-0.02 2.307,-0.299 3.398,-0.7 0.656,-0.24 1.252,-0.528 1.695,-0.841 0.54,-0.382 0.89,-0.836 0.881,-1.346 a 1.077,1.077 0 0 0 -0.066,-0.351 0.992,0.992 0 0 0 -0.45,-0.547 C 57.28,28.07 57.036,28.027 56.76,28.025 c -0.553,-0.002 -1.245,0.163 -2.055,0.352 -1.375,0.32 -3.157,0.734 -4.926,0.57 C 48.835,28.86 48.21,28.651 47.839,28.4 a 0.967,0.967 0 0 1 -0.321,-0.328 0.463,0.463 0 0 1 -0.057,-0.265 c 0.01,-0.1 0.055,-0.213 0.133,-0.328 0.095,-0.14 0.22,-0.19 0.418,-0.204 0.198,-0.013 0.458,0.025 0.763,0.07 0.76,0.115 1.732,0.26 2.954,-0.105 a 55.8,55.8 0 0 0 3.857,-1.33 c 1.247,-0.48 2.355,-0.955 2.973,-1.3 0.76,-0.425 1.144,-0.85 1.244,-1.274 0.088,-0.375 -0.035,-0.712 -0.29,-0.973 -0.188,-0.193 -0.448,-0.338 -0.743,-0.449 -0.441,-0.165 -1,-0.255 -1.52,-0.273 z m 0.03,1.16 a 3.95,3.95 0 0 1 1.077,0.216 c 0.111,0.041 0.17,0.084 0.229,0.125 -0.023,0.033 -0.032,0.06 -0.1,0.115 a 3.5,3.5 0 0 1 -0.502,0.324 c -0.561,0.314 -1.619,0.772 -2.816,1.233 a 54.529,54.529 0 0 1 -3.775,1.298 c -0.968,0.29 -1.779,0.17 -2.446,0.069 -0.477,-0.072 -0.899,-0.14 -1.289,-0.075 -0.383,0.064 -0.727,0.269 -1.021,0.692 a 0.11,0.11 0 0 0 -0.014,0.016 0.11,0.11 0 0 0 -0.004,0.005 0.11,0.11 0 0 0 -0.002,0 c -0.182,0.27 -0.295,0.57 -0.324,0.883 -0.029,0.31 0.026,0.626 0.184,0.922 0.147,0.279 0.38,0.535 0.703,0.754 0.536,0.363 1.347,0.634 2.494,0.74 1.975,0.183 3.861,-0.258 5.299,-0.594 a 33.045,33.045 0 0 1 1.394,-0.306 c 0.172,-0.031 0.31,-0.05 0.399,-0.053 h 0.01 c -0.013,0.021 -0.008,0.022 -0.038,0.053 a 2.154,2.154 0 0 1 -0.299,0.246 c -0.347,0.246 -0.854,0.49 -1.423,0.7 -0.984,0.36 -2.133,0.61 -3.01,0.626 -0.835,0.016 -2.08,-0.22 -3.285,-0.537 a 29.592,29.592 0 0 1 -2.309,-0.707 c -0.643,-0.229 -1.13,-0.442 -1.277,-0.543 a 0.11,0.11 0 0 0 -0.004,-0.004 h -0.002 a 0.11,0.11 0 0 0 -0.002,-0.002 3.028,3.028 0 0 1 -0.91,-1.045 c -0.166,-0.323 -0.255,-0.674 -0.2,-1.015 0.018,-0.105 0.152,-0.313 0.377,-0.536 0.222,-0.218 0.529,-0.459 0.872,-0.685 h 0.002 a 0.11,0.11 0 0 0 0.013,-0.01 c 0.664,-0.436 1.45,-0.78 2.06,-0.82 h 0.007 a 0.11,0.11 0 0 0 0.002,0 c 0.297,-0.019 0.512,-0.03 0.709,-0.041 1.052,-0.06 1.594,-0.093 2.716,-0.362 0.801,-0.19 2.357,-0.573 3.64,-0.935 0.86,-0.243 1.62,-0.48 2.024,-0.666 0.144,-0.066 0.476,-0.103 0.84,-0.08 z"
       id="path18"
       inkscape:connector-curvature="0"
       style="clip-rule:evenodd;fill:#00b7ba;fill-opacity:1;image-rendering:optimizeQuality;shape-rendering:geometricPrecision;text-rendering:geometricPrecision" />
  </g>
</svg>
