<?xml version="1.0" encoding="UTF-8" standalone="no"?>
<svg
   xmlns:dc="http://purl.org/dc/elements/1.1/"
   xmlns:cc="http://creativecommons.org/ns#"
   xmlns:rdf="http://www.w3.org/1999/02/22-rdf-syntax-ns#"
   xmlns:svg="http://www.w3.org/2000/svg"
   xmlns="http://www.w3.org/2000/svg"
   xmlns:sodipodi="http://sodipodi.sourceforge.net/DTD/sodipodi-0.dtd"
   xmlns:inkscape="http://www.inkscape.org/namespaces/inkscape"
   width="90"
   height="64"
   version="1.1"
   id="svg12"
   sodipodi:docname="search_over.svg"
   inkscape:version="0.92.3 (2405546, 2018-03-11)">
  <metadata
     id="metadata18">
    <rdf:RDF>
      <cc:Work
         rdf:about="">
        <dc:format>image/svg+xml</dc:format>
        <dc:type
           rdf:resource="http://purl.org/dc/dcmitype/StillImage" />
      </cc:Work>
    </rdf:RDF>
  </metadata>
  <defs
     id="defs16" />
  <sodipodi:namedview
     pagecolor="#ffffff"
     bordercolor="#666666"
     borderopacity="1"
     objecttolerance="10"
     gridtolerance="10"
     guidetolerance="10"
     inkscape:pageopacity="0"
     inkscape:pageshadow="2"
     inkscape:window-width="1864"
     inkscape:window-height="1064"
     id="namedview14"
     showgrid="false"
     inkscape:zoom="9.0195398"
     inkscape:cx="36.65805"
     inkscape:cy="33.651671"
     inkscape:window-x="1976"
     inkscape:window-y="0"
     inkscape:window-maximized="1"
     inkscape:current-layer="g10" />
  <g
     transform="translate(0 16)"
     id="g10">
    <circle
       cx="44.56"
       cy="9.485"
       r="22.796"
       style="fill:#00b7ba;paint-order:normal;stroke-linejoin:round;stroke-width:2;stroke:#00b7ba;fill-opacity:1"
       id="circle2" />
    <text
       x="45.041"
       y="46.884"
       style="fill:#262626;font-family:sans-serif;font-size:40px;letter-spacing:0px;line-height:1.25;text-align:center;text-anchor:middle;word-spacing:0px"
       id="text6">
      <tspan
         x="45.041"
         y="46.884"
         style="fill:#262626;font-size:14.7px;text-align:center;text-anchor:middle"
         id="tspan4">
        Search
      </tspan>
    </text>
    <path
       d="m50.887 12.998h-1.206L49.253 12.586c1.497-1.741 2.398-4.001 2.398-6.46 0-5.483-4.444-9.927-9.927-9.927-5.483 0-9.927 4.444-9.927 9.927 0 5.483 4.444 9.927 9.927 9.927 2.459 0 4.719-0.901 6.46-2.398l0.412 0.428v1.206l7.636 7.621 2.276-2.276zm-9.163 0c-3.803 0-6.872-3.07-6.872-6.872 0-3.803 3.07-6.872 6.872-6.872 3.803 0 6.872 3.07 6.872 6.872 0 3.803-3.07 6.872-6.872 6.872z"
       id="path8"
       fill="#00b7ba"
       style="fill:#f7f7f7;fill-opacity:1" />
  </g>
</svg>
