<?xml version="1.0" encoding="UTF-8"?>
<!DOCTYPE svg PUBLIC "-//W3C//DTD SVG 1.1//EN" "http://www.w3.org/Graphics/SVG/1.1/DTD/svg11.dtd">
<svg xmlns="http://www.w3.org/2000/svg" width="24" height="24" viewBox="0 0 24 24"><path d="M6.127 6.562H8.846V4.232h1.554v2.33h1.165V4.232h1.554v2.33c4.272 0 4.272 4.661 1.942 4.855 3.107-0.194 3.884 6.02-1.942 6.02v2.33h-1.554v-2.33h-1.165v2.33H8.846v-2.33H6.127L6.516 15.884H7.292A0.777 0.777 0 0 0 8.069 15.107V8.893A0.777 0.777 0 0 0 7.292 8.116H6.127V6.562m4.272 1.554v3.107c0 0 3.496 0.194 3.496-1.554 0-1.748-3.496-1.554-3.496-1.554m0 4.272v3.496c0 0 4.272 0 4.272-1.748 0-1.748-4.272-1.748-4.272-1.748z" style="fill:#00c2c8;stroke-width:0.78"/><circle cx="11.924" cy="11.975" r="10.315" style="fill:none;stroke:#00c2c8"/></svg>
