<?xml version="1.0" encoding="UTF-8"?>
<!DOCTYPE svg PUBLIC "-//W3C//DTD SVG 1.1//EN" "http://www.w3.org/Graphics/SVG/1.1/DTD/svg11.dtd">
<svg xmlns="http://www.w3.org/2000/svg" width="48" height="48" viewBox="0 0 48 48"><path d="m45.489 24.959c-0.413-0.659-2.355-3.624-5.636-6.607-4.888-4.443-10.44-6.792-16.057-6.792-5.617 0-11.17 2.349-16.058 6.792-3.642 3.31-5.635 6.601-5.718 6.739-0.007 0.011-0.01 0.02-0.016 0.031-0.303 0.53-0.268 1.197 0.105 1.696 0.084 0.112 2.099 2.773 5.759 5.435 4.865 3.538 10.372 5.408 15.926 5.408 5.555 0 11.062-1.87 15.927-5.408 3.66-2.662 5.675-5.323 5.759-5.435 0.414-0.552 0.416-1.31 0.008-1.858zm-7.785-4.374c1.784 1.612 3.146 3.24 4.03 4.408-0.69 0.121-1.566 0.216-2.62 0.216-3.679 0-7.74-1.098-12.07-3.263-4.001-2.001-7.88-3.015-11.529-3.015-1.553 0-2.967 0.183-4.248 0.482 3.956-3.156 8.163-4.756 12.529-4.756 4.877 0 9.556 1.994 13.908 5.928zm-13.749 13.973c-0.038 0.001-0.075 0.001-0.113 0.001-4.555 0-8.448-3.635-8.703-8.156-0.085-1.508 0.227-3.029 0.884-4.365 2.185 0.066 4.484 0.556 6.868 1.461-0.965 0.365-1.652 1.296-1.652 2.388 0 1.411 1.144 2.556 2.556 2.556 1.412 0 2.556-1.144 2.556-2.556 0-0.324-0.063-0.632-0.173-0.918 2.106 1.019 4.164 1.806 6.163 2.36-0.708 3.991-4.333 7.175-8.387 7.228zM5.414 25.929c1.163-1.109 3.555-2.942 7.176-3.628-0.435 1.373-0.626 2.831-0.545 4.278 0.119 2.101 0.815 4.061 1.927 5.731C12.541 31.628 11.14 30.793 9.773 29.806 7.745 28.342 6.263 26.862 5.414 25.929Zm32.403 3.877c-1.367 0.987-2.768 1.822-4.199 2.503 0.852-1.288 1.461-2.747 1.753-4.313 1.276 0.205 2.526 0.312 3.743 0.312 0 0 0 0 0 0 0.211 0 0.415-0.003 0.615-0.009-0.569 0.489-1.208 0.999-1.912 1.508z" fill="#00c2c8"/></svg>
