<?xml version="1.0" encoding="UTF-8" standalone="no"?>
<!-- Created with Inkscape (http://www.inkscape.org/) -->

<svg
   xmlns:dc="http://purl.org/dc/elements/1.1/"
   xmlns:cc="http://creativecommons.org/ns#"
   xmlns:rdf="http://www.w3.org/1999/02/22-rdf-syntax-ns#"
   xmlns:svg="http://www.w3.org/2000/svg"
   xmlns="http://www.w3.org/2000/svg"
   xmlns:sodipodi="http://sodipodi.sourceforge.net/DTD/sodipodi-0.dtd"
   xmlns:inkscape="http://www.inkscape.org/namespaces/inkscape"
   width="64px"
   height="64px"
   id="svg2985"
   version="1.1"
   inkscape:version="0.92.3 (2405546, 2018-03-11)"
   sodipodi:docname="menu_upgrade.svg"
   inkscape:export-filename="/home/quids/Pictures/menu_home.png"
   inkscape:export-xdpi="126.56"
   inkscape:export-ydpi="126.56">
  <defs
     id="defs2987" />
  <sodipodi:namedview
     id="base"
     pagecolor="#ffffff"
     bordercolor="#666666"
     borderopacity="1.0"
     inkscape:pageopacity="0.0"
     inkscape:pageshadow="2"
     inkscape:zoom="5.5"
     inkscape:cx="-9.793817"
     inkscape:cy="31.288915"
     inkscape:current-layer="layer1"
     showgrid="true"
     inkscape:document-units="px"
     inkscape:grid-bbox="true"
     inkscape:window-width="1864"
     inkscape:window-height="1064"
     inkscape:window-x="1976"
     inkscape:window-y="0"
     inkscape:window-maximized="1" />
  <metadata
     id="metadata2990">
    <rdf:RDF>
      <cc:Work
         rdf:about="">
        <dc:format>image/svg+xml</dc:format>
        <dc:type
           rdf:resource="http://purl.org/dc/dcmitype/StillImage" />
        <dc:title />
      </cc:Work>
    </rdf:RDF>
  </metadata>
  <g
     id="layer1"
     inkscape:label="Layer 1"
     inkscape:groupmode="layer">
    <g
       transform="matrix(0.29804069,0,0,0.29804069,1.3366096,-259.20012)"
       id="layer1-6"
       inkscape:label="Layer 1"
       style="fill:#00b7ba;fill-opacity:1">
      <g
         style="fill:#00b7ba;fill-opacity:1"
         id="g3027"
         transform="matrix(0.09067077,0,0,-0.09067077,25.572063,1003.9005)">
        <path
           sodipodi:nodetypes="scssccssssssccscssscsscs"
           style="fill:#00b7ba;fill-opacity:1"
           inkscape:connector-curvature="0"
           id="path3029"
           d="m 1611,565 c 0,-34 -12.3333,-64 -37,-90 l -75,-75 c -25.3333,-25.33333 -55.6667,-38 -91,-38 -36,0 -66,12.66667 -90,38 l -294,293 14.3076,-779.353337 c 0.6363,-34.660823 -2.4078,-69.561463 -27.4078,-91.228133 -25,-21.66666 -65.25887,-25.77187 -100.5922,-25.77187 h -128 c -35.33334,0 -77.27423,5.78724 -102.27423,27.4539 -25,21.66667 -25.08946,54.88528 -25.72577,89.546103 L 640,693 346,400 c -24,-25.33333 -54,-38 -90,-38 -36,0 -66,12.66667 -90,38 l -75,75 c -25.333333,25.33333 -38,55.33333 -38,90 0,35.33333 12.666667,65.66667 38,91 l 651,651 c 23.33333,24.6667 53.33333,37 90,37 36,0 66.33333,-12.3333 91,-37 l 651,-651 c 24.6667,-26 37,-56.33333 37,-91 z" />
      </g>
    </g>
    <path
       style="fill:none;stroke:#00b7ba;stroke-width:3;stroke-linecap:round;stroke-linejoin:miter;stroke-miterlimit:4;stroke-dasharray:none;stroke-opacity:1"
       d="M 14.045918,51.529208 H 49.079433"
       id="path819"
       inkscape:connector-curvature="0" />
    <path
       style="fill:none;stroke:#00b7ba;stroke-width:2.8;stroke-linecap:round;stroke-linejoin:miter;stroke-miterlimit:4;stroke-dasharray:none;stroke-opacity:1"
       d="M 16.684746,58.600275 H 46.440605"
       id="path823"
       inkscape:connector-curvature="0" />
  </g>
</svg>
