<svg xmlns="http://www.w3.org/2000/svg" width="60" height="60" xmlns:v="https://vecta.io/nano"><g fill="none" stroke="#00b7ba" stroke-width="2"><rect width="20.044" height="10.634" x="19.837" y="16.22" ry=".058"/><rect width="24.179" height="12.755" x="3.304" y="44.285" ry=".07"/><rect width="24.179" height="12.569" x="32.554" y="44.285" ry=".069"/><path d="M44.732 44.285v-8.75h-9.196v-8.463M15.18 44.107v-8.57h9.554l.1-8.463"/></g><g fill="#00b7ba"><circle transform="matrix(.99994 .010962 -.010962 .99994 0 -992.362)" cx="58.176" cy="1009.677" r="2.577"/><path d="M47.158 1.167c-4.947-.054-9.348 1.78-12.07 4.64L37.28 9.27c1.987-2.595 5.655-4.315 9.836-4.27 3.87.042 7.27 1.6 9.284 3.912l2.35-3.24c-2.684-2.698-6.87-4.456-11.6-4.507zm.067 7.533c-2.994-.033-5.74 1.052-7.84 2.863l1.97 3.113a8.98 8.98 0 0 1 5.826-2.052 8.97 8.97 0 0 1 5.489 1.939l2.16-2.98a11.77 11.77 0 0 0-7.606-2.882z"/></g><path d="M37.143 11.607v8.57" fill="none" stroke="#00b7ba" stroke-width="1.8"/></svg>