<?xml version="1.0" encoding="UTF-8" standalone="no"?>
<!-- Created with Inkscape (http://www.inkscape.org/) -->

<svg
   xmlns:dc="http://purl.org/dc/elements/1.1/"
   xmlns:cc="http://creativecommons.org/ns#"
   xmlns:rdf="http://www.w3.org/1999/02/22-rdf-syntax-ns#"
   xmlns:svg="http://www.w3.org/2000/svg"
   xmlns="http://www.w3.org/2000/svg"
   xmlns:sodipodi="http://sodipodi.sourceforge.net/DTD/sodipodi-0.dtd"
   xmlns:inkscape="http://www.inkscape.org/namespaces/inkscape"
   width="48"
   height="48"
   viewBox="0 0 12.699999 12.699999"
   version="1.1"
   id="svg8"
   sodipodi:docname="smenu_analytics.svg"
   inkscape:version="0.92.3 (2405546, 2018-03-11)">
  <defs
     id="defs2" />
  <sodipodi:namedview
     id="base"
     pagecolor="#ffffff"
     bordercolor="#666666"
     borderopacity="1.0"
     inkscape:pageopacity="0.0"
     inkscape:pageshadow="2"
     inkscape:zoom="11.2"
     inkscape:cx="31.291708"
     inkscape:cy="19.981661"
     inkscape:document-units="px"
     inkscape:current-layer="layer1"
     showgrid="false"
     units="px"
     inkscape:window-width="1864"
     inkscape:window-height="1064"
     inkscape:window-x="1976"
     inkscape:window-y="0"
     inkscape:window-maximized="1"
     inkscape:measure-start="0,0"
     inkscape:measure-end="0,0" />
  <metadata
     id="metadata5">
    <rdf:RDF>
      <cc:Work
         rdf:about="">
        <dc:format>image/svg+xml</dc:format>
        <dc:type
           rdf:resource="http://purl.org/dc/dcmitype/StillImage" />
        <dc:title />
      </cc:Work>
    </rdf:RDF>
  </metadata>
  <g
     inkscape:label="Layer 1"
     inkscape:groupmode="layer"
     id="layer1"
     transform="translate(0,-284.30003)">
    <g
       id="g881"
       transform="matrix(0.0165422,0,0,0.0165422,1.3083807,285.65745)" />
    <g
       id="g883"
       transform="matrix(0.0165422,0,0,0.0165422,1.3083807,285.65745)" />
    <g
       id="g885"
       transform="matrix(0.0165422,0,0,0.0165422,1.3083807,285.65745)" />
    <g
       id="g887"
       transform="matrix(0.0165422,0,0,0.0165422,1.3083807,285.65745)" />
    <g
       id="g889"
       transform="matrix(0.0165422,0,0,0.0165422,1.3083807,285.65745)" />
    <g
       id="g891"
       transform="matrix(0.0165422,0,0,0.0165422,1.3083807,285.65745)" />
    <g
       id="g893"
       transform="matrix(0.0165422,0,0,0.0165422,1.3083807,285.65745)" />
    <g
       id="g895"
       transform="matrix(0.0165422,0,0,0.0165422,1.3083807,285.65745)" />
    <g
       id="g897"
       transform="matrix(0.0165422,0,0,0.0165422,1.3083807,285.65745)" />
    <g
       id="g899"
       transform="matrix(0.0165422,0,0,0.0165422,1.3083807,285.65745)" />
    <g
       id="g901"
       transform="matrix(0.0165422,0,0,0.0165422,1.3083807,285.65745)" />
    <g
       id="g903"
       transform="matrix(0.0165422,0,0,0.0165422,1.3083807,285.65745)" />
    <g
       id="g905"
       transform="matrix(0.0165422,0,0,0.0165422,1.3083807,285.65745)" />
    <g
       id="g907"
       transform="matrix(0.0165422,0,0,0.0165422,1.3083807,285.65745)" />
    <g
       id="g909"
       transform="matrix(0.0165422,0,0,0.0165422,1.3083807,285.65745)" />
    <path
       inkscape:connector-curvature="0"
       d="m 6.3821223,296.72495 c 0.6115221,0 1.1062991,-0.49478 1.1062991,-1.10631 H 5.2758231 c 0,0.61153 0.494777,1.10631 1.1062992,1.10631 z m 3.8915047,-3.33559 v -3.33556 c 0,-1.86238 -1.3119932,-3.41898 -3.0576109,-3.797 v -0.65044 c 0,-0.46142 -0.3724726,-0.8339 -0.8338938,-0.8339 -0.4614213,0 -0.8214968,0.37264 -0.8338938,0.8339 l -0.017249,0.64181 c -1.7456178,0.37803 -3.0576109,1.93464 -3.0576109,3.797 v 3.33557 l -1.54310446,1.42667 0.004317,0.22818 10.99427986,0.0129 -5e-6,-0.26269 z M 9.1617683,293.9453 H 3.6024761 v -3.8915 c 0,-1.53437 1.2452815,-2.77966 2.7796462,-2.77966 1.5343646,0 2.779646,1.24529 2.779646,2.77966 z M 5.8261929,288.386 h 1.1118585 v 2.22372 H 5.8261929 Z m 0,3.33558 h 1.1118585 v 1.11185 H 5.8261929 Z"
       id="path836"
       style="stroke-width:0.5559293;stroke:none;stroke-opacity:1;fill:#f7f7f7;fill-opacity:1"
       sodipodi:nodetypes="sccscscssscsccccccccsssccccccccccc" />
  </g>
</svg>
