<?xml version="1.0" encoding="UTF-8" standalone="no"?>
<!-- Created with Inkscape (http://www.inkscape.org/) -->

<svg
   xmlns:dc="http://purl.org/dc/elements/1.1/"
   xmlns:cc="http://creativecommons.org/ns#"
   xmlns:rdf="http://www.w3.org/1999/02/22-rdf-syntax-ns#"
   xmlns:svg="http://www.w3.org/2000/svg"
   xmlns="http://www.w3.org/2000/svg"
   xmlns:sodipodi="http://sodipodi.sourceforge.net/DTD/sodipodi-0.dtd"
   xmlns:inkscape="http://www.inkscape.org/namespaces/inkscape"
   width="48"
   height="48"
   viewBox="0 0 12.699999 12.699999"
   version="1.1"
   id="svg8"
   sodipodi:docname="smenu_analytics.svg"
   inkscape:version="0.92.3 (2405546, 2018-03-11)">
  <defs
     id="defs2" />
  <sodipodi:namedview
     id="base"
     pagecolor="#ffffff"
     bordercolor="#666666"
     borderopacity="1.0"
     inkscape:pageopacity="0.0"
     inkscape:pageshadow="2"
     inkscape:zoom="15.839192"
     inkscape:cx="15.441903"
     inkscape:cy="22.323596"
     inkscape:document-units="px"
     inkscape:current-layer="layer1"
     showgrid="false"
     units="px"
     inkscape:window-width="1864"
     inkscape:window-height="1064"
     inkscape:window-x="1976"
     inkscape:window-y="0"
     inkscape:window-maximized="1"
     inkscape:measure-start="0,0"
     inkscape:measure-end="0,0" />
  <metadata
     id="metadata5">
    <rdf:RDF>
      <cc:Work
         rdf:about="">
        <dc:format>image/svg+xml</dc:format>
        <dc:type
           rdf:resource="http://purl.org/dc/dcmitype/StillImage" />
        <dc:title />
      </cc:Work>
    </rdf:RDF>
  </metadata>
  <g
     inkscape:label="Layer 1"
     inkscape:groupmode="layer"
     id="layer1"
     transform="translate(0,-284.30003)">
    <path
       inkscape:connector-curvature="0"
       d="m 7.6293396,290.60185 c 0.00469,-0.0238 0.00859,-0.0476 0.011766,-0.0715 l 1.7634111,-1.97898 c 0.043244,-0.0484 0.04879,-0.11963 0.013861,-0.17424 -0.034917,-0.0547 -0.1019786,-0.0793 -0.1639839,-0.0605 l -2.5310146,0.76991 c -0.043185,-0.0134 -0.08726,-0.0246 -0.1321411,-0.0336 -0.3453497,-0.0686 -0.6967147,0.002 -0.9891571,0.19833 -0.2924578,0.19607 -0.491046,0.49428 -0.559208,0.83972 -0.06816,0.34544 0.0023,0.69672 0.1983363,0.98915 0.19605,0.29246 0.494245,0.49103 0.8396836,0.55919 0.3453499,0.0686 0.6967129,-0.002 0.9891459,-0.19833 0.2924423,-0.19604 0.4910348,-0.49428 0.5591925,-0.83968 z"
       id="path875"
       style="fill:#f7f7f7;fill-opacity:1;stroke-width:1.20120824;stroke-miterlimit:4;stroke-dasharray:none" />
    <g
       id="g881"
       transform="matrix(0.0165422,0,0,0.0165422,1.3083807,285.65745)" />
    <g
       id="g883"
       transform="matrix(0.0165422,0,0,0.0165422,1.3083807,285.65745)" />
    <g
       id="g885"
       transform="matrix(0.0165422,0,0,0.0165422,1.3083807,285.65745)" />
    <g
       id="g887"
       transform="matrix(0.0165422,0,0,0.0165422,1.3083807,285.65745)" />
    <g
       id="g889"
       transform="matrix(0.0165422,0,0,0.0165422,1.3083807,285.65745)" />
    <g
       id="g891"
       transform="matrix(0.0165422,0,0,0.0165422,1.3083807,285.65745)" />
    <g
       id="g893"
       transform="matrix(0.0165422,0,0,0.0165422,1.3083807,285.65745)" />
    <g
       id="g895"
       transform="matrix(0.0165422,0,0,0.0165422,1.3083807,285.65745)" />
    <g
       id="g897"
       transform="matrix(0.0165422,0,0,0.0165422,1.3083807,285.65745)" />
    <g
       id="g899"
       transform="matrix(0.0165422,0,0,0.0165422,1.3083807,285.65745)" />
    <g
       id="g901"
       transform="matrix(0.0165422,0,0,0.0165422,1.3083807,285.65745)" />
    <g
       id="g903"
       transform="matrix(0.0165422,0,0,0.0165422,1.3083807,285.65745)" />
    <g
       id="g905"
       transform="matrix(0.0165422,0,0,0.0165422,1.3083807,285.65745)" />
    <g
       id="g907"
       transform="matrix(0.0165422,0,0,0.0165422,1.3083807,285.65745)" />
    <g
       id="g909"
       transform="matrix(0.0165422,0,0,0.0165422,1.3083807,285.65745)" />
    <path
       style="fill:none;fill-opacity:1;stroke:#f7f7f7;stroke-width:1.19062491;stroke-linecap:round;stroke-linejoin:round;stroke-miterlimit:4;stroke-dasharray:none;stroke-opacity:1;paint-order:normal"
       id="path983"
       sodipodi:type="arc"
       sodipodi:cx="6.3003569"
       sodipodi:cy="290.51056"
       sodipodi:rx="5.1156554"
       sodipodi:ry="5.1156554"
       sodipodi:start="0.44348209"
       sodipodi:end="4.4608537"
       sodipodi:open="true"
       d="m 10.921139,292.70562 a 5.1156554,5.1156554 0 0 1 -5.6962435,2.80627 5.1156554,5.1156554 0 0 1 -4.0391849,-4.89973 5.1156554,5.1156554 0 0 1 3.8414045,-5.05627" />
    <path
       d="m 7.855666,285.63707 a 5.1156554,5.1156554 0 0 1 1.4999964,0.77044"
       sodipodi:end="5.3524522"
       sodipodi:start="5.0213083"
       sodipodi:ry="5.1156554"
       sodipodi:rx="5.1156554"
       sodipodi:cy="290.51056"
       sodipodi:cx="6.3003569"
       sodipodi:type="arc"
       id="path985"
       style="fill:none;fill-opacity:1;stroke:#f7f7f7;stroke-width:1.19062491;stroke-linecap:round;stroke-linejoin:round;stroke-miterlimit:4;stroke-dasharray:none;stroke-opacity:1;paint-order:normal"
       sodipodi:open="true" />
    <path
       sodipodi:open="true"
       style="fill:none;fill-opacity:1;stroke:#f7f7f7;stroke-width:1.19062491;stroke-linecap:round;stroke-linejoin:round;stroke-miterlimit:4;stroke-dasharray:none;stroke-opacity:1;paint-order:normal"
       id="path989"
       sodipodi:type="arc"
       sodipodi:cx="6.3003569"
       sodipodi:cy="290.51056"
       sodipodi:rx="5.1156554"
       sodipodi:ry="5.1156554"
       sodipodi:start="5.9541997"
       sodipodi:end="6.2207774"
       d="m 11.141663,288.85778 a 5.1156554,5.1156554 0 0 1 0.26439,1.33373" />
  </g>
</svg>
