<?xml version="1.0" encoding="UTF-8" standalone="no"?>
<!-- Created with Inkscape (http://www.inkscape.org/) -->

<svg
   xmlns:dc="http://purl.org/dc/elements/1.1/"
   xmlns:cc="http://creativecommons.org/ns#"
   xmlns:rdf="http://www.w3.org/1999/02/22-rdf-syntax-ns#"
   xmlns:svg="http://www.w3.org/2000/svg"
   xmlns="http://www.w3.org/2000/svg"
   xmlns:sodipodi="http://sodipodi.sourceforge.net/DTD/sodipodi-0.dtd"
   xmlns:inkscape="http://www.inkscape.org/namespaces/inkscape"
   width="60"
   height="60"
   id="svg2985"
   version="1.1"
   inkscape:version="0.92.3 (2405546, 2018-03-11)"
   sodipodi:docname="smenu_don.svg">
  <defs
     id="defs2987" />
  <sodipodi:namedview
     id="base"
     pagecolor="#ffffff"
     bordercolor="#666666"
     borderopacity="1.0"
     inkscape:pageopacity="0.0"
     inkscape:pageshadow="2"
     inkscape:zoom="5.6568542"
     inkscape:cx="1.6537375"
     inkscape:cy="3.8320735"
     inkscape:current-layer="layer1"
     showgrid="true"
     inkscape:grid-bbox="true"
     inkscape:document-units="px"
     inkscape:window-width="1864"
     inkscape:window-height="1064"
     inkscape:window-x="1976"
     inkscape:window-y="0"
     inkscape:window-maximized="1" />
  <metadata
     id="metadata2990">
    <rdf:RDF>
      <cc:Work
         rdf:about="">
        <dc:format>image/svg+xml</dc:format>
        <dc:type
           rdf:resource="http://purl.org/dc/dcmitype/StillImage" />
        <dc:title></dc:title>
      </cc:Work>
    </rdf:RDF>
  </metadata>
  <g
     id="layer1"
     inkscape:label="Layer 1"
     inkscape:groupmode="layer"
     transform="translate(0,12)">
    <path
       inkscape:connector-curvature="0"
       d="m 41.724492,-2.8816021 c -4.592811,0 -8.883329,1.95306057 -11.523091,5.1175219 -2.641456,-3.16506487 -6.932378,-5.1175219 -11.525294,-5.1175219 -7.831027,0 -14.2030425,5.4964122 -14.2030425,12.2536548 0,8.1830703 5.7926495,12.5618903 12.5005195,17.6316413 3.917675,2.960887 8.358337,6.316879 12.024872,10.86659 l 1.232797,1.529515 1.191288,-1.554055 c 3.548852,-4.628776 7.891332,-7.95018 12.0903,-11.161546 6.385473,-4.882911 12.414695,-9.495572 12.414695,-17.3121453 0,-6.7572426 -6.371112,-12.2536548 -14.203044,-12.2536548 z M 41.570732,24.793911 C 37.859477,27.631596 33.70493,30.808714 30.174168,34.971992 26.58472,30.907987 22.527458,27.841415 18.90363,25.102304 12.477447,20.246101 7.4020476,16.409517 7.4020476,9.3720527 c 0,-5.3641044 5.0575164,-9.72679306 11.2741634,-9.72679306 4.341069,0 8.344663,2.20180726 10.199542,5.60938576 l 1.325648,2.4367698 1.325564,-2.4373808 c 1.853466,-3.4076647 5.85626,-5.60877476 10.197631,-5.60877476 6.217343,0 11.274156,4.36260476 11.274156,9.72679306 -1.04e-4,6.6802513 -5.043348,10.5384303 -11.42802,15.4218583 z"
       id="path3"
       style="fill:#f7f7f7;fill-opacity:1;stroke:#f7f7f7;stroke-width:3;stroke-miterlimit:4;stroke-dasharray:none;stroke-opacity:1" />
  </g>
</svg>
